%TF.GenerationSoftware,KiCad,Pcbnew,9.0.6*%
%TF.CreationDate,2026-03-08T19:41:31+01:00*%
%TF.ProjectId,zx-talker,7a782d74-616c-46b6-9572-2e6b69636164,rev?*%
%TF.SameCoordinates,Original*%
%TF.FileFunction,Legend,Top*%
%TF.FilePolarity,Positive*%
%FSLAX46Y46*%
G04 Gerber Fmt 4.6, Leading zero omitted, Abs format (unit mm)*
G04 Created by KiCad (PCBNEW 9.0.6) date 2026-03-08 19:41:31*
%MOMM*%
%LPD*%
G01*
G04 APERTURE LIST*
%ADD10C,0.100000*%
%ADD11C,0.250000*%
%ADD12C,0.300000*%
%ADD13C,0.150000*%
%ADD14C,0.120000*%
G04 APERTURE END LIST*
D10*
X48982419Y-71476115D02*
X48315752Y-71476115D01*
X48506228Y-71476115D02*
X48410990Y-71428496D01*
X48410990Y-71428496D02*
X48363371Y-71380877D01*
X48363371Y-71380877D02*
X48315752Y-71285639D01*
X48315752Y-71285639D02*
X48315752Y-71190401D01*
X48934800Y-70476115D02*
X48982419Y-70571353D01*
X48982419Y-70571353D02*
X48982419Y-70761829D01*
X48982419Y-70761829D02*
X48934800Y-70857067D01*
X48934800Y-70857067D02*
X48839561Y-70904686D01*
X48839561Y-70904686D02*
X48458609Y-70904686D01*
X48458609Y-70904686D02*
X48363371Y-70857067D01*
X48363371Y-70857067D02*
X48315752Y-70761829D01*
X48315752Y-70761829D02*
X48315752Y-70571353D01*
X48315752Y-70571353D02*
X48363371Y-70476115D01*
X48363371Y-70476115D02*
X48458609Y-70428496D01*
X48458609Y-70428496D02*
X48553847Y-70428496D01*
X48553847Y-70428496D02*
X48649085Y-70904686D01*
X48934800Y-69571353D02*
X48982419Y-69666591D01*
X48982419Y-69666591D02*
X48982419Y-69857067D01*
X48982419Y-69857067D02*
X48934800Y-69952305D01*
X48934800Y-69952305D02*
X48887180Y-69999924D01*
X48887180Y-69999924D02*
X48791942Y-70047543D01*
X48791942Y-70047543D02*
X48506228Y-70047543D01*
X48506228Y-70047543D02*
X48410990Y-69999924D01*
X48410990Y-69999924D02*
X48363371Y-69952305D01*
X48363371Y-69952305D02*
X48315752Y-69857067D01*
X48315752Y-69857067D02*
X48315752Y-69666591D01*
X48315752Y-69666591D02*
X48363371Y-69571353D01*
X48982419Y-69142781D02*
X48315752Y-69142781D01*
X48506228Y-69142781D02*
X48410990Y-69095162D01*
X48410990Y-69095162D02*
X48363371Y-69047543D01*
X48363371Y-69047543D02*
X48315752Y-68952305D01*
X48315752Y-68952305D02*
X48315752Y-68857067D01*
X48934800Y-68142781D02*
X48982419Y-68238019D01*
X48982419Y-68238019D02*
X48982419Y-68428495D01*
X48982419Y-68428495D02*
X48934800Y-68523733D01*
X48934800Y-68523733D02*
X48839561Y-68571352D01*
X48839561Y-68571352D02*
X48458609Y-68571352D01*
X48458609Y-68571352D02*
X48363371Y-68523733D01*
X48363371Y-68523733D02*
X48315752Y-68428495D01*
X48315752Y-68428495D02*
X48315752Y-68238019D01*
X48315752Y-68238019D02*
X48363371Y-68142781D01*
X48363371Y-68142781D02*
X48458609Y-68095162D01*
X48458609Y-68095162D02*
X48553847Y-68095162D01*
X48553847Y-68095162D02*
X48649085Y-68571352D01*
X48982419Y-67238019D02*
X48458609Y-67238019D01*
X48458609Y-67238019D02*
X48363371Y-67285638D01*
X48363371Y-67285638D02*
X48315752Y-67380876D01*
X48315752Y-67380876D02*
X48315752Y-67571352D01*
X48315752Y-67571352D02*
X48363371Y-67666590D01*
X48934800Y-67238019D02*
X48982419Y-67333257D01*
X48982419Y-67333257D02*
X48982419Y-67571352D01*
X48982419Y-67571352D02*
X48934800Y-67666590D01*
X48934800Y-67666590D02*
X48839561Y-67714209D01*
X48839561Y-67714209D02*
X48744323Y-67714209D01*
X48744323Y-67714209D02*
X48649085Y-67666590D01*
X48649085Y-67666590D02*
X48601466Y-67571352D01*
X48601466Y-67571352D02*
X48601466Y-67333257D01*
X48601466Y-67333257D02*
X48553847Y-67238019D01*
X48315752Y-66904685D02*
X48315752Y-66523733D01*
X47982419Y-66761828D02*
X48839561Y-66761828D01*
X48839561Y-66761828D02*
X48934800Y-66714209D01*
X48934800Y-66714209D02*
X48982419Y-66618971D01*
X48982419Y-66618971D02*
X48982419Y-66523733D01*
X48934800Y-65809447D02*
X48982419Y-65904685D01*
X48982419Y-65904685D02*
X48982419Y-66095161D01*
X48982419Y-66095161D02*
X48934800Y-66190399D01*
X48934800Y-66190399D02*
X48839561Y-66238018D01*
X48839561Y-66238018D02*
X48458609Y-66238018D01*
X48458609Y-66238018D02*
X48363371Y-66190399D01*
X48363371Y-66190399D02*
X48315752Y-66095161D01*
X48315752Y-66095161D02*
X48315752Y-65904685D01*
X48315752Y-65904685D02*
X48363371Y-65809447D01*
X48363371Y-65809447D02*
X48458609Y-65761828D01*
X48458609Y-65761828D02*
X48553847Y-65761828D01*
X48553847Y-65761828D02*
X48649085Y-66238018D01*
X48982419Y-64904685D02*
X47982419Y-64904685D01*
X48934800Y-64904685D02*
X48982419Y-64999923D01*
X48982419Y-64999923D02*
X48982419Y-65190399D01*
X48982419Y-65190399D02*
X48934800Y-65285637D01*
X48934800Y-65285637D02*
X48887180Y-65333256D01*
X48887180Y-65333256D02*
X48791942Y-65380875D01*
X48791942Y-65380875D02*
X48506228Y-65380875D01*
X48506228Y-65380875D02*
X48410990Y-65333256D01*
X48410990Y-65333256D02*
X48363371Y-65285637D01*
X48363371Y-65285637D02*
X48315752Y-65190399D01*
X48315752Y-65190399D02*
X48315752Y-64999923D01*
X48315752Y-64999923D02*
X48363371Y-64904685D01*
X48982419Y-63666589D02*
X48315752Y-63666589D01*
X47982419Y-63666589D02*
X48030038Y-63714208D01*
X48030038Y-63714208D02*
X48077657Y-63666589D01*
X48077657Y-63666589D02*
X48030038Y-63618970D01*
X48030038Y-63618970D02*
X47982419Y-63666589D01*
X47982419Y-63666589D02*
X48077657Y-63666589D01*
X48315752Y-63190399D02*
X48982419Y-63190399D01*
X48410990Y-63190399D02*
X48363371Y-63142780D01*
X48363371Y-63142780D02*
X48315752Y-63047542D01*
X48315752Y-63047542D02*
X48315752Y-62904685D01*
X48315752Y-62904685D02*
X48363371Y-62809447D01*
X48363371Y-62809447D02*
X48458609Y-62761828D01*
X48458609Y-62761828D02*
X48982419Y-62761828D01*
X48077657Y-61571351D02*
X48030038Y-61523732D01*
X48030038Y-61523732D02*
X47982419Y-61428494D01*
X47982419Y-61428494D02*
X47982419Y-61190399D01*
X47982419Y-61190399D02*
X48030038Y-61095161D01*
X48030038Y-61095161D02*
X48077657Y-61047542D01*
X48077657Y-61047542D02*
X48172895Y-60999923D01*
X48172895Y-60999923D02*
X48268133Y-60999923D01*
X48268133Y-60999923D02*
X48410990Y-61047542D01*
X48410990Y-61047542D02*
X48982419Y-61618970D01*
X48982419Y-61618970D02*
X48982419Y-60999923D01*
X47982419Y-60380875D02*
X47982419Y-60285637D01*
X47982419Y-60285637D02*
X48030038Y-60190399D01*
X48030038Y-60190399D02*
X48077657Y-60142780D01*
X48077657Y-60142780D02*
X48172895Y-60095161D01*
X48172895Y-60095161D02*
X48363371Y-60047542D01*
X48363371Y-60047542D02*
X48601466Y-60047542D01*
X48601466Y-60047542D02*
X48791942Y-60095161D01*
X48791942Y-60095161D02*
X48887180Y-60142780D01*
X48887180Y-60142780D02*
X48934800Y-60190399D01*
X48934800Y-60190399D02*
X48982419Y-60285637D01*
X48982419Y-60285637D02*
X48982419Y-60380875D01*
X48982419Y-60380875D02*
X48934800Y-60476113D01*
X48934800Y-60476113D02*
X48887180Y-60523732D01*
X48887180Y-60523732D02*
X48791942Y-60571351D01*
X48791942Y-60571351D02*
X48601466Y-60618970D01*
X48601466Y-60618970D02*
X48363371Y-60618970D01*
X48363371Y-60618970D02*
X48172895Y-60571351D01*
X48172895Y-60571351D02*
X48077657Y-60523732D01*
X48077657Y-60523732D02*
X48030038Y-60476113D01*
X48030038Y-60476113D02*
X47982419Y-60380875D01*
X48077657Y-59666589D02*
X48030038Y-59618970D01*
X48030038Y-59618970D02*
X47982419Y-59523732D01*
X47982419Y-59523732D02*
X47982419Y-59285637D01*
X47982419Y-59285637D02*
X48030038Y-59190399D01*
X48030038Y-59190399D02*
X48077657Y-59142780D01*
X48077657Y-59142780D02*
X48172895Y-59095161D01*
X48172895Y-59095161D02*
X48268133Y-59095161D01*
X48268133Y-59095161D02*
X48410990Y-59142780D01*
X48410990Y-59142780D02*
X48982419Y-59714208D01*
X48982419Y-59714208D02*
X48982419Y-59095161D01*
X47982419Y-58190399D02*
X47982419Y-58666589D01*
X47982419Y-58666589D02*
X48458609Y-58714208D01*
X48458609Y-58714208D02*
X48410990Y-58666589D01*
X48410990Y-58666589D02*
X48363371Y-58571351D01*
X48363371Y-58571351D02*
X48363371Y-58333256D01*
X48363371Y-58333256D02*
X48410990Y-58238018D01*
X48410990Y-58238018D02*
X48458609Y-58190399D01*
X48458609Y-58190399D02*
X48553847Y-58142780D01*
X48553847Y-58142780D02*
X48791942Y-58142780D01*
X48791942Y-58142780D02*
X48887180Y-58190399D01*
X48887180Y-58190399D02*
X48934800Y-58238018D01*
X48934800Y-58238018D02*
X48982419Y-58333256D01*
X48982419Y-58333256D02*
X48982419Y-58571351D01*
X48982419Y-58571351D02*
X48934800Y-58666589D01*
X48934800Y-58666589D02*
X48887180Y-58714208D01*
X48315752Y-57047541D02*
X48982419Y-56809446D01*
X48982419Y-56809446D02*
X48315752Y-56571351D01*
X48982419Y-55666589D02*
X48982419Y-56238017D01*
X48982419Y-55952303D02*
X47982419Y-55952303D01*
X47982419Y-55952303D02*
X48125276Y-56047541D01*
X48125276Y-56047541D02*
X48220514Y-56142779D01*
X48220514Y-56142779D02*
X48268133Y-56238017D01*
X48887180Y-55238017D02*
X48934800Y-55190398D01*
X48934800Y-55190398D02*
X48982419Y-55238017D01*
X48982419Y-55238017D02*
X48934800Y-55285636D01*
X48934800Y-55285636D02*
X48887180Y-55238017D01*
X48887180Y-55238017D02*
X48982419Y-55238017D01*
X47982419Y-54571351D02*
X47982419Y-54476113D01*
X47982419Y-54476113D02*
X48030038Y-54380875D01*
X48030038Y-54380875D02*
X48077657Y-54333256D01*
X48077657Y-54333256D02*
X48172895Y-54285637D01*
X48172895Y-54285637D02*
X48363371Y-54238018D01*
X48363371Y-54238018D02*
X48601466Y-54238018D01*
X48601466Y-54238018D02*
X48791942Y-54285637D01*
X48791942Y-54285637D02*
X48887180Y-54333256D01*
X48887180Y-54333256D02*
X48934800Y-54380875D01*
X48934800Y-54380875D02*
X48982419Y-54476113D01*
X48982419Y-54476113D02*
X48982419Y-54571351D01*
X48982419Y-54571351D02*
X48934800Y-54666589D01*
X48934800Y-54666589D02*
X48887180Y-54714208D01*
X48887180Y-54714208D02*
X48791942Y-54761827D01*
X48791942Y-54761827D02*
X48601466Y-54809446D01*
X48601466Y-54809446D02*
X48363371Y-54809446D01*
X48363371Y-54809446D02*
X48172895Y-54761827D01*
X48172895Y-54761827D02*
X48077657Y-54714208D01*
X48077657Y-54714208D02*
X48030038Y-54666589D01*
X48030038Y-54666589D02*
X47982419Y-54571351D01*
D11*
X45883428Y-72751241D02*
X45883428Y-71751241D01*
X45883428Y-71751241D02*
X47383428Y-72751241D01*
X47383428Y-72751241D02*
X47383428Y-71751241D01*
X45883428Y-71322670D02*
X47383428Y-70322670D01*
X45883428Y-70322670D02*
X47383428Y-71322670D01*
X45883428Y-68822670D02*
X45883428Y-67965528D01*
X47383428Y-68394099D02*
X45883428Y-68394099D01*
X47383428Y-66822671D02*
X46597714Y-66822671D01*
X46597714Y-66822671D02*
X46454857Y-66894099D01*
X46454857Y-66894099D02*
X46383428Y-67036956D01*
X46383428Y-67036956D02*
X46383428Y-67322671D01*
X46383428Y-67322671D02*
X46454857Y-67465528D01*
X47312000Y-66822671D02*
X47383428Y-66965528D01*
X47383428Y-66965528D02*
X47383428Y-67322671D01*
X47383428Y-67322671D02*
X47312000Y-67465528D01*
X47312000Y-67465528D02*
X47169142Y-67536956D01*
X47169142Y-67536956D02*
X47026285Y-67536956D01*
X47026285Y-67536956D02*
X46883428Y-67465528D01*
X46883428Y-67465528D02*
X46812000Y-67322671D01*
X46812000Y-67322671D02*
X46812000Y-66965528D01*
X46812000Y-66965528D02*
X46740571Y-66822671D01*
X47383428Y-65894099D02*
X47312000Y-66036956D01*
X47312000Y-66036956D02*
X47169142Y-66108385D01*
X47169142Y-66108385D02*
X45883428Y-66108385D01*
X47383428Y-65322671D02*
X45883428Y-65322671D01*
X46812000Y-65179814D02*
X47383428Y-64751242D01*
X46383428Y-64751242D02*
X46954857Y-65322671D01*
X47383428Y-64108385D02*
X46383428Y-64108385D01*
X46526285Y-64108385D02*
X46454857Y-64036956D01*
X46454857Y-64036956D02*
X46383428Y-63894099D01*
X46383428Y-63894099D02*
X46383428Y-63679813D01*
X46383428Y-63679813D02*
X46454857Y-63536956D01*
X46454857Y-63536956D02*
X46597714Y-63465528D01*
X46597714Y-63465528D02*
X47383428Y-63465528D01*
X46597714Y-63465528D02*
X46454857Y-63394099D01*
X46454857Y-63394099D02*
X46383428Y-63251242D01*
X46383428Y-63251242D02*
X46383428Y-63036956D01*
X46383428Y-63036956D02*
X46454857Y-62894099D01*
X46454857Y-62894099D02*
X46597714Y-62822670D01*
X46597714Y-62822670D02*
X47383428Y-62822670D01*
X47383428Y-61465528D02*
X46597714Y-61465528D01*
X46597714Y-61465528D02*
X46454857Y-61536956D01*
X46454857Y-61536956D02*
X46383428Y-61679813D01*
X46383428Y-61679813D02*
X46383428Y-61965528D01*
X46383428Y-61965528D02*
X46454857Y-62108385D01*
X47312000Y-61465528D02*
X47383428Y-61608385D01*
X47383428Y-61608385D02*
X47383428Y-61965528D01*
X47383428Y-61965528D02*
X47312000Y-62108385D01*
X47312000Y-62108385D02*
X47169142Y-62179813D01*
X47169142Y-62179813D02*
X47026285Y-62179813D01*
X47026285Y-62179813D02*
X46883428Y-62108385D01*
X46883428Y-62108385D02*
X46812000Y-61965528D01*
X46812000Y-61965528D02*
X46812000Y-61608385D01*
X46812000Y-61608385D02*
X46740571Y-61465528D01*
X46383428Y-60751242D02*
X47383428Y-60751242D01*
X46526285Y-60751242D02*
X46454857Y-60679813D01*
X46454857Y-60679813D02*
X46383428Y-60536956D01*
X46383428Y-60536956D02*
X46383428Y-60322670D01*
X46383428Y-60322670D02*
X46454857Y-60179813D01*
X46454857Y-60179813D02*
X46597714Y-60108385D01*
X46597714Y-60108385D02*
X47383428Y-60108385D01*
D12*
X91733082Y-81260828D02*
X91733082Y-82332257D01*
X91733082Y-82332257D02*
X91661653Y-82546542D01*
X91661653Y-82546542D02*
X91518796Y-82689400D01*
X91518796Y-82689400D02*
X91304510Y-82760828D01*
X91304510Y-82760828D02*
X91161653Y-82760828D01*
X93161653Y-82760828D02*
X92447367Y-82760828D01*
X92447367Y-82760828D02*
X92447367Y-81260828D01*
X94518796Y-82617971D02*
X94447368Y-82689400D01*
X94447368Y-82689400D02*
X94233082Y-82760828D01*
X94233082Y-82760828D02*
X94090225Y-82760828D01*
X94090225Y-82760828D02*
X93875939Y-82689400D01*
X93875939Y-82689400D02*
X93733082Y-82546542D01*
X93733082Y-82546542D02*
X93661653Y-82403685D01*
X93661653Y-82403685D02*
X93590225Y-82117971D01*
X93590225Y-82117971D02*
X93590225Y-81903685D01*
X93590225Y-81903685D02*
X93661653Y-81617971D01*
X93661653Y-81617971D02*
X93733082Y-81475114D01*
X93733082Y-81475114D02*
X93875939Y-81332257D01*
X93875939Y-81332257D02*
X94090225Y-81260828D01*
X94090225Y-81260828D02*
X94233082Y-81260828D01*
X94233082Y-81260828D02*
X94447368Y-81332257D01*
X94447368Y-81332257D02*
X94518796Y-81403685D01*
X95590225Y-81260828D02*
X95590225Y-82332257D01*
X95590225Y-82332257D02*
X95518796Y-82546542D01*
X95518796Y-82546542D02*
X95375939Y-82689400D01*
X95375939Y-82689400D02*
X95161653Y-82760828D01*
X95161653Y-82760828D02*
X95018796Y-82760828D01*
X97018796Y-82760828D02*
X96304510Y-82760828D01*
X96304510Y-82760828D02*
X96304510Y-81260828D01*
X98375939Y-82617971D02*
X98304511Y-82689400D01*
X98304511Y-82689400D02*
X98090225Y-82760828D01*
X98090225Y-82760828D02*
X97947368Y-82760828D01*
X97947368Y-82760828D02*
X97733082Y-82689400D01*
X97733082Y-82689400D02*
X97590225Y-82546542D01*
X97590225Y-82546542D02*
X97518796Y-82403685D01*
X97518796Y-82403685D02*
X97447368Y-82117971D01*
X97447368Y-82117971D02*
X97447368Y-81903685D01*
X97447368Y-81903685D02*
X97518796Y-81617971D01*
X97518796Y-81617971D02*
X97590225Y-81475114D01*
X97590225Y-81475114D02*
X97733082Y-81332257D01*
X97733082Y-81332257D02*
X97947368Y-81260828D01*
X97947368Y-81260828D02*
X98090225Y-81260828D01*
X98090225Y-81260828D02*
X98304511Y-81332257D01*
X98304511Y-81332257D02*
X98375939Y-81403685D01*
X99447368Y-81260828D02*
X99447368Y-82332257D01*
X99447368Y-82332257D02*
X99375939Y-82546542D01*
X99375939Y-82546542D02*
X99233082Y-82689400D01*
X99233082Y-82689400D02*
X99018796Y-82760828D01*
X99018796Y-82760828D02*
X98875939Y-82760828D01*
X100875939Y-82760828D02*
X100161653Y-82760828D01*
X100161653Y-82760828D02*
X100161653Y-81260828D01*
X102233082Y-82617971D02*
X102161654Y-82689400D01*
X102161654Y-82689400D02*
X101947368Y-82760828D01*
X101947368Y-82760828D02*
X101804511Y-82760828D01*
X101804511Y-82760828D02*
X101590225Y-82689400D01*
X101590225Y-82689400D02*
X101447368Y-82546542D01*
X101447368Y-82546542D02*
X101375939Y-82403685D01*
X101375939Y-82403685D02*
X101304511Y-82117971D01*
X101304511Y-82117971D02*
X101304511Y-81903685D01*
X101304511Y-81903685D02*
X101375939Y-81617971D01*
X101375939Y-81617971D02*
X101447368Y-81475114D01*
X101447368Y-81475114D02*
X101590225Y-81332257D01*
X101590225Y-81332257D02*
X101804511Y-81260828D01*
X101804511Y-81260828D02*
X101947368Y-81260828D01*
X101947368Y-81260828D02*
X102161654Y-81332257D01*
X102161654Y-81332257D02*
X102233082Y-81403685D01*
X103304511Y-81260828D02*
X103304511Y-82332257D01*
X103304511Y-82332257D02*
X103233082Y-82546542D01*
X103233082Y-82546542D02*
X103090225Y-82689400D01*
X103090225Y-82689400D02*
X102875939Y-82760828D01*
X102875939Y-82760828D02*
X102733082Y-82760828D01*
X104733082Y-82760828D02*
X104018796Y-82760828D01*
X104018796Y-82760828D02*
X104018796Y-81260828D01*
X106090225Y-82617971D02*
X106018797Y-82689400D01*
X106018797Y-82689400D02*
X105804511Y-82760828D01*
X105804511Y-82760828D02*
X105661654Y-82760828D01*
X105661654Y-82760828D02*
X105447368Y-82689400D01*
X105447368Y-82689400D02*
X105304511Y-82546542D01*
X105304511Y-82546542D02*
X105233082Y-82403685D01*
X105233082Y-82403685D02*
X105161654Y-82117971D01*
X105161654Y-82117971D02*
X105161654Y-81903685D01*
X105161654Y-81903685D02*
X105233082Y-81617971D01*
X105233082Y-81617971D02*
X105304511Y-81475114D01*
X105304511Y-81475114D02*
X105447368Y-81332257D01*
X105447368Y-81332257D02*
X105661654Y-81260828D01*
X105661654Y-81260828D02*
X105804511Y-81260828D01*
X105804511Y-81260828D02*
X106018797Y-81332257D01*
X106018797Y-81332257D02*
X106090225Y-81403685D01*
D13*
X61833333Y-73404819D02*
X61500000Y-72928628D01*
X61261905Y-73404819D02*
X61261905Y-72404819D01*
X61261905Y-72404819D02*
X61642857Y-72404819D01*
X61642857Y-72404819D02*
X61738095Y-72452438D01*
X61738095Y-72452438D02*
X61785714Y-72500057D01*
X61785714Y-72500057D02*
X61833333Y-72595295D01*
X61833333Y-72595295D02*
X61833333Y-72738152D01*
X61833333Y-72738152D02*
X61785714Y-72833390D01*
X61785714Y-72833390D02*
X61738095Y-72881009D01*
X61738095Y-72881009D02*
X61642857Y-72928628D01*
X61642857Y-72928628D02*
X61261905Y-72928628D01*
X62214286Y-72500057D02*
X62261905Y-72452438D01*
X62261905Y-72452438D02*
X62357143Y-72404819D01*
X62357143Y-72404819D02*
X62595238Y-72404819D01*
X62595238Y-72404819D02*
X62690476Y-72452438D01*
X62690476Y-72452438D02*
X62738095Y-72500057D01*
X62738095Y-72500057D02*
X62785714Y-72595295D01*
X62785714Y-72595295D02*
X62785714Y-72690533D01*
X62785714Y-72690533D02*
X62738095Y-72833390D01*
X62738095Y-72833390D02*
X62166667Y-73404819D01*
X62166667Y-73404819D02*
X62785714Y-73404819D01*
X71569580Y-60866666D02*
X71617200Y-60914285D01*
X71617200Y-60914285D02*
X71664819Y-61057142D01*
X71664819Y-61057142D02*
X71664819Y-61152380D01*
X71664819Y-61152380D02*
X71617200Y-61295237D01*
X71617200Y-61295237D02*
X71521961Y-61390475D01*
X71521961Y-61390475D02*
X71426723Y-61438094D01*
X71426723Y-61438094D02*
X71236247Y-61485713D01*
X71236247Y-61485713D02*
X71093390Y-61485713D01*
X71093390Y-61485713D02*
X70902914Y-61438094D01*
X70902914Y-61438094D02*
X70807676Y-61390475D01*
X70807676Y-61390475D02*
X70712438Y-61295237D01*
X70712438Y-61295237D02*
X70664819Y-61152380D01*
X70664819Y-61152380D02*
X70664819Y-61057142D01*
X70664819Y-61057142D02*
X70712438Y-60914285D01*
X70712438Y-60914285D02*
X70760057Y-60866666D01*
X70664819Y-59961904D02*
X70664819Y-60438094D01*
X70664819Y-60438094D02*
X71141009Y-60485713D01*
X71141009Y-60485713D02*
X71093390Y-60438094D01*
X71093390Y-60438094D02*
X71045771Y-60342856D01*
X71045771Y-60342856D02*
X71045771Y-60104761D01*
X71045771Y-60104761D02*
X71093390Y-60009523D01*
X71093390Y-60009523D02*
X71141009Y-59961904D01*
X71141009Y-59961904D02*
X71236247Y-59914285D01*
X71236247Y-59914285D02*
X71474342Y-59914285D01*
X71474342Y-59914285D02*
X71569580Y-59961904D01*
X71569580Y-59961904D02*
X71617200Y-60009523D01*
X71617200Y-60009523D02*
X71664819Y-60104761D01*
X71664819Y-60104761D02*
X71664819Y-60342856D01*
X71664819Y-60342856D02*
X71617200Y-60438094D01*
X71617200Y-60438094D02*
X71569580Y-60485713D01*
X94370057Y-57435238D02*
X94322438Y-57530476D01*
X94322438Y-57530476D02*
X94227200Y-57625714D01*
X94227200Y-57625714D02*
X94084342Y-57768571D01*
X94084342Y-57768571D02*
X94036723Y-57863809D01*
X94036723Y-57863809D02*
X94036723Y-57959047D01*
X94274819Y-57911428D02*
X94227200Y-58006666D01*
X94227200Y-58006666D02*
X94131961Y-58101904D01*
X94131961Y-58101904D02*
X93941485Y-58149523D01*
X93941485Y-58149523D02*
X93608152Y-58149523D01*
X93608152Y-58149523D02*
X93417676Y-58101904D01*
X93417676Y-58101904D02*
X93322438Y-58006666D01*
X93322438Y-58006666D02*
X93274819Y-57911428D01*
X93274819Y-57911428D02*
X93274819Y-57720952D01*
X93274819Y-57720952D02*
X93322438Y-57625714D01*
X93322438Y-57625714D02*
X93417676Y-57530476D01*
X93417676Y-57530476D02*
X93608152Y-57482857D01*
X93608152Y-57482857D02*
X93941485Y-57482857D01*
X93941485Y-57482857D02*
X94131961Y-57530476D01*
X94131961Y-57530476D02*
X94227200Y-57625714D01*
X94227200Y-57625714D02*
X94274819Y-57720952D01*
X94274819Y-57720952D02*
X94274819Y-57911428D01*
X94274819Y-56530476D02*
X94274819Y-57101904D01*
X94274819Y-56816190D02*
X93274819Y-56816190D01*
X93274819Y-56816190D02*
X93417676Y-56911428D01*
X93417676Y-56911428D02*
X93512914Y-57006666D01*
X93512914Y-57006666D02*
X93560533Y-57101904D01*
X106843333Y-57789580D02*
X106795714Y-57837200D01*
X106795714Y-57837200D02*
X106652857Y-57884819D01*
X106652857Y-57884819D02*
X106557619Y-57884819D01*
X106557619Y-57884819D02*
X106414762Y-57837200D01*
X106414762Y-57837200D02*
X106319524Y-57741961D01*
X106319524Y-57741961D02*
X106271905Y-57646723D01*
X106271905Y-57646723D02*
X106224286Y-57456247D01*
X106224286Y-57456247D02*
X106224286Y-57313390D01*
X106224286Y-57313390D02*
X106271905Y-57122914D01*
X106271905Y-57122914D02*
X106319524Y-57027676D01*
X106319524Y-57027676D02*
X106414762Y-56932438D01*
X106414762Y-56932438D02*
X106557619Y-56884819D01*
X106557619Y-56884819D02*
X106652857Y-56884819D01*
X106652857Y-56884819D02*
X106795714Y-56932438D01*
X106795714Y-56932438D02*
X106843333Y-56980057D01*
X107700476Y-56884819D02*
X107510000Y-56884819D01*
X107510000Y-56884819D02*
X107414762Y-56932438D01*
X107414762Y-56932438D02*
X107367143Y-56980057D01*
X107367143Y-56980057D02*
X107271905Y-57122914D01*
X107271905Y-57122914D02*
X107224286Y-57313390D01*
X107224286Y-57313390D02*
X107224286Y-57694342D01*
X107224286Y-57694342D02*
X107271905Y-57789580D01*
X107271905Y-57789580D02*
X107319524Y-57837200D01*
X107319524Y-57837200D02*
X107414762Y-57884819D01*
X107414762Y-57884819D02*
X107605238Y-57884819D01*
X107605238Y-57884819D02*
X107700476Y-57837200D01*
X107700476Y-57837200D02*
X107748095Y-57789580D01*
X107748095Y-57789580D02*
X107795714Y-57694342D01*
X107795714Y-57694342D02*
X107795714Y-57456247D01*
X107795714Y-57456247D02*
X107748095Y-57361009D01*
X107748095Y-57361009D02*
X107700476Y-57313390D01*
X107700476Y-57313390D02*
X107605238Y-57265771D01*
X107605238Y-57265771D02*
X107414762Y-57265771D01*
X107414762Y-57265771D02*
X107319524Y-57313390D01*
X107319524Y-57313390D02*
X107271905Y-57361009D01*
X107271905Y-57361009D02*
X107224286Y-57456247D01*
X87002042Y-87239580D02*
X86954423Y-87287200D01*
X86954423Y-87287200D02*
X86811566Y-87334819D01*
X86811566Y-87334819D02*
X86716328Y-87334819D01*
X86716328Y-87334819D02*
X86573471Y-87287200D01*
X86573471Y-87287200D02*
X86478233Y-87191961D01*
X86478233Y-87191961D02*
X86430614Y-87096723D01*
X86430614Y-87096723D02*
X86382995Y-86906247D01*
X86382995Y-86906247D02*
X86382995Y-86763390D01*
X86382995Y-86763390D02*
X86430614Y-86572914D01*
X86430614Y-86572914D02*
X86478233Y-86477676D01*
X86478233Y-86477676D02*
X86573471Y-86382438D01*
X86573471Y-86382438D02*
X86716328Y-86334819D01*
X86716328Y-86334819D02*
X86811566Y-86334819D01*
X86811566Y-86334819D02*
X86954423Y-86382438D01*
X86954423Y-86382438D02*
X87002042Y-86430057D01*
X87954423Y-87334819D02*
X87382995Y-87334819D01*
X87668709Y-87334819D02*
X87668709Y-86334819D01*
X87668709Y-86334819D02*
X87573471Y-86477676D01*
X87573471Y-86477676D02*
X87478233Y-86572914D01*
X87478233Y-86572914D02*
X87382995Y-86620533D01*
X88335376Y-86430057D02*
X88382995Y-86382438D01*
X88382995Y-86382438D02*
X88478233Y-86334819D01*
X88478233Y-86334819D02*
X88716328Y-86334819D01*
X88716328Y-86334819D02*
X88811566Y-86382438D01*
X88811566Y-86382438D02*
X88859185Y-86430057D01*
X88859185Y-86430057D02*
X88906804Y-86525295D01*
X88906804Y-86525295D02*
X88906804Y-86620533D01*
X88906804Y-86620533D02*
X88859185Y-86763390D01*
X88859185Y-86763390D02*
X88287757Y-87334819D01*
X88287757Y-87334819D02*
X88906804Y-87334819D01*
X114253333Y-66364819D02*
X113920000Y-65888628D01*
X113681905Y-66364819D02*
X113681905Y-65364819D01*
X113681905Y-65364819D02*
X114062857Y-65364819D01*
X114062857Y-65364819D02*
X114158095Y-65412438D01*
X114158095Y-65412438D02*
X114205714Y-65460057D01*
X114205714Y-65460057D02*
X114253333Y-65555295D01*
X114253333Y-65555295D02*
X114253333Y-65698152D01*
X114253333Y-65698152D02*
X114205714Y-65793390D01*
X114205714Y-65793390D02*
X114158095Y-65841009D01*
X114158095Y-65841009D02*
X114062857Y-65888628D01*
X114062857Y-65888628D02*
X113681905Y-65888628D01*
X114586667Y-65364819D02*
X115253333Y-65364819D01*
X115253333Y-65364819D02*
X114824762Y-66364819D01*
X70584819Y-99816666D02*
X70108628Y-100149999D01*
X70584819Y-100388094D02*
X69584819Y-100388094D01*
X69584819Y-100388094D02*
X69584819Y-100007142D01*
X69584819Y-100007142D02*
X69632438Y-99911904D01*
X69632438Y-99911904D02*
X69680057Y-99864285D01*
X69680057Y-99864285D02*
X69775295Y-99816666D01*
X69775295Y-99816666D02*
X69918152Y-99816666D01*
X69918152Y-99816666D02*
X70013390Y-99864285D01*
X70013390Y-99864285D02*
X70061009Y-99911904D01*
X70061009Y-99911904D02*
X70108628Y-100007142D01*
X70108628Y-100007142D02*
X70108628Y-100388094D01*
X70584819Y-99340475D02*
X70584819Y-99149999D01*
X70584819Y-99149999D02*
X70537200Y-99054761D01*
X70537200Y-99054761D02*
X70489580Y-99007142D01*
X70489580Y-99007142D02*
X70346723Y-98911904D01*
X70346723Y-98911904D02*
X70156247Y-98864285D01*
X70156247Y-98864285D02*
X69775295Y-98864285D01*
X69775295Y-98864285D02*
X69680057Y-98911904D01*
X69680057Y-98911904D02*
X69632438Y-98959523D01*
X69632438Y-98959523D02*
X69584819Y-99054761D01*
X69584819Y-99054761D02*
X69584819Y-99245237D01*
X69584819Y-99245237D02*
X69632438Y-99340475D01*
X69632438Y-99340475D02*
X69680057Y-99388094D01*
X69680057Y-99388094D02*
X69775295Y-99435713D01*
X69775295Y-99435713D02*
X70013390Y-99435713D01*
X70013390Y-99435713D02*
X70108628Y-99388094D01*
X70108628Y-99388094D02*
X70156247Y-99340475D01*
X70156247Y-99340475D02*
X70203866Y-99245237D01*
X70203866Y-99245237D02*
X70203866Y-99054761D01*
X70203866Y-99054761D02*
X70156247Y-98959523D01*
X70156247Y-98959523D02*
X70108628Y-98911904D01*
X70108628Y-98911904D02*
X70013390Y-98864285D01*
X55853333Y-93864819D02*
X55520000Y-93388628D01*
X55281905Y-93864819D02*
X55281905Y-92864819D01*
X55281905Y-92864819D02*
X55662857Y-92864819D01*
X55662857Y-92864819D02*
X55758095Y-92912438D01*
X55758095Y-92912438D02*
X55805714Y-92960057D01*
X55805714Y-92960057D02*
X55853333Y-93055295D01*
X55853333Y-93055295D02*
X55853333Y-93198152D01*
X55853333Y-93198152D02*
X55805714Y-93293390D01*
X55805714Y-93293390D02*
X55758095Y-93341009D01*
X55758095Y-93341009D02*
X55662857Y-93388628D01*
X55662857Y-93388628D02*
X55281905Y-93388628D01*
X56710476Y-93198152D02*
X56710476Y-93864819D01*
X56472381Y-92817200D02*
X56234286Y-93531485D01*
X56234286Y-93531485D02*
X56853333Y-93531485D01*
X84479580Y-99586666D02*
X84527200Y-99634285D01*
X84527200Y-99634285D02*
X84574819Y-99777142D01*
X84574819Y-99777142D02*
X84574819Y-99872380D01*
X84574819Y-99872380D02*
X84527200Y-100015237D01*
X84527200Y-100015237D02*
X84431961Y-100110475D01*
X84431961Y-100110475D02*
X84336723Y-100158094D01*
X84336723Y-100158094D02*
X84146247Y-100205713D01*
X84146247Y-100205713D02*
X84003390Y-100205713D01*
X84003390Y-100205713D02*
X83812914Y-100158094D01*
X83812914Y-100158094D02*
X83717676Y-100110475D01*
X83717676Y-100110475D02*
X83622438Y-100015237D01*
X83622438Y-100015237D02*
X83574819Y-99872380D01*
X83574819Y-99872380D02*
X83574819Y-99777142D01*
X83574819Y-99777142D02*
X83622438Y-99634285D01*
X83622438Y-99634285D02*
X83670057Y-99586666D01*
X84003390Y-99015237D02*
X83955771Y-99110475D01*
X83955771Y-99110475D02*
X83908152Y-99158094D01*
X83908152Y-99158094D02*
X83812914Y-99205713D01*
X83812914Y-99205713D02*
X83765295Y-99205713D01*
X83765295Y-99205713D02*
X83670057Y-99158094D01*
X83670057Y-99158094D02*
X83622438Y-99110475D01*
X83622438Y-99110475D02*
X83574819Y-99015237D01*
X83574819Y-99015237D02*
X83574819Y-98824761D01*
X83574819Y-98824761D02*
X83622438Y-98729523D01*
X83622438Y-98729523D02*
X83670057Y-98681904D01*
X83670057Y-98681904D02*
X83765295Y-98634285D01*
X83765295Y-98634285D02*
X83812914Y-98634285D01*
X83812914Y-98634285D02*
X83908152Y-98681904D01*
X83908152Y-98681904D02*
X83955771Y-98729523D01*
X83955771Y-98729523D02*
X84003390Y-98824761D01*
X84003390Y-98824761D02*
X84003390Y-99015237D01*
X84003390Y-99015237D02*
X84051009Y-99110475D01*
X84051009Y-99110475D02*
X84098628Y-99158094D01*
X84098628Y-99158094D02*
X84193866Y-99205713D01*
X84193866Y-99205713D02*
X84384342Y-99205713D01*
X84384342Y-99205713D02*
X84479580Y-99158094D01*
X84479580Y-99158094D02*
X84527200Y-99110475D01*
X84527200Y-99110475D02*
X84574819Y-99015237D01*
X84574819Y-99015237D02*
X84574819Y-98824761D01*
X84574819Y-98824761D02*
X84527200Y-98729523D01*
X84527200Y-98729523D02*
X84479580Y-98681904D01*
X84479580Y-98681904D02*
X84384342Y-98634285D01*
X84384342Y-98634285D02*
X84193866Y-98634285D01*
X84193866Y-98634285D02*
X84098628Y-98681904D01*
X84098628Y-98681904D02*
X84051009Y-98729523D01*
X84051009Y-98729523D02*
X84003390Y-98824761D01*
X112304762Y-81354819D02*
X112638095Y-82354819D01*
X112638095Y-82354819D02*
X112971428Y-81354819D01*
X113447619Y-82354819D02*
X113352381Y-82307200D01*
X113352381Y-82307200D02*
X113304762Y-82259580D01*
X113304762Y-82259580D02*
X113257143Y-82164342D01*
X113257143Y-82164342D02*
X113257143Y-81878628D01*
X113257143Y-81878628D02*
X113304762Y-81783390D01*
X113304762Y-81783390D02*
X113352381Y-81735771D01*
X113352381Y-81735771D02*
X113447619Y-81688152D01*
X113447619Y-81688152D02*
X113590476Y-81688152D01*
X113590476Y-81688152D02*
X113685714Y-81735771D01*
X113685714Y-81735771D02*
X113733333Y-81783390D01*
X113733333Y-81783390D02*
X113780952Y-81878628D01*
X113780952Y-81878628D02*
X113780952Y-82164342D01*
X113780952Y-82164342D02*
X113733333Y-82259580D01*
X113733333Y-82259580D02*
X113685714Y-82307200D01*
X113685714Y-82307200D02*
X113590476Y-82354819D01*
X113590476Y-82354819D02*
X113447619Y-82354819D01*
X114352381Y-82354819D02*
X114257143Y-82307200D01*
X114257143Y-82307200D02*
X114209524Y-82211961D01*
X114209524Y-82211961D02*
X114209524Y-81354819D01*
X115161905Y-81688152D02*
X115161905Y-82354819D01*
X114733334Y-81688152D02*
X114733334Y-82211961D01*
X114733334Y-82211961D02*
X114780953Y-82307200D01*
X114780953Y-82307200D02*
X114876191Y-82354819D01*
X114876191Y-82354819D02*
X115019048Y-82354819D01*
X115019048Y-82354819D02*
X115114286Y-82307200D01*
X115114286Y-82307200D02*
X115161905Y-82259580D01*
X115638096Y-82354819D02*
X115638096Y-81688152D01*
X115638096Y-81783390D02*
X115685715Y-81735771D01*
X115685715Y-81735771D02*
X115780953Y-81688152D01*
X115780953Y-81688152D02*
X115923810Y-81688152D01*
X115923810Y-81688152D02*
X116019048Y-81735771D01*
X116019048Y-81735771D02*
X116066667Y-81831009D01*
X116066667Y-81831009D02*
X116066667Y-82354819D01*
X116066667Y-81831009D02*
X116114286Y-81735771D01*
X116114286Y-81735771D02*
X116209524Y-81688152D01*
X116209524Y-81688152D02*
X116352381Y-81688152D01*
X116352381Y-81688152D02*
X116447620Y-81735771D01*
X116447620Y-81735771D02*
X116495239Y-81831009D01*
X116495239Y-81831009D02*
X116495239Y-82354819D01*
X117352381Y-82307200D02*
X117257143Y-82354819D01*
X117257143Y-82354819D02*
X117066667Y-82354819D01*
X117066667Y-82354819D02*
X116971429Y-82307200D01*
X116971429Y-82307200D02*
X116923810Y-82211961D01*
X116923810Y-82211961D02*
X116923810Y-81831009D01*
X116923810Y-81831009D02*
X116971429Y-81735771D01*
X116971429Y-81735771D02*
X117066667Y-81688152D01*
X117066667Y-81688152D02*
X117257143Y-81688152D01*
X117257143Y-81688152D02*
X117352381Y-81735771D01*
X117352381Y-81735771D02*
X117400000Y-81831009D01*
X117400000Y-81831009D02*
X117400000Y-81926247D01*
X117400000Y-81926247D02*
X116923810Y-82021485D01*
X51927143Y-82314819D02*
X52593809Y-82314819D01*
X52593809Y-82314819D02*
X52165238Y-83314819D01*
X53403333Y-82648152D02*
X53403333Y-83314819D01*
X53165238Y-82267200D02*
X52927143Y-82981485D01*
X52927143Y-82981485D02*
X53546190Y-82981485D01*
X54403333Y-83314819D02*
X53927143Y-83314819D01*
X53927143Y-83314819D02*
X53927143Y-82314819D01*
X54689048Y-83267200D02*
X54831905Y-83314819D01*
X54831905Y-83314819D02*
X55070000Y-83314819D01*
X55070000Y-83314819D02*
X55165238Y-83267200D01*
X55165238Y-83267200D02*
X55212857Y-83219580D01*
X55212857Y-83219580D02*
X55260476Y-83124342D01*
X55260476Y-83124342D02*
X55260476Y-83029104D01*
X55260476Y-83029104D02*
X55212857Y-82933866D01*
X55212857Y-82933866D02*
X55165238Y-82886247D01*
X55165238Y-82886247D02*
X55070000Y-82838628D01*
X55070000Y-82838628D02*
X54879524Y-82791009D01*
X54879524Y-82791009D02*
X54784286Y-82743390D01*
X54784286Y-82743390D02*
X54736667Y-82695771D01*
X54736667Y-82695771D02*
X54689048Y-82600533D01*
X54689048Y-82600533D02*
X54689048Y-82505295D01*
X54689048Y-82505295D02*
X54736667Y-82410057D01*
X54736667Y-82410057D02*
X54784286Y-82362438D01*
X54784286Y-82362438D02*
X54879524Y-82314819D01*
X54879524Y-82314819D02*
X55117619Y-82314819D01*
X55117619Y-82314819D02*
X55260476Y-82362438D01*
X55879524Y-82314819D02*
X55974762Y-82314819D01*
X55974762Y-82314819D02*
X56070000Y-82362438D01*
X56070000Y-82362438D02*
X56117619Y-82410057D01*
X56117619Y-82410057D02*
X56165238Y-82505295D01*
X56165238Y-82505295D02*
X56212857Y-82695771D01*
X56212857Y-82695771D02*
X56212857Y-82933866D01*
X56212857Y-82933866D02*
X56165238Y-83124342D01*
X56165238Y-83124342D02*
X56117619Y-83219580D01*
X56117619Y-83219580D02*
X56070000Y-83267200D01*
X56070000Y-83267200D02*
X55974762Y-83314819D01*
X55974762Y-83314819D02*
X55879524Y-83314819D01*
X55879524Y-83314819D02*
X55784286Y-83267200D01*
X55784286Y-83267200D02*
X55736667Y-83219580D01*
X55736667Y-83219580D02*
X55689048Y-83124342D01*
X55689048Y-83124342D02*
X55641429Y-82933866D01*
X55641429Y-82933866D02*
X55641429Y-82695771D01*
X55641429Y-82695771D02*
X55689048Y-82505295D01*
X55689048Y-82505295D02*
X55736667Y-82410057D01*
X55736667Y-82410057D02*
X55784286Y-82362438D01*
X55784286Y-82362438D02*
X55879524Y-82314819D01*
X56831905Y-82314819D02*
X56927143Y-82314819D01*
X56927143Y-82314819D02*
X57022381Y-82362438D01*
X57022381Y-82362438D02*
X57070000Y-82410057D01*
X57070000Y-82410057D02*
X57117619Y-82505295D01*
X57117619Y-82505295D02*
X57165238Y-82695771D01*
X57165238Y-82695771D02*
X57165238Y-82933866D01*
X57165238Y-82933866D02*
X57117619Y-83124342D01*
X57117619Y-83124342D02*
X57070000Y-83219580D01*
X57070000Y-83219580D02*
X57022381Y-83267200D01*
X57022381Y-83267200D02*
X56927143Y-83314819D01*
X56927143Y-83314819D02*
X56831905Y-83314819D01*
X56831905Y-83314819D02*
X56736667Y-83267200D01*
X56736667Y-83267200D02*
X56689048Y-83219580D01*
X56689048Y-83219580D02*
X56641429Y-83124342D01*
X56641429Y-83124342D02*
X56593810Y-82933866D01*
X56593810Y-82933866D02*
X56593810Y-82695771D01*
X56593810Y-82695771D02*
X56641429Y-82505295D01*
X56641429Y-82505295D02*
X56689048Y-82410057D01*
X56689048Y-82410057D02*
X56736667Y-82362438D01*
X56736667Y-82362438D02*
X56831905Y-82314819D01*
X61943333Y-68224819D02*
X61610000Y-67748628D01*
X61371905Y-68224819D02*
X61371905Y-67224819D01*
X61371905Y-67224819D02*
X61752857Y-67224819D01*
X61752857Y-67224819D02*
X61848095Y-67272438D01*
X61848095Y-67272438D02*
X61895714Y-67320057D01*
X61895714Y-67320057D02*
X61943333Y-67415295D01*
X61943333Y-67415295D02*
X61943333Y-67558152D01*
X61943333Y-67558152D02*
X61895714Y-67653390D01*
X61895714Y-67653390D02*
X61848095Y-67701009D01*
X61848095Y-67701009D02*
X61752857Y-67748628D01*
X61752857Y-67748628D02*
X61371905Y-67748628D01*
X62276667Y-67224819D02*
X62895714Y-67224819D01*
X62895714Y-67224819D02*
X62562381Y-67605771D01*
X62562381Y-67605771D02*
X62705238Y-67605771D01*
X62705238Y-67605771D02*
X62800476Y-67653390D01*
X62800476Y-67653390D02*
X62848095Y-67701009D01*
X62848095Y-67701009D02*
X62895714Y-67796247D01*
X62895714Y-67796247D02*
X62895714Y-68034342D01*
X62895714Y-68034342D02*
X62848095Y-68129580D01*
X62848095Y-68129580D02*
X62800476Y-68177200D01*
X62800476Y-68177200D02*
X62705238Y-68224819D01*
X62705238Y-68224819D02*
X62419524Y-68224819D01*
X62419524Y-68224819D02*
X62324286Y-68177200D01*
X62324286Y-68177200D02*
X62276667Y-68129580D01*
X100663333Y-66464819D02*
X100330000Y-65988628D01*
X100091905Y-66464819D02*
X100091905Y-65464819D01*
X100091905Y-65464819D02*
X100472857Y-65464819D01*
X100472857Y-65464819D02*
X100568095Y-65512438D01*
X100568095Y-65512438D02*
X100615714Y-65560057D01*
X100615714Y-65560057D02*
X100663333Y-65655295D01*
X100663333Y-65655295D02*
X100663333Y-65798152D01*
X100663333Y-65798152D02*
X100615714Y-65893390D01*
X100615714Y-65893390D02*
X100568095Y-65941009D01*
X100568095Y-65941009D02*
X100472857Y-65988628D01*
X100472857Y-65988628D02*
X100091905Y-65988628D01*
X101520476Y-65464819D02*
X101330000Y-65464819D01*
X101330000Y-65464819D02*
X101234762Y-65512438D01*
X101234762Y-65512438D02*
X101187143Y-65560057D01*
X101187143Y-65560057D02*
X101091905Y-65702914D01*
X101091905Y-65702914D02*
X101044286Y-65893390D01*
X101044286Y-65893390D02*
X101044286Y-66274342D01*
X101044286Y-66274342D02*
X101091905Y-66369580D01*
X101091905Y-66369580D02*
X101139524Y-66417200D01*
X101139524Y-66417200D02*
X101234762Y-66464819D01*
X101234762Y-66464819D02*
X101425238Y-66464819D01*
X101425238Y-66464819D02*
X101520476Y-66417200D01*
X101520476Y-66417200D02*
X101568095Y-66369580D01*
X101568095Y-66369580D02*
X101615714Y-66274342D01*
X101615714Y-66274342D02*
X101615714Y-66036247D01*
X101615714Y-66036247D02*
X101568095Y-65941009D01*
X101568095Y-65941009D02*
X101520476Y-65893390D01*
X101520476Y-65893390D02*
X101425238Y-65845771D01*
X101425238Y-65845771D02*
X101234762Y-65845771D01*
X101234762Y-65845771D02*
X101139524Y-65893390D01*
X101139524Y-65893390D02*
X101091905Y-65941009D01*
X101091905Y-65941009D02*
X101044286Y-66036247D01*
X50739580Y-72716666D02*
X50787200Y-72764285D01*
X50787200Y-72764285D02*
X50834819Y-72907142D01*
X50834819Y-72907142D02*
X50834819Y-73002380D01*
X50834819Y-73002380D02*
X50787200Y-73145237D01*
X50787200Y-73145237D02*
X50691961Y-73240475D01*
X50691961Y-73240475D02*
X50596723Y-73288094D01*
X50596723Y-73288094D02*
X50406247Y-73335713D01*
X50406247Y-73335713D02*
X50263390Y-73335713D01*
X50263390Y-73335713D02*
X50072914Y-73288094D01*
X50072914Y-73288094D02*
X49977676Y-73240475D01*
X49977676Y-73240475D02*
X49882438Y-73145237D01*
X49882438Y-73145237D02*
X49834819Y-73002380D01*
X49834819Y-73002380D02*
X49834819Y-72907142D01*
X49834819Y-72907142D02*
X49882438Y-72764285D01*
X49882438Y-72764285D02*
X49930057Y-72716666D01*
X49930057Y-72335713D02*
X49882438Y-72288094D01*
X49882438Y-72288094D02*
X49834819Y-72192856D01*
X49834819Y-72192856D02*
X49834819Y-71954761D01*
X49834819Y-71954761D02*
X49882438Y-71859523D01*
X49882438Y-71859523D02*
X49930057Y-71811904D01*
X49930057Y-71811904D02*
X50025295Y-71764285D01*
X50025295Y-71764285D02*
X50120533Y-71764285D01*
X50120533Y-71764285D02*
X50263390Y-71811904D01*
X50263390Y-71811904D02*
X50834819Y-72383332D01*
X50834819Y-72383332D02*
X50834819Y-71764285D01*
X51537143Y-98579819D02*
X52203809Y-98579819D01*
X52203809Y-98579819D02*
X51775238Y-99579819D01*
X53013333Y-98913152D02*
X53013333Y-99579819D01*
X52775238Y-98532200D02*
X52537143Y-99246485D01*
X52537143Y-99246485D02*
X53156190Y-99246485D01*
X54013333Y-99579819D02*
X53537143Y-99579819D01*
X53537143Y-99579819D02*
X53537143Y-98579819D01*
X54299048Y-99532200D02*
X54441905Y-99579819D01*
X54441905Y-99579819D02*
X54680000Y-99579819D01*
X54680000Y-99579819D02*
X54775238Y-99532200D01*
X54775238Y-99532200D02*
X54822857Y-99484580D01*
X54822857Y-99484580D02*
X54870476Y-99389342D01*
X54870476Y-99389342D02*
X54870476Y-99294104D01*
X54870476Y-99294104D02*
X54822857Y-99198866D01*
X54822857Y-99198866D02*
X54775238Y-99151247D01*
X54775238Y-99151247D02*
X54680000Y-99103628D01*
X54680000Y-99103628D02*
X54489524Y-99056009D01*
X54489524Y-99056009D02*
X54394286Y-99008390D01*
X54394286Y-99008390D02*
X54346667Y-98960771D01*
X54346667Y-98960771D02*
X54299048Y-98865533D01*
X54299048Y-98865533D02*
X54299048Y-98770295D01*
X54299048Y-98770295D02*
X54346667Y-98675057D01*
X54346667Y-98675057D02*
X54394286Y-98627438D01*
X54394286Y-98627438D02*
X54489524Y-98579819D01*
X54489524Y-98579819D02*
X54727619Y-98579819D01*
X54727619Y-98579819D02*
X54870476Y-98627438D01*
X55203810Y-98579819D02*
X55822857Y-98579819D01*
X55822857Y-98579819D02*
X55489524Y-98960771D01*
X55489524Y-98960771D02*
X55632381Y-98960771D01*
X55632381Y-98960771D02*
X55727619Y-99008390D01*
X55727619Y-99008390D02*
X55775238Y-99056009D01*
X55775238Y-99056009D02*
X55822857Y-99151247D01*
X55822857Y-99151247D02*
X55822857Y-99389342D01*
X55822857Y-99389342D02*
X55775238Y-99484580D01*
X55775238Y-99484580D02*
X55727619Y-99532200D01*
X55727619Y-99532200D02*
X55632381Y-99579819D01*
X55632381Y-99579819D02*
X55346667Y-99579819D01*
X55346667Y-99579819D02*
X55251429Y-99532200D01*
X55251429Y-99532200D02*
X55203810Y-99484580D01*
X56203810Y-98675057D02*
X56251429Y-98627438D01*
X56251429Y-98627438D02*
X56346667Y-98579819D01*
X56346667Y-98579819D02*
X56584762Y-98579819D01*
X56584762Y-98579819D02*
X56680000Y-98627438D01*
X56680000Y-98627438D02*
X56727619Y-98675057D01*
X56727619Y-98675057D02*
X56775238Y-98770295D01*
X56775238Y-98770295D02*
X56775238Y-98865533D01*
X56775238Y-98865533D02*
X56727619Y-99008390D01*
X56727619Y-99008390D02*
X56156191Y-99579819D01*
X56156191Y-99579819D02*
X56775238Y-99579819D01*
X86603333Y-61624819D02*
X86270000Y-61148628D01*
X86031905Y-61624819D02*
X86031905Y-60624819D01*
X86031905Y-60624819D02*
X86412857Y-60624819D01*
X86412857Y-60624819D02*
X86508095Y-60672438D01*
X86508095Y-60672438D02*
X86555714Y-60720057D01*
X86555714Y-60720057D02*
X86603333Y-60815295D01*
X86603333Y-60815295D02*
X86603333Y-60958152D01*
X86603333Y-60958152D02*
X86555714Y-61053390D01*
X86555714Y-61053390D02*
X86508095Y-61101009D01*
X86508095Y-61101009D02*
X86412857Y-61148628D01*
X86412857Y-61148628D02*
X86031905Y-61148628D01*
X87508095Y-60624819D02*
X87031905Y-60624819D01*
X87031905Y-60624819D02*
X86984286Y-61101009D01*
X86984286Y-61101009D02*
X87031905Y-61053390D01*
X87031905Y-61053390D02*
X87127143Y-61005771D01*
X87127143Y-61005771D02*
X87365238Y-61005771D01*
X87365238Y-61005771D02*
X87460476Y-61053390D01*
X87460476Y-61053390D02*
X87508095Y-61101009D01*
X87508095Y-61101009D02*
X87555714Y-61196247D01*
X87555714Y-61196247D02*
X87555714Y-61434342D01*
X87555714Y-61434342D02*
X87508095Y-61529580D01*
X87508095Y-61529580D02*
X87460476Y-61577200D01*
X87460476Y-61577200D02*
X87365238Y-61624819D01*
X87365238Y-61624819D02*
X87127143Y-61624819D01*
X87127143Y-61624819D02*
X87031905Y-61577200D01*
X87031905Y-61577200D02*
X86984286Y-61529580D01*
X103047142Y-91429580D02*
X102999523Y-91477200D01*
X102999523Y-91477200D02*
X102856666Y-91524819D01*
X102856666Y-91524819D02*
X102761428Y-91524819D01*
X102761428Y-91524819D02*
X102618571Y-91477200D01*
X102618571Y-91477200D02*
X102523333Y-91381961D01*
X102523333Y-91381961D02*
X102475714Y-91286723D01*
X102475714Y-91286723D02*
X102428095Y-91096247D01*
X102428095Y-91096247D02*
X102428095Y-90953390D01*
X102428095Y-90953390D02*
X102475714Y-90762914D01*
X102475714Y-90762914D02*
X102523333Y-90667676D01*
X102523333Y-90667676D02*
X102618571Y-90572438D01*
X102618571Y-90572438D02*
X102761428Y-90524819D01*
X102761428Y-90524819D02*
X102856666Y-90524819D01*
X102856666Y-90524819D02*
X102999523Y-90572438D01*
X102999523Y-90572438D02*
X103047142Y-90620057D01*
X103999523Y-91524819D02*
X103428095Y-91524819D01*
X103713809Y-91524819D02*
X103713809Y-90524819D01*
X103713809Y-90524819D02*
X103618571Y-90667676D01*
X103618571Y-90667676D02*
X103523333Y-90762914D01*
X103523333Y-90762914D02*
X103428095Y-90810533D01*
X104618571Y-90524819D02*
X104713809Y-90524819D01*
X104713809Y-90524819D02*
X104809047Y-90572438D01*
X104809047Y-90572438D02*
X104856666Y-90620057D01*
X104856666Y-90620057D02*
X104904285Y-90715295D01*
X104904285Y-90715295D02*
X104951904Y-90905771D01*
X104951904Y-90905771D02*
X104951904Y-91143866D01*
X104951904Y-91143866D02*
X104904285Y-91334342D01*
X104904285Y-91334342D02*
X104856666Y-91429580D01*
X104856666Y-91429580D02*
X104809047Y-91477200D01*
X104809047Y-91477200D02*
X104713809Y-91524819D01*
X104713809Y-91524819D02*
X104618571Y-91524819D01*
X104618571Y-91524819D02*
X104523333Y-91477200D01*
X104523333Y-91477200D02*
X104475714Y-91429580D01*
X104475714Y-91429580D02*
X104428095Y-91334342D01*
X104428095Y-91334342D02*
X104380476Y-91143866D01*
X104380476Y-91143866D02*
X104380476Y-90905771D01*
X104380476Y-90905771D02*
X104428095Y-90715295D01*
X104428095Y-90715295D02*
X104475714Y-90620057D01*
X104475714Y-90620057D02*
X104523333Y-90572438D01*
X104523333Y-90572438D02*
X104618571Y-90524819D01*
X103373333Y-100559580D02*
X103325714Y-100607200D01*
X103325714Y-100607200D02*
X103182857Y-100654819D01*
X103182857Y-100654819D02*
X103087619Y-100654819D01*
X103087619Y-100654819D02*
X102944762Y-100607200D01*
X102944762Y-100607200D02*
X102849524Y-100511961D01*
X102849524Y-100511961D02*
X102801905Y-100416723D01*
X102801905Y-100416723D02*
X102754286Y-100226247D01*
X102754286Y-100226247D02*
X102754286Y-100083390D01*
X102754286Y-100083390D02*
X102801905Y-99892914D01*
X102801905Y-99892914D02*
X102849524Y-99797676D01*
X102849524Y-99797676D02*
X102944762Y-99702438D01*
X102944762Y-99702438D02*
X103087619Y-99654819D01*
X103087619Y-99654819D02*
X103182857Y-99654819D01*
X103182857Y-99654819D02*
X103325714Y-99702438D01*
X103325714Y-99702438D02*
X103373333Y-99750057D01*
X103849524Y-100654819D02*
X104040000Y-100654819D01*
X104040000Y-100654819D02*
X104135238Y-100607200D01*
X104135238Y-100607200D02*
X104182857Y-100559580D01*
X104182857Y-100559580D02*
X104278095Y-100416723D01*
X104278095Y-100416723D02*
X104325714Y-100226247D01*
X104325714Y-100226247D02*
X104325714Y-99845295D01*
X104325714Y-99845295D02*
X104278095Y-99750057D01*
X104278095Y-99750057D02*
X104230476Y-99702438D01*
X104230476Y-99702438D02*
X104135238Y-99654819D01*
X104135238Y-99654819D02*
X103944762Y-99654819D01*
X103944762Y-99654819D02*
X103849524Y-99702438D01*
X103849524Y-99702438D02*
X103801905Y-99750057D01*
X103801905Y-99750057D02*
X103754286Y-99845295D01*
X103754286Y-99845295D02*
X103754286Y-100083390D01*
X103754286Y-100083390D02*
X103801905Y-100178628D01*
X103801905Y-100178628D02*
X103849524Y-100226247D01*
X103849524Y-100226247D02*
X103944762Y-100273866D01*
X103944762Y-100273866D02*
X104135238Y-100273866D01*
X104135238Y-100273866D02*
X104230476Y-100226247D01*
X104230476Y-100226247D02*
X104278095Y-100178628D01*
X104278095Y-100178628D02*
X104325714Y-100083390D01*
D10*
X103685340Y-110286115D02*
X103685340Y-109524211D01*
X104066293Y-109905163D02*
X103304388Y-109905163D01*
X104066293Y-108524211D02*
X104066293Y-109095639D01*
X104066293Y-108809925D02*
X103066293Y-108809925D01*
X103066293Y-108809925D02*
X103209150Y-108905163D01*
X103209150Y-108905163D02*
X103304388Y-109000401D01*
X103304388Y-109000401D02*
X103352007Y-109095639D01*
X103161531Y-108143258D02*
X103113912Y-108095639D01*
X103113912Y-108095639D02*
X103066293Y-108000401D01*
X103066293Y-108000401D02*
X103066293Y-107762306D01*
X103066293Y-107762306D02*
X103113912Y-107667068D01*
X103113912Y-107667068D02*
X103161531Y-107619449D01*
X103161531Y-107619449D02*
X103256769Y-107571830D01*
X103256769Y-107571830D02*
X103352007Y-107571830D01*
X103352007Y-107571830D02*
X103494864Y-107619449D01*
X103494864Y-107619449D02*
X104066293Y-108190877D01*
X104066293Y-108190877D02*
X104066293Y-107571830D01*
X103066293Y-107286115D02*
X104066293Y-106952782D01*
X104066293Y-106952782D02*
X103066293Y-106619449D01*
X73377419Y-110386115D02*
X72377419Y-110386115D01*
X72377419Y-110386115D02*
X72377419Y-110148020D01*
X72377419Y-110148020D02*
X72425038Y-110005163D01*
X72425038Y-110005163D02*
X72520276Y-109909925D01*
X72520276Y-109909925D02*
X72615514Y-109862306D01*
X72615514Y-109862306D02*
X72805990Y-109814687D01*
X72805990Y-109814687D02*
X72948847Y-109814687D01*
X72948847Y-109814687D02*
X73139323Y-109862306D01*
X73139323Y-109862306D02*
X73234561Y-109909925D01*
X73234561Y-109909925D02*
X73329800Y-110005163D01*
X73329800Y-110005163D02*
X73377419Y-110148020D01*
X73377419Y-110148020D02*
X73377419Y-110386115D01*
X72377419Y-108909925D02*
X72377419Y-109386115D01*
X72377419Y-109386115D02*
X72853609Y-109433734D01*
X72853609Y-109433734D02*
X72805990Y-109386115D01*
X72805990Y-109386115D02*
X72758371Y-109290877D01*
X72758371Y-109290877D02*
X72758371Y-109052782D01*
X72758371Y-109052782D02*
X72805990Y-108957544D01*
X72805990Y-108957544D02*
X72853609Y-108909925D01*
X72853609Y-108909925D02*
X72948847Y-108862306D01*
X72948847Y-108862306D02*
X73186942Y-108862306D01*
X73186942Y-108862306D02*
X73282180Y-108909925D01*
X73282180Y-108909925D02*
X73329800Y-108957544D01*
X73329800Y-108957544D02*
X73377419Y-109052782D01*
X73377419Y-109052782D02*
X73377419Y-109290877D01*
X73377419Y-109290877D02*
X73329800Y-109386115D01*
X73329800Y-109386115D02*
X73282180Y-109433734D01*
X90986977Y-110286115D02*
X89986977Y-110286115D01*
X89986977Y-109619449D02*
X89986977Y-109428973D01*
X89986977Y-109428973D02*
X90034596Y-109333735D01*
X90034596Y-109333735D02*
X90129834Y-109238497D01*
X90129834Y-109238497D02*
X90320310Y-109190878D01*
X90320310Y-109190878D02*
X90653643Y-109190878D01*
X90653643Y-109190878D02*
X90844119Y-109238497D01*
X90844119Y-109238497D02*
X90939358Y-109333735D01*
X90939358Y-109333735D02*
X90986977Y-109428973D01*
X90986977Y-109428973D02*
X90986977Y-109619449D01*
X90986977Y-109619449D02*
X90939358Y-109714687D01*
X90939358Y-109714687D02*
X90844119Y-109809925D01*
X90844119Y-109809925D02*
X90653643Y-109857544D01*
X90653643Y-109857544D02*
X90320310Y-109857544D01*
X90320310Y-109857544D02*
X90129834Y-109809925D01*
X90129834Y-109809925D02*
X90034596Y-109714687D01*
X90034596Y-109714687D02*
X89986977Y-109619449D01*
X90986977Y-108190878D02*
X90510786Y-108524211D01*
X90986977Y-108762306D02*
X89986977Y-108762306D01*
X89986977Y-108762306D02*
X89986977Y-108381354D01*
X89986977Y-108381354D02*
X90034596Y-108286116D01*
X90034596Y-108286116D02*
X90082215Y-108238497D01*
X90082215Y-108238497D02*
X90177453Y-108190878D01*
X90177453Y-108190878D02*
X90320310Y-108190878D01*
X90320310Y-108190878D02*
X90415548Y-108238497D01*
X90415548Y-108238497D02*
X90463167Y-108286116D01*
X90463167Y-108286116D02*
X90510786Y-108381354D01*
X90510786Y-108381354D02*
X90510786Y-108762306D01*
X91082215Y-107095640D02*
X91034596Y-107190878D01*
X91034596Y-107190878D02*
X90939358Y-107286116D01*
X90939358Y-107286116D02*
X90796500Y-107428973D01*
X90796500Y-107428973D02*
X90748881Y-107524211D01*
X90748881Y-107524211D02*
X90748881Y-107619449D01*
X90986977Y-107571830D02*
X90939358Y-107667068D01*
X90939358Y-107667068D02*
X90844119Y-107762306D01*
X90844119Y-107762306D02*
X90653643Y-107809925D01*
X90653643Y-107809925D02*
X90320310Y-107809925D01*
X90320310Y-107809925D02*
X90129834Y-107762306D01*
X90129834Y-107762306D02*
X90034596Y-107667068D01*
X90034596Y-107667068D02*
X89986977Y-107571830D01*
X89986977Y-107571830D02*
X89986977Y-107381354D01*
X89986977Y-107381354D02*
X90034596Y-107286116D01*
X90034596Y-107286116D02*
X90129834Y-107190878D01*
X90129834Y-107190878D02*
X90320310Y-107143259D01*
X90320310Y-107143259D02*
X90653643Y-107143259D01*
X90653643Y-107143259D02*
X90844119Y-107190878D01*
X90844119Y-107190878D02*
X90939358Y-107286116D01*
X90939358Y-107286116D02*
X90986977Y-107381354D01*
X90986977Y-107381354D02*
X90986977Y-107571830D01*
X89709358Y-110424211D02*
X89709358Y-107052783D01*
X75907419Y-110386115D02*
X74907419Y-110386115D01*
X74907419Y-110386115D02*
X74907419Y-110148020D01*
X74907419Y-110148020D02*
X74955038Y-110005163D01*
X74955038Y-110005163D02*
X75050276Y-109909925D01*
X75050276Y-109909925D02*
X75145514Y-109862306D01*
X75145514Y-109862306D02*
X75335990Y-109814687D01*
X75335990Y-109814687D02*
X75478847Y-109814687D01*
X75478847Y-109814687D02*
X75669323Y-109862306D01*
X75669323Y-109862306D02*
X75764561Y-109909925D01*
X75764561Y-109909925D02*
X75859800Y-110005163D01*
X75859800Y-110005163D02*
X75907419Y-110148020D01*
X75907419Y-110148020D02*
X75907419Y-110386115D01*
X74907419Y-109481353D02*
X74907419Y-108862306D01*
X74907419Y-108862306D02*
X75288371Y-109195639D01*
X75288371Y-109195639D02*
X75288371Y-109052782D01*
X75288371Y-109052782D02*
X75335990Y-108957544D01*
X75335990Y-108957544D02*
X75383609Y-108909925D01*
X75383609Y-108909925D02*
X75478847Y-108862306D01*
X75478847Y-108862306D02*
X75716942Y-108862306D01*
X75716942Y-108862306D02*
X75812180Y-108909925D01*
X75812180Y-108909925D02*
X75859800Y-108957544D01*
X75859800Y-108957544D02*
X75907419Y-109052782D01*
X75907419Y-109052782D02*
X75907419Y-109338496D01*
X75907419Y-109338496D02*
X75859800Y-109433734D01*
X75859800Y-109433734D02*
X75812180Y-109481353D01*
X111783883Y-109714687D02*
X111307692Y-110048020D01*
X111783883Y-110286115D02*
X110783883Y-110286115D01*
X110783883Y-110286115D02*
X110783883Y-109905163D01*
X110783883Y-109905163D02*
X110831502Y-109809925D01*
X110831502Y-109809925D02*
X110879121Y-109762306D01*
X110879121Y-109762306D02*
X110974359Y-109714687D01*
X110974359Y-109714687D02*
X111117216Y-109714687D01*
X111117216Y-109714687D02*
X111212454Y-109762306D01*
X111212454Y-109762306D02*
X111260073Y-109809925D01*
X111260073Y-109809925D02*
X111307692Y-109905163D01*
X111307692Y-109905163D02*
X111307692Y-110286115D01*
X111260073Y-108952782D02*
X111260073Y-109286115D01*
X111783883Y-109286115D02*
X110783883Y-109286115D01*
X110783883Y-109286115D02*
X110783883Y-108809925D01*
X111736264Y-108476591D02*
X111783883Y-108333734D01*
X111783883Y-108333734D02*
X111783883Y-108095639D01*
X111783883Y-108095639D02*
X111736264Y-108000401D01*
X111736264Y-108000401D02*
X111688644Y-107952782D01*
X111688644Y-107952782D02*
X111593406Y-107905163D01*
X111593406Y-107905163D02*
X111498168Y-107905163D01*
X111498168Y-107905163D02*
X111402930Y-107952782D01*
X111402930Y-107952782D02*
X111355311Y-108000401D01*
X111355311Y-108000401D02*
X111307692Y-108095639D01*
X111307692Y-108095639D02*
X111260073Y-108286115D01*
X111260073Y-108286115D02*
X111212454Y-108381353D01*
X111212454Y-108381353D02*
X111164835Y-108428972D01*
X111164835Y-108428972D02*
X111069597Y-108476591D01*
X111069597Y-108476591D02*
X110974359Y-108476591D01*
X110974359Y-108476591D02*
X110879121Y-108428972D01*
X110879121Y-108428972D02*
X110831502Y-108381353D01*
X110831502Y-108381353D02*
X110783883Y-108286115D01*
X110783883Y-108286115D02*
X110783883Y-108048020D01*
X110783883Y-108048020D02*
X110831502Y-107905163D01*
X111783883Y-107476591D02*
X110783883Y-107476591D01*
X111260073Y-107476591D02*
X111260073Y-106905163D01*
X111783883Y-106905163D02*
X110783883Y-106905163D01*
X110506264Y-110424211D02*
X110506264Y-106767068D01*
X63267419Y-110316115D02*
X62267419Y-110316115D01*
X62267419Y-110316115D02*
X62267419Y-110078020D01*
X62267419Y-110078020D02*
X62315038Y-109935163D01*
X62315038Y-109935163D02*
X62410276Y-109839925D01*
X62410276Y-109839925D02*
X62505514Y-109792306D01*
X62505514Y-109792306D02*
X62695990Y-109744687D01*
X62695990Y-109744687D02*
X62838847Y-109744687D01*
X62838847Y-109744687D02*
X63029323Y-109792306D01*
X63029323Y-109792306D02*
X63124561Y-109839925D01*
X63124561Y-109839925D02*
X63219800Y-109935163D01*
X63219800Y-109935163D02*
X63267419Y-110078020D01*
X63267419Y-110078020D02*
X63267419Y-110316115D01*
X62267419Y-109125639D02*
X62267419Y-109030401D01*
X62267419Y-109030401D02*
X62315038Y-108935163D01*
X62315038Y-108935163D02*
X62362657Y-108887544D01*
X62362657Y-108887544D02*
X62457895Y-108839925D01*
X62457895Y-108839925D02*
X62648371Y-108792306D01*
X62648371Y-108792306D02*
X62886466Y-108792306D01*
X62886466Y-108792306D02*
X63076942Y-108839925D01*
X63076942Y-108839925D02*
X63172180Y-108887544D01*
X63172180Y-108887544D02*
X63219800Y-108935163D01*
X63219800Y-108935163D02*
X63267419Y-109030401D01*
X63267419Y-109030401D02*
X63267419Y-109125639D01*
X63267419Y-109125639D02*
X63219800Y-109220877D01*
X63219800Y-109220877D02*
X63172180Y-109268496D01*
X63172180Y-109268496D02*
X63076942Y-109316115D01*
X63076942Y-109316115D02*
X62886466Y-109363734D01*
X62886466Y-109363734D02*
X62648371Y-109363734D01*
X62648371Y-109363734D02*
X62457895Y-109316115D01*
X62457895Y-109316115D02*
X62362657Y-109268496D01*
X62362657Y-109268496D02*
X62315038Y-109220877D01*
X62315038Y-109220877D02*
X62267419Y-109125639D01*
X57977419Y-110286115D02*
X56977419Y-110286115D01*
X56977419Y-110286115D02*
X57977419Y-109714687D01*
X57977419Y-109714687D02*
X56977419Y-109714687D01*
X56929800Y-108524211D02*
X58215514Y-109381353D01*
X57882180Y-107619449D02*
X57929800Y-107667068D01*
X57929800Y-107667068D02*
X57977419Y-107809925D01*
X57977419Y-107809925D02*
X57977419Y-107905163D01*
X57977419Y-107905163D02*
X57929800Y-108048020D01*
X57929800Y-108048020D02*
X57834561Y-108143258D01*
X57834561Y-108143258D02*
X57739323Y-108190877D01*
X57739323Y-108190877D02*
X57548847Y-108238496D01*
X57548847Y-108238496D02*
X57405990Y-108238496D01*
X57405990Y-108238496D02*
X57215514Y-108190877D01*
X57215514Y-108190877D02*
X57120276Y-108143258D01*
X57120276Y-108143258D02*
X57025038Y-108048020D01*
X57025038Y-108048020D02*
X56977419Y-107905163D01*
X56977419Y-107905163D02*
X56977419Y-107809925D01*
X56977419Y-107809925D02*
X57025038Y-107667068D01*
X57025038Y-107667068D02*
X57072657Y-107619449D01*
X114070698Y-110333734D02*
X114070698Y-109857544D01*
X114356413Y-110428972D02*
X113356413Y-110095639D01*
X113356413Y-110095639D02*
X114356413Y-109762306D01*
X113784984Y-109286115D02*
X113737365Y-109381353D01*
X113737365Y-109381353D02*
X113689746Y-109428972D01*
X113689746Y-109428972D02*
X113594508Y-109476591D01*
X113594508Y-109476591D02*
X113546889Y-109476591D01*
X113546889Y-109476591D02*
X113451651Y-109428972D01*
X113451651Y-109428972D02*
X113404032Y-109381353D01*
X113404032Y-109381353D02*
X113356413Y-109286115D01*
X113356413Y-109286115D02*
X113356413Y-109095639D01*
X113356413Y-109095639D02*
X113404032Y-109000401D01*
X113404032Y-109000401D02*
X113451651Y-108952782D01*
X113451651Y-108952782D02*
X113546889Y-108905163D01*
X113546889Y-108905163D02*
X113594508Y-108905163D01*
X113594508Y-108905163D02*
X113689746Y-108952782D01*
X113689746Y-108952782D02*
X113737365Y-109000401D01*
X113737365Y-109000401D02*
X113784984Y-109095639D01*
X113784984Y-109095639D02*
X113784984Y-109286115D01*
X113784984Y-109286115D02*
X113832603Y-109381353D01*
X113832603Y-109381353D02*
X113880222Y-109428972D01*
X113880222Y-109428972D02*
X113975460Y-109476591D01*
X113975460Y-109476591D02*
X114165936Y-109476591D01*
X114165936Y-109476591D02*
X114261174Y-109428972D01*
X114261174Y-109428972D02*
X114308794Y-109381353D01*
X114308794Y-109381353D02*
X114356413Y-109286115D01*
X114356413Y-109286115D02*
X114356413Y-109095639D01*
X114356413Y-109095639D02*
X114308794Y-109000401D01*
X114308794Y-109000401D02*
X114261174Y-108952782D01*
X114261174Y-108952782D02*
X114165936Y-108905163D01*
X114165936Y-108905163D02*
X113975460Y-108905163D01*
X113975460Y-108905163D02*
X113880222Y-108952782D01*
X113880222Y-108952782D02*
X113832603Y-109000401D01*
X113832603Y-109000401D02*
X113784984Y-109095639D01*
X86177419Y-110196115D02*
X85177419Y-110196115D01*
X85653609Y-110196115D02*
X85653609Y-109624687D01*
X86177419Y-109624687D02*
X85177419Y-109624687D01*
X85891704Y-109196115D02*
X85891704Y-108719925D01*
X86177419Y-109291353D02*
X85177419Y-108958020D01*
X85177419Y-108958020D02*
X86177419Y-108624687D01*
X86177419Y-107815163D02*
X86177419Y-108291353D01*
X86177419Y-108291353D02*
X85177419Y-108291353D01*
X85177419Y-107624686D02*
X85177419Y-107053258D01*
X86177419Y-107338972D02*
X85177419Y-107338972D01*
X84899800Y-110334211D02*
X84899800Y-107058020D01*
X68437419Y-110326115D02*
X67437419Y-110326115D01*
X67437419Y-110326115D02*
X67437419Y-110088020D01*
X67437419Y-110088020D02*
X67485038Y-109945163D01*
X67485038Y-109945163D02*
X67580276Y-109849925D01*
X67580276Y-109849925D02*
X67675514Y-109802306D01*
X67675514Y-109802306D02*
X67865990Y-109754687D01*
X67865990Y-109754687D02*
X68008847Y-109754687D01*
X68008847Y-109754687D02*
X68199323Y-109802306D01*
X68199323Y-109802306D02*
X68294561Y-109849925D01*
X68294561Y-109849925D02*
X68389800Y-109945163D01*
X68389800Y-109945163D02*
X68437419Y-110088020D01*
X68437419Y-110088020D02*
X68437419Y-110326115D01*
X67532657Y-109373734D02*
X67485038Y-109326115D01*
X67485038Y-109326115D02*
X67437419Y-109230877D01*
X67437419Y-109230877D02*
X67437419Y-108992782D01*
X67437419Y-108992782D02*
X67485038Y-108897544D01*
X67485038Y-108897544D02*
X67532657Y-108849925D01*
X67532657Y-108849925D02*
X67627895Y-108802306D01*
X67627895Y-108802306D02*
X67723133Y-108802306D01*
X67723133Y-108802306D02*
X67865990Y-108849925D01*
X67865990Y-108849925D02*
X68437419Y-109421353D01*
X68437419Y-109421353D02*
X68437419Y-108802306D01*
X116534895Y-110333734D02*
X116534895Y-109857544D01*
X116820610Y-110428972D02*
X115820610Y-110095639D01*
X115820610Y-110095639D02*
X116820610Y-109762306D01*
X116820610Y-108905163D02*
X116820610Y-109476591D01*
X116820610Y-109190877D02*
X115820610Y-109190877D01*
X115820610Y-109190877D02*
X115963467Y-109286115D01*
X115963467Y-109286115D02*
X116058705Y-109381353D01*
X116058705Y-109381353D02*
X116106324Y-109476591D01*
X115820610Y-108286115D02*
X115820610Y-108190877D01*
X115820610Y-108190877D02*
X115868229Y-108095639D01*
X115868229Y-108095639D02*
X115915848Y-108048020D01*
X115915848Y-108048020D02*
X116011086Y-108000401D01*
X116011086Y-108000401D02*
X116201562Y-107952782D01*
X116201562Y-107952782D02*
X116439657Y-107952782D01*
X116439657Y-107952782D02*
X116630133Y-108000401D01*
X116630133Y-108000401D02*
X116725371Y-108048020D01*
X116725371Y-108048020D02*
X116772991Y-108095639D01*
X116772991Y-108095639D02*
X116820610Y-108190877D01*
X116820610Y-108190877D02*
X116820610Y-108286115D01*
X116820610Y-108286115D02*
X116772991Y-108381353D01*
X116772991Y-108381353D02*
X116725371Y-108428972D01*
X116725371Y-108428972D02*
X116630133Y-108476591D01*
X116630133Y-108476591D02*
X116439657Y-108524210D01*
X116439657Y-108524210D02*
X116201562Y-108524210D01*
X116201562Y-108524210D02*
X116011086Y-108476591D01*
X116011086Y-108476591D02*
X115915848Y-108428972D01*
X115915848Y-108428972D02*
X115868229Y-108381353D01*
X115868229Y-108381353D02*
X115820610Y-108286115D01*
X98540280Y-110286115D02*
X98540280Y-109524211D01*
X97921233Y-108571830D02*
X97921233Y-109048020D01*
X97921233Y-109048020D02*
X98397423Y-109095639D01*
X98397423Y-109095639D02*
X98349804Y-109048020D01*
X98349804Y-109048020D02*
X98302185Y-108952782D01*
X98302185Y-108952782D02*
X98302185Y-108714687D01*
X98302185Y-108714687D02*
X98349804Y-108619449D01*
X98349804Y-108619449D02*
X98397423Y-108571830D01*
X98397423Y-108571830D02*
X98492661Y-108524211D01*
X98492661Y-108524211D02*
X98730756Y-108524211D01*
X98730756Y-108524211D02*
X98825994Y-108571830D01*
X98825994Y-108571830D02*
X98873614Y-108619449D01*
X98873614Y-108619449D02*
X98921233Y-108714687D01*
X98921233Y-108714687D02*
X98921233Y-108952782D01*
X98921233Y-108952782D02*
X98873614Y-109048020D01*
X98873614Y-109048020D02*
X98825994Y-109095639D01*
X97921233Y-108238496D02*
X98921233Y-107905163D01*
X98921233Y-107905163D02*
X97921233Y-107571830D01*
X83707419Y-110236115D02*
X82707419Y-110236115D01*
X82707419Y-110236115D02*
X83707419Y-109664687D01*
X83707419Y-109664687D02*
X82707419Y-109664687D01*
X83707419Y-109188496D02*
X82707419Y-109188496D01*
X82707419Y-109188496D02*
X83421704Y-108855163D01*
X83421704Y-108855163D02*
X82707419Y-108521830D01*
X82707419Y-108521830D02*
X83707419Y-108521830D01*
X83707419Y-108045639D02*
X82707419Y-108045639D01*
X82429800Y-110374211D02*
X82429800Y-107907545D01*
X95348703Y-110381353D02*
X96348703Y-110143258D01*
X96348703Y-110143258D02*
X95634417Y-109952782D01*
X95634417Y-109952782D02*
X96348703Y-109762306D01*
X96348703Y-109762306D02*
X95348703Y-109524211D01*
X96348703Y-108571830D02*
X95872512Y-108905163D01*
X96348703Y-109143258D02*
X95348703Y-109143258D01*
X95348703Y-109143258D02*
X95348703Y-108762306D01*
X95348703Y-108762306D02*
X95396322Y-108667068D01*
X95396322Y-108667068D02*
X95443941Y-108619449D01*
X95443941Y-108619449D02*
X95539179Y-108571830D01*
X95539179Y-108571830D02*
X95682036Y-108571830D01*
X95682036Y-108571830D02*
X95777274Y-108619449D01*
X95777274Y-108619449D02*
X95824893Y-108667068D01*
X95824893Y-108667068D02*
X95872512Y-108762306D01*
X95872512Y-108762306D02*
X95872512Y-109143258D01*
X95071084Y-110424211D02*
X95071084Y-108481354D01*
X50299092Y-110333734D02*
X50299092Y-109857544D01*
X50584807Y-110428972D02*
X49584807Y-110095639D01*
X49584807Y-110095639D02*
X50584807Y-109762306D01*
X50584807Y-108905163D02*
X50584807Y-109476591D01*
X50584807Y-109190877D02*
X49584807Y-109190877D01*
X49584807Y-109190877D02*
X49727664Y-109286115D01*
X49727664Y-109286115D02*
X49822902Y-109381353D01*
X49822902Y-109381353D02*
X49870521Y-109476591D01*
X49584807Y-108000401D02*
X49584807Y-108476591D01*
X49584807Y-108476591D02*
X50060997Y-108524210D01*
X50060997Y-108524210D02*
X50013378Y-108476591D01*
X50013378Y-108476591D02*
X49965759Y-108381353D01*
X49965759Y-108381353D02*
X49965759Y-108143258D01*
X49965759Y-108143258D02*
X50013378Y-108048020D01*
X50013378Y-108048020D02*
X50060997Y-108000401D01*
X50060997Y-108000401D02*
X50156235Y-107952782D01*
X50156235Y-107952782D02*
X50394330Y-107952782D01*
X50394330Y-107952782D02*
X50489568Y-108000401D01*
X50489568Y-108000401D02*
X50537188Y-108048020D01*
X50537188Y-108048020D02*
X50584807Y-108143258D01*
X50584807Y-108143258D02*
X50584807Y-108381353D01*
X50584807Y-108381353D02*
X50537188Y-108476591D01*
X50537188Y-108476591D02*
X50489568Y-108524210D01*
X65927419Y-110296115D02*
X64927419Y-110296115D01*
X64927419Y-110296115D02*
X64927419Y-110058020D01*
X64927419Y-110058020D02*
X64975038Y-109915163D01*
X64975038Y-109915163D02*
X65070276Y-109819925D01*
X65070276Y-109819925D02*
X65165514Y-109772306D01*
X65165514Y-109772306D02*
X65355990Y-109724687D01*
X65355990Y-109724687D02*
X65498847Y-109724687D01*
X65498847Y-109724687D02*
X65689323Y-109772306D01*
X65689323Y-109772306D02*
X65784561Y-109819925D01*
X65784561Y-109819925D02*
X65879800Y-109915163D01*
X65879800Y-109915163D02*
X65927419Y-110058020D01*
X65927419Y-110058020D02*
X65927419Y-110296115D01*
X65927419Y-108772306D02*
X65927419Y-109343734D01*
X65927419Y-109058020D02*
X64927419Y-109058020D01*
X64927419Y-109058020D02*
X65070276Y-109153258D01*
X65070276Y-109153258D02*
X65165514Y-109248496D01*
X65165514Y-109248496D02*
X65213133Y-109343734D01*
X70927419Y-110386115D02*
X69927419Y-110386115D01*
X69927419Y-110386115D02*
X69927419Y-110148020D01*
X69927419Y-110148020D02*
X69975038Y-110005163D01*
X69975038Y-110005163D02*
X70070276Y-109909925D01*
X70070276Y-109909925D02*
X70165514Y-109862306D01*
X70165514Y-109862306D02*
X70355990Y-109814687D01*
X70355990Y-109814687D02*
X70498847Y-109814687D01*
X70498847Y-109814687D02*
X70689323Y-109862306D01*
X70689323Y-109862306D02*
X70784561Y-109909925D01*
X70784561Y-109909925D02*
X70879800Y-110005163D01*
X70879800Y-110005163D02*
X70927419Y-110148020D01*
X70927419Y-110148020D02*
X70927419Y-110386115D01*
X69927419Y-108957544D02*
X69927419Y-109148020D01*
X69927419Y-109148020D02*
X69975038Y-109243258D01*
X69975038Y-109243258D02*
X70022657Y-109290877D01*
X70022657Y-109290877D02*
X70165514Y-109386115D01*
X70165514Y-109386115D02*
X70355990Y-109433734D01*
X70355990Y-109433734D02*
X70736942Y-109433734D01*
X70736942Y-109433734D02*
X70832180Y-109386115D01*
X70832180Y-109386115D02*
X70879800Y-109338496D01*
X70879800Y-109338496D02*
X70927419Y-109243258D01*
X70927419Y-109243258D02*
X70927419Y-109052782D01*
X70927419Y-109052782D02*
X70879800Y-108957544D01*
X70879800Y-108957544D02*
X70832180Y-108909925D01*
X70832180Y-108909925D02*
X70736942Y-108862306D01*
X70736942Y-108862306D02*
X70498847Y-108862306D01*
X70498847Y-108862306D02*
X70403609Y-108909925D01*
X70403609Y-108909925D02*
X70355990Y-108957544D01*
X70355990Y-108957544D02*
X70308371Y-109052782D01*
X70308371Y-109052782D02*
X70308371Y-109243258D01*
X70308371Y-109243258D02*
X70355990Y-109338496D01*
X70355990Y-109338496D02*
X70403609Y-109386115D01*
X70403609Y-109386115D02*
X70498847Y-109433734D01*
X119284807Y-110286115D02*
X118284807Y-110286115D01*
X118284807Y-110286115D02*
X119284807Y-109714687D01*
X119284807Y-109714687D02*
X118284807Y-109714687D01*
X118237188Y-108524211D02*
X119522902Y-109381353D01*
X119189568Y-107619449D02*
X119237188Y-107667068D01*
X119237188Y-107667068D02*
X119284807Y-107809925D01*
X119284807Y-107809925D02*
X119284807Y-107905163D01*
X119284807Y-107905163D02*
X119237188Y-108048020D01*
X119237188Y-108048020D02*
X119141949Y-108143258D01*
X119141949Y-108143258D02*
X119046711Y-108190877D01*
X119046711Y-108190877D02*
X118856235Y-108238496D01*
X118856235Y-108238496D02*
X118713378Y-108238496D01*
X118713378Y-108238496D02*
X118522902Y-108190877D01*
X118522902Y-108190877D02*
X118427664Y-108143258D01*
X118427664Y-108143258D02*
X118332426Y-108048020D01*
X118332426Y-108048020D02*
X118284807Y-107905163D01*
X118284807Y-107905163D02*
X118284807Y-107809925D01*
X118284807Y-107809925D02*
X118332426Y-107667068D01*
X118332426Y-107667068D02*
X118380045Y-107619449D01*
X109103020Y-110286115D02*
X108103020Y-110286115D01*
X108103020Y-110286115D02*
X108817305Y-109952782D01*
X108817305Y-109952782D02*
X108103020Y-109619449D01*
X108103020Y-109619449D02*
X109103020Y-109619449D01*
X109103020Y-108619449D02*
X109103020Y-109190877D01*
X109103020Y-108905163D02*
X108103020Y-108905163D01*
X108103020Y-108905163D02*
X108245877Y-109000401D01*
X108245877Y-109000401D02*
X108341115Y-109095639D01*
X108341115Y-109095639D02*
X108388734Y-109190877D01*
X107825401Y-110424211D02*
X107825401Y-108528973D01*
X100493763Y-110381353D02*
X101493763Y-110143258D01*
X101493763Y-110143258D02*
X100779477Y-109952782D01*
X100779477Y-109952782D02*
X101493763Y-109762306D01*
X101493763Y-109762306D02*
X100493763Y-109524211D01*
X101208048Y-109190877D02*
X101208048Y-108714687D01*
X101493763Y-109286115D02*
X100493763Y-108952782D01*
X100493763Y-108952782D02*
X101493763Y-108619449D01*
X101493763Y-108286115D02*
X100493763Y-108286115D01*
X100493763Y-107952782D02*
X100493763Y-107381354D01*
X101493763Y-107667068D02*
X100493763Y-107667068D01*
X100216144Y-110424211D02*
X100216144Y-107386116D01*
X81097419Y-110306115D02*
X80097419Y-110306115D01*
X81097419Y-109829925D02*
X80097419Y-109829925D01*
X80097419Y-109829925D02*
X81097419Y-109258497D01*
X81097419Y-109258497D02*
X80097419Y-109258497D01*
X80097419Y-108925163D02*
X80097419Y-108353735D01*
X81097419Y-108639449D02*
X80097419Y-108639449D01*
X79819800Y-110444211D02*
X79819800Y-108358497D01*
X88306114Y-110286115D02*
X87306114Y-110286115D01*
X87306114Y-110286115D02*
X88020399Y-109952782D01*
X88020399Y-109952782D02*
X87306114Y-109619449D01*
X87306114Y-109619449D02*
X88306114Y-109619449D01*
X88306114Y-108571830D02*
X87829923Y-108905163D01*
X88306114Y-109143258D02*
X87306114Y-109143258D01*
X87306114Y-109143258D02*
X87306114Y-108762306D01*
X87306114Y-108762306D02*
X87353733Y-108667068D01*
X87353733Y-108667068D02*
X87401352Y-108619449D01*
X87401352Y-108619449D02*
X87496590Y-108571830D01*
X87496590Y-108571830D02*
X87639447Y-108571830D01*
X87639447Y-108571830D02*
X87734685Y-108619449D01*
X87734685Y-108619449D02*
X87782304Y-108667068D01*
X87782304Y-108667068D02*
X87829923Y-108762306D01*
X87829923Y-108762306D02*
X87829923Y-109143258D01*
X87782304Y-108143258D02*
X87782304Y-107809925D01*
X88306114Y-107667068D02*
X88306114Y-108143258D01*
X88306114Y-108143258D02*
X87306114Y-108143258D01*
X87306114Y-108143258D02*
X87306114Y-107667068D01*
X88401352Y-106571830D02*
X88353733Y-106667068D01*
X88353733Y-106667068D02*
X88258495Y-106762306D01*
X88258495Y-106762306D02*
X88115637Y-106905163D01*
X88115637Y-106905163D02*
X88068018Y-107000401D01*
X88068018Y-107000401D02*
X88068018Y-107095639D01*
X88306114Y-107048020D02*
X88258495Y-107143258D01*
X88258495Y-107143258D02*
X88163256Y-107238496D01*
X88163256Y-107238496D02*
X87972780Y-107286115D01*
X87972780Y-107286115D02*
X87639447Y-107286115D01*
X87639447Y-107286115D02*
X87448971Y-107238496D01*
X87448971Y-107238496D02*
X87353733Y-107143258D01*
X87353733Y-107143258D02*
X87306114Y-107048020D01*
X87306114Y-107048020D02*
X87306114Y-106857544D01*
X87306114Y-106857544D02*
X87353733Y-106762306D01*
X87353733Y-106762306D02*
X87448971Y-106667068D01*
X87448971Y-106667068D02*
X87639447Y-106619449D01*
X87639447Y-106619449D02*
X87972780Y-106619449D01*
X87972780Y-106619449D02*
X88163256Y-106667068D01*
X88163256Y-106667068D02*
X88258495Y-106762306D01*
X88258495Y-106762306D02*
X88306114Y-106857544D01*
X88306114Y-106857544D02*
X88306114Y-107048020D01*
X87028495Y-110424211D02*
X87028495Y-106528973D01*
X106149537Y-110286115D02*
X106149537Y-109524211D01*
X106530490Y-108524211D02*
X106530490Y-109095639D01*
X106530490Y-108809925D02*
X105530490Y-108809925D01*
X105530490Y-108809925D02*
X105673347Y-108905163D01*
X105673347Y-108905163D02*
X105768585Y-109000401D01*
X105768585Y-109000401D02*
X105816204Y-109095639D01*
X105625728Y-108143258D02*
X105578109Y-108095639D01*
X105578109Y-108095639D02*
X105530490Y-108000401D01*
X105530490Y-108000401D02*
X105530490Y-107762306D01*
X105530490Y-107762306D02*
X105578109Y-107667068D01*
X105578109Y-107667068D02*
X105625728Y-107619449D01*
X105625728Y-107619449D02*
X105720966Y-107571830D01*
X105720966Y-107571830D02*
X105816204Y-107571830D01*
X105816204Y-107571830D02*
X105959061Y-107619449D01*
X105959061Y-107619449D02*
X106530490Y-108190877D01*
X106530490Y-108190877D02*
X106530490Y-107571830D01*
X105530490Y-107286115D02*
X106530490Y-106952782D01*
X106530490Y-106952782D02*
X105530490Y-106619449D01*
X52763310Y-110333734D02*
X52763310Y-109857544D01*
X53049025Y-110428972D02*
X52049025Y-110095639D01*
X52049025Y-110095639D02*
X53049025Y-109762306D01*
X53049025Y-108905163D02*
X53049025Y-109476591D01*
X53049025Y-109190877D02*
X52049025Y-109190877D01*
X52049025Y-109190877D02*
X52191882Y-109286115D01*
X52191882Y-109286115D02*
X52287120Y-109381353D01*
X52287120Y-109381353D02*
X52334739Y-109476591D01*
X52049025Y-108571829D02*
X52049025Y-107952782D01*
X52049025Y-107952782D02*
X52429977Y-108286115D01*
X52429977Y-108286115D02*
X52429977Y-108143258D01*
X52429977Y-108143258D02*
X52477596Y-108048020D01*
X52477596Y-108048020D02*
X52525215Y-108000401D01*
X52525215Y-108000401D02*
X52620453Y-107952782D01*
X52620453Y-107952782D02*
X52858548Y-107952782D01*
X52858548Y-107952782D02*
X52953786Y-108000401D01*
X52953786Y-108000401D02*
X53001406Y-108048020D01*
X53001406Y-108048020D02*
X53049025Y-108143258D01*
X53049025Y-108143258D02*
X53049025Y-108428972D01*
X53049025Y-108428972D02*
X53001406Y-108524210D01*
X53001406Y-108524210D02*
X52953786Y-108571829D01*
X78447419Y-110386115D02*
X77447419Y-110386115D01*
X77447419Y-110386115D02*
X77447419Y-110148020D01*
X77447419Y-110148020D02*
X77495038Y-110005163D01*
X77495038Y-110005163D02*
X77590276Y-109909925D01*
X77590276Y-109909925D02*
X77685514Y-109862306D01*
X77685514Y-109862306D02*
X77875990Y-109814687D01*
X77875990Y-109814687D02*
X78018847Y-109814687D01*
X78018847Y-109814687D02*
X78209323Y-109862306D01*
X78209323Y-109862306D02*
X78304561Y-109909925D01*
X78304561Y-109909925D02*
X78399800Y-110005163D01*
X78399800Y-110005163D02*
X78447419Y-110148020D01*
X78447419Y-110148020D02*
X78447419Y-110386115D01*
X77780752Y-108957544D02*
X78447419Y-108957544D01*
X77399800Y-109195639D02*
X78114085Y-109433734D01*
X78114085Y-109433734D02*
X78114085Y-108814687D01*
X55837419Y-110296115D02*
X54837419Y-110296115D01*
X54837419Y-110296115D02*
X54837419Y-110058020D01*
X54837419Y-110058020D02*
X54885038Y-109915163D01*
X54885038Y-109915163D02*
X54980276Y-109819925D01*
X54980276Y-109819925D02*
X55075514Y-109772306D01*
X55075514Y-109772306D02*
X55265990Y-109724687D01*
X55265990Y-109724687D02*
X55408847Y-109724687D01*
X55408847Y-109724687D02*
X55599323Y-109772306D01*
X55599323Y-109772306D02*
X55694561Y-109819925D01*
X55694561Y-109819925D02*
X55789800Y-109915163D01*
X55789800Y-109915163D02*
X55837419Y-110058020D01*
X55837419Y-110058020D02*
X55837419Y-110296115D01*
X54837419Y-109391353D02*
X54837419Y-108724687D01*
X54837419Y-108724687D02*
X55837419Y-109153258D01*
X93667840Y-109714687D02*
X93191649Y-110048020D01*
X93667840Y-110286115D02*
X92667840Y-110286115D01*
X92667840Y-110286115D02*
X92667840Y-109905163D01*
X92667840Y-109905163D02*
X92715459Y-109809925D01*
X92715459Y-109809925D02*
X92763078Y-109762306D01*
X92763078Y-109762306D02*
X92858316Y-109714687D01*
X92858316Y-109714687D02*
X93001173Y-109714687D01*
X93001173Y-109714687D02*
X93096411Y-109762306D01*
X93096411Y-109762306D02*
X93144030Y-109809925D01*
X93144030Y-109809925D02*
X93191649Y-109905163D01*
X93191649Y-109905163D02*
X93191649Y-110286115D01*
X93667840Y-109286115D02*
X92667840Y-109286115D01*
X92667840Y-109286115D02*
X92667840Y-109048020D01*
X92667840Y-109048020D02*
X92715459Y-108905163D01*
X92715459Y-108905163D02*
X92810697Y-108809925D01*
X92810697Y-108809925D02*
X92905935Y-108762306D01*
X92905935Y-108762306D02*
X93096411Y-108714687D01*
X93096411Y-108714687D02*
X93239268Y-108714687D01*
X93239268Y-108714687D02*
X93429744Y-108762306D01*
X93429744Y-108762306D02*
X93524982Y-108809925D01*
X93524982Y-108809925D02*
X93620221Y-108905163D01*
X93620221Y-108905163D02*
X93667840Y-109048020D01*
X93667840Y-109048020D02*
X93667840Y-109286115D01*
X92390221Y-110424211D02*
X92390221Y-108624211D01*
D13*
X47589580Y-87682857D02*
X47637200Y-87730476D01*
X47637200Y-87730476D02*
X47684819Y-87873333D01*
X47684819Y-87873333D02*
X47684819Y-87968571D01*
X47684819Y-87968571D02*
X47637200Y-88111428D01*
X47637200Y-88111428D02*
X47541961Y-88206666D01*
X47541961Y-88206666D02*
X47446723Y-88254285D01*
X47446723Y-88254285D02*
X47256247Y-88301904D01*
X47256247Y-88301904D02*
X47113390Y-88301904D01*
X47113390Y-88301904D02*
X46922914Y-88254285D01*
X46922914Y-88254285D02*
X46827676Y-88206666D01*
X46827676Y-88206666D02*
X46732438Y-88111428D01*
X46732438Y-88111428D02*
X46684819Y-87968571D01*
X46684819Y-87968571D02*
X46684819Y-87873333D01*
X46684819Y-87873333D02*
X46732438Y-87730476D01*
X46732438Y-87730476D02*
X46780057Y-87682857D01*
X47684819Y-86730476D02*
X47684819Y-87301904D01*
X47684819Y-87016190D02*
X46684819Y-87016190D01*
X46684819Y-87016190D02*
X46827676Y-87111428D01*
X46827676Y-87111428D02*
X46922914Y-87206666D01*
X46922914Y-87206666D02*
X46970533Y-87301904D01*
X46684819Y-86397142D02*
X46684819Y-85778095D01*
X46684819Y-85778095D02*
X47065771Y-86111428D01*
X47065771Y-86111428D02*
X47065771Y-85968571D01*
X47065771Y-85968571D02*
X47113390Y-85873333D01*
X47113390Y-85873333D02*
X47161009Y-85825714D01*
X47161009Y-85825714D02*
X47256247Y-85778095D01*
X47256247Y-85778095D02*
X47494342Y-85778095D01*
X47494342Y-85778095D02*
X47589580Y-85825714D01*
X47589580Y-85825714D02*
X47637200Y-85873333D01*
X47637200Y-85873333D02*
X47684819Y-85968571D01*
X47684819Y-85968571D02*
X47684819Y-86254285D01*
X47684819Y-86254285D02*
X47637200Y-86349523D01*
X47637200Y-86349523D02*
X47589580Y-86397142D01*
X115677142Y-55289580D02*
X115629523Y-55337200D01*
X115629523Y-55337200D02*
X115486666Y-55384819D01*
X115486666Y-55384819D02*
X115391428Y-55384819D01*
X115391428Y-55384819D02*
X115248571Y-55337200D01*
X115248571Y-55337200D02*
X115153333Y-55241961D01*
X115153333Y-55241961D02*
X115105714Y-55146723D01*
X115105714Y-55146723D02*
X115058095Y-54956247D01*
X115058095Y-54956247D02*
X115058095Y-54813390D01*
X115058095Y-54813390D02*
X115105714Y-54622914D01*
X115105714Y-54622914D02*
X115153333Y-54527676D01*
X115153333Y-54527676D02*
X115248571Y-54432438D01*
X115248571Y-54432438D02*
X115391428Y-54384819D01*
X115391428Y-54384819D02*
X115486666Y-54384819D01*
X115486666Y-54384819D02*
X115629523Y-54432438D01*
X115629523Y-54432438D02*
X115677142Y-54480057D01*
X116629523Y-55384819D02*
X116058095Y-55384819D01*
X116343809Y-55384819D02*
X116343809Y-54384819D01*
X116343809Y-54384819D02*
X116248571Y-54527676D01*
X116248571Y-54527676D02*
X116153333Y-54622914D01*
X116153333Y-54622914D02*
X116058095Y-54670533D01*
X117534285Y-54384819D02*
X117058095Y-54384819D01*
X117058095Y-54384819D02*
X117010476Y-54861009D01*
X117010476Y-54861009D02*
X117058095Y-54813390D01*
X117058095Y-54813390D02*
X117153333Y-54765771D01*
X117153333Y-54765771D02*
X117391428Y-54765771D01*
X117391428Y-54765771D02*
X117486666Y-54813390D01*
X117486666Y-54813390D02*
X117534285Y-54861009D01*
X117534285Y-54861009D02*
X117581904Y-54956247D01*
X117581904Y-54956247D02*
X117581904Y-55194342D01*
X117581904Y-55194342D02*
X117534285Y-55289580D01*
X117534285Y-55289580D02*
X117486666Y-55337200D01*
X117486666Y-55337200D02*
X117391428Y-55384819D01*
X117391428Y-55384819D02*
X117153333Y-55384819D01*
X117153333Y-55384819D02*
X117058095Y-55337200D01*
X117058095Y-55337200D02*
X117010476Y-55289580D01*
X86293333Y-55039580D02*
X86245714Y-55087200D01*
X86245714Y-55087200D02*
X86102857Y-55134819D01*
X86102857Y-55134819D02*
X86007619Y-55134819D01*
X86007619Y-55134819D02*
X85864762Y-55087200D01*
X85864762Y-55087200D02*
X85769524Y-54991961D01*
X85769524Y-54991961D02*
X85721905Y-54896723D01*
X85721905Y-54896723D02*
X85674286Y-54706247D01*
X85674286Y-54706247D02*
X85674286Y-54563390D01*
X85674286Y-54563390D02*
X85721905Y-54372914D01*
X85721905Y-54372914D02*
X85769524Y-54277676D01*
X85769524Y-54277676D02*
X85864762Y-54182438D01*
X85864762Y-54182438D02*
X86007619Y-54134819D01*
X86007619Y-54134819D02*
X86102857Y-54134819D01*
X86102857Y-54134819D02*
X86245714Y-54182438D01*
X86245714Y-54182438D02*
X86293333Y-54230057D01*
X87150476Y-54468152D02*
X87150476Y-55134819D01*
X86912381Y-54087200D02*
X86674286Y-54801485D01*
X86674286Y-54801485D02*
X87293333Y-54801485D01*
X65239580Y-61116666D02*
X65287200Y-61164285D01*
X65287200Y-61164285D02*
X65334819Y-61307142D01*
X65334819Y-61307142D02*
X65334819Y-61402380D01*
X65334819Y-61402380D02*
X65287200Y-61545237D01*
X65287200Y-61545237D02*
X65191961Y-61640475D01*
X65191961Y-61640475D02*
X65096723Y-61688094D01*
X65096723Y-61688094D02*
X64906247Y-61735713D01*
X64906247Y-61735713D02*
X64763390Y-61735713D01*
X64763390Y-61735713D02*
X64572914Y-61688094D01*
X64572914Y-61688094D02*
X64477676Y-61640475D01*
X64477676Y-61640475D02*
X64382438Y-61545237D01*
X64382438Y-61545237D02*
X64334819Y-61402380D01*
X64334819Y-61402380D02*
X64334819Y-61307142D01*
X64334819Y-61307142D02*
X64382438Y-61164285D01*
X64382438Y-61164285D02*
X64430057Y-61116666D01*
X65334819Y-60164285D02*
X65334819Y-60735713D01*
X65334819Y-60449999D02*
X64334819Y-60449999D01*
X64334819Y-60449999D02*
X64477676Y-60545237D01*
X64477676Y-60545237D02*
X64572914Y-60640475D01*
X64572914Y-60640475D02*
X64620533Y-60735713D01*
X85354819Y-100121904D02*
X86164342Y-100121904D01*
X86164342Y-100121904D02*
X86259580Y-100074285D01*
X86259580Y-100074285D02*
X86307200Y-100026666D01*
X86307200Y-100026666D02*
X86354819Y-99931428D01*
X86354819Y-99931428D02*
X86354819Y-99740952D01*
X86354819Y-99740952D02*
X86307200Y-99645714D01*
X86307200Y-99645714D02*
X86259580Y-99598095D01*
X86259580Y-99598095D02*
X86164342Y-99550476D01*
X86164342Y-99550476D02*
X85354819Y-99550476D01*
X85354819Y-99169523D02*
X85354819Y-98550476D01*
X85354819Y-98550476D02*
X85735771Y-98883809D01*
X85735771Y-98883809D02*
X85735771Y-98740952D01*
X85735771Y-98740952D02*
X85783390Y-98645714D01*
X85783390Y-98645714D02*
X85831009Y-98598095D01*
X85831009Y-98598095D02*
X85926247Y-98550476D01*
X85926247Y-98550476D02*
X86164342Y-98550476D01*
X86164342Y-98550476D02*
X86259580Y-98598095D01*
X86259580Y-98598095D02*
X86307200Y-98645714D01*
X86307200Y-98645714D02*
X86354819Y-98740952D01*
X86354819Y-98740952D02*
X86354819Y-99026666D01*
X86354819Y-99026666D02*
X86307200Y-99121904D01*
X86307200Y-99121904D02*
X86259580Y-99169523D01*
X114593333Y-70199580D02*
X114545714Y-70247200D01*
X114545714Y-70247200D02*
X114402857Y-70294819D01*
X114402857Y-70294819D02*
X114307619Y-70294819D01*
X114307619Y-70294819D02*
X114164762Y-70247200D01*
X114164762Y-70247200D02*
X114069524Y-70151961D01*
X114069524Y-70151961D02*
X114021905Y-70056723D01*
X114021905Y-70056723D02*
X113974286Y-69866247D01*
X113974286Y-69866247D02*
X113974286Y-69723390D01*
X113974286Y-69723390D02*
X114021905Y-69532914D01*
X114021905Y-69532914D02*
X114069524Y-69437676D01*
X114069524Y-69437676D02*
X114164762Y-69342438D01*
X114164762Y-69342438D02*
X114307619Y-69294819D01*
X114307619Y-69294819D02*
X114402857Y-69294819D01*
X114402857Y-69294819D02*
X114545714Y-69342438D01*
X114545714Y-69342438D02*
X114593333Y-69390057D01*
X114926667Y-69294819D02*
X115593333Y-69294819D01*
X115593333Y-69294819D02*
X115164762Y-70294819D01*
X66583333Y-93569580D02*
X66535714Y-93617200D01*
X66535714Y-93617200D02*
X66392857Y-93664819D01*
X66392857Y-93664819D02*
X66297619Y-93664819D01*
X66297619Y-93664819D02*
X66154762Y-93617200D01*
X66154762Y-93617200D02*
X66059524Y-93521961D01*
X66059524Y-93521961D02*
X66011905Y-93426723D01*
X66011905Y-93426723D02*
X65964286Y-93236247D01*
X65964286Y-93236247D02*
X65964286Y-93093390D01*
X65964286Y-93093390D02*
X66011905Y-92902914D01*
X66011905Y-92902914D02*
X66059524Y-92807676D01*
X66059524Y-92807676D02*
X66154762Y-92712438D01*
X66154762Y-92712438D02*
X66297619Y-92664819D01*
X66297619Y-92664819D02*
X66392857Y-92664819D01*
X66392857Y-92664819D02*
X66535714Y-92712438D01*
X66535714Y-92712438D02*
X66583333Y-92760057D01*
X66916667Y-92664819D02*
X67535714Y-92664819D01*
X67535714Y-92664819D02*
X67202381Y-93045771D01*
X67202381Y-93045771D02*
X67345238Y-93045771D01*
X67345238Y-93045771D02*
X67440476Y-93093390D01*
X67440476Y-93093390D02*
X67488095Y-93141009D01*
X67488095Y-93141009D02*
X67535714Y-93236247D01*
X67535714Y-93236247D02*
X67535714Y-93474342D01*
X67535714Y-93474342D02*
X67488095Y-93569580D01*
X67488095Y-93569580D02*
X67440476Y-93617200D01*
X67440476Y-93617200D02*
X67345238Y-93664819D01*
X67345238Y-93664819D02*
X67059524Y-93664819D01*
X67059524Y-93664819D02*
X66964286Y-93617200D01*
X66964286Y-93617200D02*
X66916667Y-93569580D01*
X63513333Y-55614819D02*
X63513333Y-54614819D01*
X63513333Y-54614819D02*
X63894285Y-54614819D01*
X63894285Y-54614819D02*
X63989523Y-54662438D01*
X63989523Y-54662438D02*
X64037142Y-54710057D01*
X64037142Y-54710057D02*
X64084761Y-54805295D01*
X64084761Y-54805295D02*
X64084761Y-54948152D01*
X64084761Y-54948152D02*
X64037142Y-55043390D01*
X64037142Y-55043390D02*
X63989523Y-55091009D01*
X63989523Y-55091009D02*
X63894285Y-55138628D01*
X63894285Y-55138628D02*
X63513333Y-55138628D01*
X64513333Y-55614819D02*
X64513333Y-54948152D01*
X64513333Y-54614819D02*
X64465714Y-54662438D01*
X64465714Y-54662438D02*
X64513333Y-54710057D01*
X64513333Y-54710057D02*
X64560952Y-54662438D01*
X64560952Y-54662438D02*
X64513333Y-54614819D01*
X64513333Y-54614819D02*
X64513333Y-54710057D01*
X64846666Y-54948152D02*
X65227618Y-54948152D01*
X64989523Y-54614819D02*
X64989523Y-55471961D01*
X64989523Y-55471961D02*
X65037142Y-55567200D01*
X65037142Y-55567200D02*
X65132380Y-55614819D01*
X65132380Y-55614819D02*
X65227618Y-55614819D01*
X65989523Y-55567200D02*
X65894285Y-55614819D01*
X65894285Y-55614819D02*
X65703809Y-55614819D01*
X65703809Y-55614819D02*
X65608571Y-55567200D01*
X65608571Y-55567200D02*
X65560952Y-55519580D01*
X65560952Y-55519580D02*
X65513333Y-55424342D01*
X65513333Y-55424342D02*
X65513333Y-55138628D01*
X65513333Y-55138628D02*
X65560952Y-55043390D01*
X65560952Y-55043390D02*
X65608571Y-54995771D01*
X65608571Y-54995771D02*
X65703809Y-54948152D01*
X65703809Y-54948152D02*
X65894285Y-54948152D01*
X65894285Y-54948152D02*
X65989523Y-54995771D01*
X66418095Y-55614819D02*
X66418095Y-54614819D01*
X66846666Y-55614819D02*
X66846666Y-55091009D01*
X66846666Y-55091009D02*
X66799047Y-54995771D01*
X66799047Y-54995771D02*
X66703809Y-54948152D01*
X66703809Y-54948152D02*
X66560952Y-54948152D01*
X66560952Y-54948152D02*
X66465714Y-54995771D01*
X66465714Y-54995771D02*
X66418095Y-55043390D01*
X47489580Y-103577857D02*
X47537200Y-103625476D01*
X47537200Y-103625476D02*
X47584819Y-103768333D01*
X47584819Y-103768333D02*
X47584819Y-103863571D01*
X47584819Y-103863571D02*
X47537200Y-104006428D01*
X47537200Y-104006428D02*
X47441961Y-104101666D01*
X47441961Y-104101666D02*
X47346723Y-104149285D01*
X47346723Y-104149285D02*
X47156247Y-104196904D01*
X47156247Y-104196904D02*
X47013390Y-104196904D01*
X47013390Y-104196904D02*
X46822914Y-104149285D01*
X46822914Y-104149285D02*
X46727676Y-104101666D01*
X46727676Y-104101666D02*
X46632438Y-104006428D01*
X46632438Y-104006428D02*
X46584819Y-103863571D01*
X46584819Y-103863571D02*
X46584819Y-103768333D01*
X46584819Y-103768333D02*
X46632438Y-103625476D01*
X46632438Y-103625476D02*
X46680057Y-103577857D01*
X47584819Y-102625476D02*
X47584819Y-103196904D01*
X47584819Y-102911190D02*
X46584819Y-102911190D01*
X46584819Y-102911190D02*
X46727676Y-103006428D01*
X46727676Y-103006428D02*
X46822914Y-103101666D01*
X46822914Y-103101666D02*
X46870533Y-103196904D01*
X46918152Y-101768333D02*
X47584819Y-101768333D01*
X46537200Y-102006428D02*
X47251485Y-102244523D01*
X47251485Y-102244523D02*
X47251485Y-101625476D01*
X94782042Y-87199580D02*
X94734423Y-87247200D01*
X94734423Y-87247200D02*
X94591566Y-87294819D01*
X94591566Y-87294819D02*
X94496328Y-87294819D01*
X94496328Y-87294819D02*
X94353471Y-87247200D01*
X94353471Y-87247200D02*
X94258233Y-87151961D01*
X94258233Y-87151961D02*
X94210614Y-87056723D01*
X94210614Y-87056723D02*
X94162995Y-86866247D01*
X94162995Y-86866247D02*
X94162995Y-86723390D01*
X94162995Y-86723390D02*
X94210614Y-86532914D01*
X94210614Y-86532914D02*
X94258233Y-86437676D01*
X94258233Y-86437676D02*
X94353471Y-86342438D01*
X94353471Y-86342438D02*
X94496328Y-86294819D01*
X94496328Y-86294819D02*
X94591566Y-86294819D01*
X94591566Y-86294819D02*
X94734423Y-86342438D01*
X94734423Y-86342438D02*
X94782042Y-86390057D01*
X95734423Y-87294819D02*
X95162995Y-87294819D01*
X95448709Y-87294819D02*
X95448709Y-86294819D01*
X95448709Y-86294819D02*
X95353471Y-86437676D01*
X95353471Y-86437676D02*
X95258233Y-86532914D01*
X95258233Y-86532914D02*
X95162995Y-86580533D01*
X96686804Y-87294819D02*
X96115376Y-87294819D01*
X96401090Y-87294819D02*
X96401090Y-86294819D01*
X96401090Y-86294819D02*
X96305852Y-86437676D01*
X96305852Y-86437676D02*
X96210614Y-86532914D01*
X96210614Y-86532914D02*
X96115376Y-86580533D01*
X77277142Y-93534819D02*
X76943809Y-93058628D01*
X76705714Y-93534819D02*
X76705714Y-92534819D01*
X76705714Y-92534819D02*
X77086666Y-92534819D01*
X77086666Y-92534819D02*
X77181904Y-92582438D01*
X77181904Y-92582438D02*
X77229523Y-92630057D01*
X77229523Y-92630057D02*
X77277142Y-92725295D01*
X77277142Y-92725295D02*
X77277142Y-92868152D01*
X77277142Y-92868152D02*
X77229523Y-92963390D01*
X77229523Y-92963390D02*
X77181904Y-93011009D01*
X77181904Y-93011009D02*
X77086666Y-93058628D01*
X77086666Y-93058628D02*
X76705714Y-93058628D01*
X78229523Y-93534819D02*
X77658095Y-93534819D01*
X77943809Y-93534819D02*
X77943809Y-92534819D01*
X77943809Y-92534819D02*
X77848571Y-92677676D01*
X77848571Y-92677676D02*
X77753333Y-92772914D01*
X77753333Y-92772914D02*
X77658095Y-92820533D01*
X78848571Y-92534819D02*
X78943809Y-92534819D01*
X78943809Y-92534819D02*
X79039047Y-92582438D01*
X79039047Y-92582438D02*
X79086666Y-92630057D01*
X79086666Y-92630057D02*
X79134285Y-92725295D01*
X79134285Y-92725295D02*
X79181904Y-92915771D01*
X79181904Y-92915771D02*
X79181904Y-93153866D01*
X79181904Y-93153866D02*
X79134285Y-93344342D01*
X79134285Y-93344342D02*
X79086666Y-93439580D01*
X79086666Y-93439580D02*
X79039047Y-93487200D01*
X79039047Y-93487200D02*
X78943809Y-93534819D01*
X78943809Y-93534819D02*
X78848571Y-93534819D01*
X78848571Y-93534819D02*
X78753333Y-93487200D01*
X78753333Y-93487200D02*
X78705714Y-93439580D01*
X78705714Y-93439580D02*
X78658095Y-93344342D01*
X78658095Y-93344342D02*
X78610476Y-93153866D01*
X78610476Y-93153866D02*
X78610476Y-92915771D01*
X78610476Y-92915771D02*
X78658095Y-92725295D01*
X78658095Y-92725295D02*
X78705714Y-92630057D01*
X78705714Y-92630057D02*
X78753333Y-92582438D01*
X78753333Y-92582438D02*
X78848571Y-92534819D01*
X75140952Y-77257200D02*
X75283809Y-77304819D01*
X75283809Y-77304819D02*
X75521904Y-77304819D01*
X75521904Y-77304819D02*
X75617142Y-77257200D01*
X75617142Y-77257200D02*
X75664761Y-77209580D01*
X75664761Y-77209580D02*
X75712380Y-77114342D01*
X75712380Y-77114342D02*
X75712380Y-77019104D01*
X75712380Y-77019104D02*
X75664761Y-76923866D01*
X75664761Y-76923866D02*
X75617142Y-76876247D01*
X75617142Y-76876247D02*
X75521904Y-76828628D01*
X75521904Y-76828628D02*
X75331428Y-76781009D01*
X75331428Y-76781009D02*
X75236190Y-76733390D01*
X75236190Y-76733390D02*
X75188571Y-76685771D01*
X75188571Y-76685771D02*
X75140952Y-76590533D01*
X75140952Y-76590533D02*
X75140952Y-76495295D01*
X75140952Y-76495295D02*
X75188571Y-76400057D01*
X75188571Y-76400057D02*
X75236190Y-76352438D01*
X75236190Y-76352438D02*
X75331428Y-76304819D01*
X75331428Y-76304819D02*
X75569523Y-76304819D01*
X75569523Y-76304819D02*
X75712380Y-76352438D01*
X76140952Y-77304819D02*
X76140952Y-76304819D01*
X76140952Y-76304819D02*
X76521904Y-76304819D01*
X76521904Y-76304819D02*
X76617142Y-76352438D01*
X76617142Y-76352438D02*
X76664761Y-76400057D01*
X76664761Y-76400057D02*
X76712380Y-76495295D01*
X76712380Y-76495295D02*
X76712380Y-76638152D01*
X76712380Y-76638152D02*
X76664761Y-76733390D01*
X76664761Y-76733390D02*
X76617142Y-76781009D01*
X76617142Y-76781009D02*
X76521904Y-76828628D01*
X76521904Y-76828628D02*
X76140952Y-76828628D01*
X77331428Y-76304819D02*
X77426666Y-76304819D01*
X77426666Y-76304819D02*
X77521904Y-76352438D01*
X77521904Y-76352438D02*
X77569523Y-76400057D01*
X77569523Y-76400057D02*
X77617142Y-76495295D01*
X77617142Y-76495295D02*
X77664761Y-76685771D01*
X77664761Y-76685771D02*
X77664761Y-76923866D01*
X77664761Y-76923866D02*
X77617142Y-77114342D01*
X77617142Y-77114342D02*
X77569523Y-77209580D01*
X77569523Y-77209580D02*
X77521904Y-77257200D01*
X77521904Y-77257200D02*
X77426666Y-77304819D01*
X77426666Y-77304819D02*
X77331428Y-77304819D01*
X77331428Y-77304819D02*
X77236190Y-77257200D01*
X77236190Y-77257200D02*
X77188571Y-77209580D01*
X77188571Y-77209580D02*
X77140952Y-77114342D01*
X77140952Y-77114342D02*
X77093333Y-76923866D01*
X77093333Y-76923866D02*
X77093333Y-76685771D01*
X77093333Y-76685771D02*
X77140952Y-76495295D01*
X77140952Y-76495295D02*
X77188571Y-76400057D01*
X77188571Y-76400057D02*
X77236190Y-76352438D01*
X77236190Y-76352438D02*
X77331428Y-76304819D01*
X78045714Y-76400057D02*
X78093333Y-76352438D01*
X78093333Y-76352438D02*
X78188571Y-76304819D01*
X78188571Y-76304819D02*
X78426666Y-76304819D01*
X78426666Y-76304819D02*
X78521904Y-76352438D01*
X78521904Y-76352438D02*
X78569523Y-76400057D01*
X78569523Y-76400057D02*
X78617142Y-76495295D01*
X78617142Y-76495295D02*
X78617142Y-76590533D01*
X78617142Y-76590533D02*
X78569523Y-76733390D01*
X78569523Y-76733390D02*
X77998095Y-77304819D01*
X77998095Y-77304819D02*
X78617142Y-77304819D01*
X79521904Y-76304819D02*
X79045714Y-76304819D01*
X79045714Y-76304819D02*
X78998095Y-76781009D01*
X78998095Y-76781009D02*
X79045714Y-76733390D01*
X79045714Y-76733390D02*
X79140952Y-76685771D01*
X79140952Y-76685771D02*
X79379047Y-76685771D01*
X79379047Y-76685771D02*
X79474285Y-76733390D01*
X79474285Y-76733390D02*
X79521904Y-76781009D01*
X79521904Y-76781009D02*
X79569523Y-76876247D01*
X79569523Y-76876247D02*
X79569523Y-77114342D01*
X79569523Y-77114342D02*
X79521904Y-77209580D01*
X79521904Y-77209580D02*
X79474285Y-77257200D01*
X79474285Y-77257200D02*
X79379047Y-77304819D01*
X79379047Y-77304819D02*
X79140952Y-77304819D01*
X79140952Y-77304819D02*
X79045714Y-77257200D01*
X79045714Y-77257200D02*
X78998095Y-77209580D01*
X80426666Y-76304819D02*
X80236190Y-76304819D01*
X80236190Y-76304819D02*
X80140952Y-76352438D01*
X80140952Y-76352438D02*
X80093333Y-76400057D01*
X80093333Y-76400057D02*
X79998095Y-76542914D01*
X79998095Y-76542914D02*
X79950476Y-76733390D01*
X79950476Y-76733390D02*
X79950476Y-77114342D01*
X79950476Y-77114342D02*
X79998095Y-77209580D01*
X79998095Y-77209580D02*
X80045714Y-77257200D01*
X80045714Y-77257200D02*
X80140952Y-77304819D01*
X80140952Y-77304819D02*
X80331428Y-77304819D01*
X80331428Y-77304819D02*
X80426666Y-77257200D01*
X80426666Y-77257200D02*
X80474285Y-77209580D01*
X80474285Y-77209580D02*
X80521904Y-77114342D01*
X80521904Y-77114342D02*
X80521904Y-76876247D01*
X80521904Y-76876247D02*
X80474285Y-76781009D01*
X80474285Y-76781009D02*
X80426666Y-76733390D01*
X80426666Y-76733390D02*
X80331428Y-76685771D01*
X80331428Y-76685771D02*
X80140952Y-76685771D01*
X80140952Y-76685771D02*
X80045714Y-76733390D01*
X80045714Y-76733390D02*
X79998095Y-76781009D01*
X79998095Y-76781009D02*
X79950476Y-76876247D01*
X80950476Y-76923866D02*
X81712381Y-76923866D01*
X82140952Y-77019104D02*
X82617142Y-77019104D01*
X82045714Y-77304819D02*
X82379047Y-76304819D01*
X82379047Y-76304819D02*
X82712380Y-77304819D01*
X83521904Y-77304819D02*
X83045714Y-77304819D01*
X83045714Y-77304819D02*
X83045714Y-76304819D01*
X83807619Y-76400057D02*
X83855238Y-76352438D01*
X83855238Y-76352438D02*
X83950476Y-76304819D01*
X83950476Y-76304819D02*
X84188571Y-76304819D01*
X84188571Y-76304819D02*
X84283809Y-76352438D01*
X84283809Y-76352438D02*
X84331428Y-76400057D01*
X84331428Y-76400057D02*
X84379047Y-76495295D01*
X84379047Y-76495295D02*
X84379047Y-76590533D01*
X84379047Y-76590533D02*
X84331428Y-76733390D01*
X84331428Y-76733390D02*
X83760000Y-77304819D01*
X83760000Y-77304819D02*
X84379047Y-77304819D01*
X112218095Y-96487200D02*
X112360952Y-96534819D01*
X112360952Y-96534819D02*
X112599047Y-96534819D01*
X112599047Y-96534819D02*
X112694285Y-96487200D01*
X112694285Y-96487200D02*
X112741904Y-96439580D01*
X112741904Y-96439580D02*
X112789523Y-96344342D01*
X112789523Y-96344342D02*
X112789523Y-96249104D01*
X112789523Y-96249104D02*
X112741904Y-96153866D01*
X112741904Y-96153866D02*
X112694285Y-96106247D01*
X112694285Y-96106247D02*
X112599047Y-96058628D01*
X112599047Y-96058628D02*
X112408571Y-96011009D01*
X112408571Y-96011009D02*
X112313333Y-95963390D01*
X112313333Y-95963390D02*
X112265714Y-95915771D01*
X112265714Y-95915771D02*
X112218095Y-95820533D01*
X112218095Y-95820533D02*
X112218095Y-95725295D01*
X112218095Y-95725295D02*
X112265714Y-95630057D01*
X112265714Y-95630057D02*
X112313333Y-95582438D01*
X112313333Y-95582438D02*
X112408571Y-95534819D01*
X112408571Y-95534819D02*
X112646666Y-95534819D01*
X112646666Y-95534819D02*
X112789523Y-95582438D01*
X113218095Y-95868152D02*
X113218095Y-96868152D01*
X113218095Y-95915771D02*
X113313333Y-95868152D01*
X113313333Y-95868152D02*
X113503809Y-95868152D01*
X113503809Y-95868152D02*
X113599047Y-95915771D01*
X113599047Y-95915771D02*
X113646666Y-95963390D01*
X113646666Y-95963390D02*
X113694285Y-96058628D01*
X113694285Y-96058628D02*
X113694285Y-96344342D01*
X113694285Y-96344342D02*
X113646666Y-96439580D01*
X113646666Y-96439580D02*
X113599047Y-96487200D01*
X113599047Y-96487200D02*
X113503809Y-96534819D01*
X113503809Y-96534819D02*
X113313333Y-96534819D01*
X113313333Y-96534819D02*
X113218095Y-96487200D01*
X114503809Y-96487200D02*
X114408571Y-96534819D01*
X114408571Y-96534819D02*
X114218095Y-96534819D01*
X114218095Y-96534819D02*
X114122857Y-96487200D01*
X114122857Y-96487200D02*
X114075238Y-96391961D01*
X114075238Y-96391961D02*
X114075238Y-96011009D01*
X114075238Y-96011009D02*
X114122857Y-95915771D01*
X114122857Y-95915771D02*
X114218095Y-95868152D01*
X114218095Y-95868152D02*
X114408571Y-95868152D01*
X114408571Y-95868152D02*
X114503809Y-95915771D01*
X114503809Y-95915771D02*
X114551428Y-96011009D01*
X114551428Y-96011009D02*
X114551428Y-96106247D01*
X114551428Y-96106247D02*
X114075238Y-96201485D01*
X115408571Y-96534819D02*
X115408571Y-96011009D01*
X115408571Y-96011009D02*
X115360952Y-95915771D01*
X115360952Y-95915771D02*
X115265714Y-95868152D01*
X115265714Y-95868152D02*
X115075238Y-95868152D01*
X115075238Y-95868152D02*
X114980000Y-95915771D01*
X115408571Y-96487200D02*
X115313333Y-96534819D01*
X115313333Y-96534819D02*
X115075238Y-96534819D01*
X115075238Y-96534819D02*
X114980000Y-96487200D01*
X114980000Y-96487200D02*
X114932381Y-96391961D01*
X114932381Y-96391961D02*
X114932381Y-96296723D01*
X114932381Y-96296723D02*
X114980000Y-96201485D01*
X114980000Y-96201485D02*
X115075238Y-96153866D01*
X115075238Y-96153866D02*
X115313333Y-96153866D01*
X115313333Y-96153866D02*
X115408571Y-96106247D01*
X115884762Y-96534819D02*
X115884762Y-95534819D01*
X115980000Y-96153866D02*
X116265714Y-96534819D01*
X116265714Y-95868152D02*
X115884762Y-96249104D01*
X117075238Y-96487200D02*
X116980000Y-96534819D01*
X116980000Y-96534819D02*
X116789524Y-96534819D01*
X116789524Y-96534819D02*
X116694286Y-96487200D01*
X116694286Y-96487200D02*
X116646667Y-96391961D01*
X116646667Y-96391961D02*
X116646667Y-96011009D01*
X116646667Y-96011009D02*
X116694286Y-95915771D01*
X116694286Y-95915771D02*
X116789524Y-95868152D01*
X116789524Y-95868152D02*
X116980000Y-95868152D01*
X116980000Y-95868152D02*
X117075238Y-95915771D01*
X117075238Y-95915771D02*
X117122857Y-96011009D01*
X117122857Y-96011009D02*
X117122857Y-96106247D01*
X117122857Y-96106247D02*
X116646667Y-96201485D01*
X117551429Y-96534819D02*
X117551429Y-95868152D01*
X117551429Y-96058628D02*
X117599048Y-95963390D01*
X117599048Y-95963390D02*
X117646667Y-95915771D01*
X117646667Y-95915771D02*
X117741905Y-95868152D01*
X117741905Y-95868152D02*
X117837143Y-95868152D01*
D14*
%TO.C,R2*%
X57960000Y-75320000D02*
X58730000Y-75320000D01*
X66040000Y-75320000D02*
X65270000Y-75320000D01*
X58730000Y-73950000D02*
X65270000Y-73950000D01*
X65270000Y-76690000D01*
X58730000Y-76690000D01*
X58730000Y-73950000D01*
%TO.C,C5*%
X73150000Y-63012288D02*
X73600000Y-63012288D01*
X73375000Y-63237288D02*
X73375000Y-62787288D01*
X73650000Y-62819741D02*
G75*
G02*
X73650000Y-58580259I1060001J2119741D01*
G01*
X75770000Y-58580259D02*
G75*
G02*
X75770000Y-62819741I-1060001J-2119741D01*
G01*
%TO.C,Q1*%
X99230000Y-59140000D02*
X99230000Y-55540000D01*
X94780000Y-57340000D02*
G75*
G02*
X99218478Y-55501522I2600000J0D01*
G01*
X99218478Y-59178478D02*
G75*
G02*
X94779999Y-57340000I-1838478J1838478D01*
G01*
%TO.C,C6*%
X104740000Y-56360000D02*
X109280000Y-56360000D01*
X104740000Y-56416000D02*
X104740000Y-56360000D01*
X109280000Y-58444000D02*
X109280000Y-58500000D01*
X109280000Y-58500000D02*
X104740000Y-58500000D01*
%TO.C,C12*%
X84840125Y-89155000D02*
X85340125Y-89155000D01*
X85090125Y-88905000D02*
X85090125Y-89405000D01*
X87644900Y-88050000D02*
X87644900Y-93210000D01*
X87684900Y-88050000D02*
X87684900Y-93210000D01*
X87724900Y-88051000D02*
X87724900Y-93209000D01*
X87764900Y-88053000D02*
X87764900Y-93207000D01*
X87804900Y-88055000D02*
X87804900Y-93205000D01*
X87844900Y-88058000D02*
X87844900Y-93202000D01*
X87884900Y-88061000D02*
X87884900Y-89590000D01*
X87884900Y-91670000D02*
X87884900Y-93199000D01*
X87924900Y-88065000D02*
X87924900Y-89590000D01*
X87924900Y-91670000D02*
X87924900Y-93195000D01*
X87964900Y-88070000D02*
X87964900Y-89590000D01*
X87964900Y-91670000D02*
X87964900Y-93190000D01*
X88004900Y-88075000D02*
X88004900Y-89590000D01*
X88004900Y-91670000D02*
X88004900Y-93185000D01*
X88044900Y-88081000D02*
X88044900Y-89590000D01*
X88044900Y-91670000D02*
X88044900Y-93179000D01*
X88084900Y-88087000D02*
X88084900Y-89590000D01*
X88084900Y-91670000D02*
X88084900Y-93173000D01*
X88124900Y-88094000D02*
X88124900Y-89590000D01*
X88124900Y-91670000D02*
X88124900Y-93166000D01*
X88164900Y-88102000D02*
X88164900Y-89590000D01*
X88164900Y-91670000D02*
X88164900Y-93158000D01*
X88204900Y-88111000D02*
X88204900Y-89590000D01*
X88204900Y-91670000D02*
X88204900Y-93149000D01*
X88244900Y-88120000D02*
X88244900Y-89590000D01*
X88244900Y-91670000D02*
X88244900Y-93140000D01*
X88284900Y-88129000D02*
X88284900Y-89590000D01*
X88284900Y-91670000D02*
X88284900Y-93131000D01*
X88324900Y-88140000D02*
X88324900Y-89590000D01*
X88324900Y-91670000D02*
X88324900Y-93120000D01*
X88364900Y-88151000D02*
X88364900Y-89590000D01*
X88364900Y-91670000D02*
X88364900Y-93109000D01*
X88404900Y-88163000D02*
X88404900Y-89590000D01*
X88404900Y-91670000D02*
X88404900Y-93097000D01*
X88444900Y-88175000D02*
X88444900Y-89590000D01*
X88444900Y-91670000D02*
X88444900Y-93085000D01*
X88484900Y-88188000D02*
X88484900Y-89590000D01*
X88484900Y-91670000D02*
X88484900Y-93072000D01*
X88524900Y-88202000D02*
X88524900Y-89590000D01*
X88524900Y-91670000D02*
X88524900Y-93058000D01*
X88564900Y-88217000D02*
X88564900Y-89590000D01*
X88564900Y-91670000D02*
X88564900Y-93043000D01*
X88604900Y-88232000D02*
X88604900Y-89590000D01*
X88604900Y-91670000D02*
X88604900Y-93028000D01*
X88644900Y-88248000D02*
X88644900Y-89590000D01*
X88644900Y-91670000D02*
X88644900Y-93012000D01*
X88684900Y-88265000D02*
X88684900Y-89590000D01*
X88684900Y-91670000D02*
X88684900Y-92995000D01*
X88724900Y-88283000D02*
X88724900Y-89590000D01*
X88724900Y-91670000D02*
X88724900Y-92977000D01*
X88764900Y-88301000D02*
X88764900Y-89590000D01*
X88764900Y-91670000D02*
X88764900Y-92959000D01*
X88804900Y-88321000D02*
X88804900Y-89590000D01*
X88804900Y-91670000D02*
X88804900Y-92939000D01*
X88844900Y-88341000D02*
X88844900Y-89590000D01*
X88844900Y-91670000D02*
X88844900Y-92919000D01*
X88884900Y-88362000D02*
X88884900Y-89590000D01*
X88884900Y-91670000D02*
X88884900Y-92898000D01*
X88924900Y-88384000D02*
X88924900Y-89590000D01*
X88924900Y-91670000D02*
X88924900Y-92876000D01*
X88964900Y-88407000D02*
X88964900Y-89590000D01*
X88964900Y-91670000D02*
X88964900Y-92853000D01*
X89004900Y-88431000D02*
X89004900Y-89590000D01*
X89004900Y-91670000D02*
X89004900Y-92829000D01*
X89044900Y-88455000D02*
X89044900Y-89590000D01*
X89044900Y-91670000D02*
X89044900Y-92805000D01*
X89084900Y-88481000D02*
X89084900Y-89590000D01*
X89084900Y-91670000D02*
X89084900Y-92779000D01*
X89124900Y-88508000D02*
X89124900Y-89590000D01*
X89124900Y-91670000D02*
X89124900Y-92752000D01*
X89164900Y-88536000D02*
X89164900Y-89590000D01*
X89164900Y-91670000D02*
X89164900Y-92724000D01*
X89204900Y-88565000D02*
X89204900Y-89590000D01*
X89204900Y-91670000D02*
X89204900Y-92695000D01*
X89244900Y-88595000D02*
X89244900Y-89590000D01*
X89244900Y-91670000D02*
X89244900Y-92665000D01*
X89284900Y-88627000D02*
X89284900Y-89590000D01*
X89284900Y-91670000D02*
X89284900Y-92633000D01*
X89324900Y-88660000D02*
X89324900Y-89590000D01*
X89324900Y-91670000D02*
X89324900Y-92600000D01*
X89364900Y-88694000D02*
X89364900Y-89590000D01*
X89364900Y-91670000D02*
X89364900Y-92566000D01*
X89404900Y-88729000D02*
X89404900Y-89590000D01*
X89404900Y-91670000D02*
X89404900Y-92531000D01*
X89444900Y-88766000D02*
X89444900Y-89590000D01*
X89444900Y-91670000D02*
X89444900Y-92494000D01*
X89484900Y-88805000D02*
X89484900Y-89590000D01*
X89484900Y-91670000D02*
X89484900Y-92455000D01*
X89524900Y-88845000D02*
X89524900Y-89590000D01*
X89524900Y-91670000D02*
X89524900Y-92415000D01*
X89564900Y-88887000D02*
X89564900Y-89590000D01*
X89564900Y-91670000D02*
X89564900Y-92373000D01*
X89604900Y-88931000D02*
X89604900Y-89590000D01*
X89604900Y-91670000D02*
X89604900Y-92329000D01*
X89644900Y-88978000D02*
X89644900Y-89590000D01*
X89644900Y-91670000D02*
X89644900Y-92282000D01*
X89684900Y-89026000D02*
X89684900Y-89590000D01*
X89684900Y-91670000D02*
X89684900Y-92234000D01*
X89724900Y-89077000D02*
X89724900Y-89590000D01*
X89724900Y-91670000D02*
X89724900Y-92183000D01*
X89764900Y-89131000D02*
X89764900Y-89590000D01*
X89764900Y-91670000D02*
X89764900Y-92129000D01*
X89804900Y-89187000D02*
X89804900Y-89590000D01*
X89804900Y-91670000D02*
X89804900Y-92073000D01*
X89844900Y-89247000D02*
X89844900Y-89590000D01*
X89844900Y-91670000D02*
X89844900Y-92013000D01*
X89884900Y-89311000D02*
X89884900Y-89590000D01*
X89884900Y-91670000D02*
X89884900Y-91949000D01*
X89924900Y-89379000D02*
X89924900Y-89590000D01*
X89924900Y-91670000D02*
X89924900Y-91881000D01*
X89964900Y-89453000D02*
X89964900Y-91807000D01*
X90004900Y-89532000D02*
X90004900Y-91728000D01*
X90044900Y-89619000D02*
X90044900Y-91641000D01*
X90084900Y-89716000D02*
X90084900Y-91544000D01*
X90124900Y-89825000D02*
X90124900Y-91435000D01*
X90164900Y-89953000D02*
X90164900Y-91307000D01*
X90204900Y-90113000D02*
X90204900Y-91147000D01*
X90244900Y-90347000D02*
X90244900Y-90913000D01*
X90264900Y-90630000D02*
G75*
G02*
X85024900Y-90630000I-2620000J0D01*
G01*
X85024900Y-90630000D02*
G75*
G02*
X90264900Y-90630000I2620000J0D01*
G01*
%TO.C,R7*%
X110380000Y-63540000D02*
X111150000Y-63540000D01*
X118460000Y-63540000D02*
X117690000Y-63540000D01*
X117690000Y-64910000D02*
X111150000Y-64910000D01*
X111150000Y-62170000D01*
X117690000Y-62170000D01*
X117690000Y-64910000D01*
%TO.C,R9*%
X72500000Y-95610000D02*
X72500000Y-96380000D01*
X72500000Y-103690000D02*
X72500000Y-102920000D01*
X71130000Y-102920000D02*
X73870000Y-102920000D01*
X73870000Y-96380000D01*
X71130000Y-96380000D01*
X71130000Y-102920000D01*
%TO.C,R4*%
X51980000Y-91040000D02*
X52750000Y-91040000D01*
X60060000Y-91040000D02*
X59290000Y-91040000D01*
X59290000Y-92410000D02*
X52750000Y-92410000D01*
X52750000Y-89670000D01*
X59290000Y-89670000D01*
X59290000Y-92410000D01*
%TO.C,C8*%
X79330000Y-99660000D02*
X77801000Y-99660000D01*
X79330000Y-99700000D02*
X77805000Y-99700000D01*
X79330000Y-99740000D02*
X77810000Y-99740000D01*
X79330000Y-99780000D02*
X77815000Y-99780000D01*
X79330000Y-99820000D02*
X77821000Y-99820000D01*
X79330000Y-99860000D02*
X77827000Y-99860000D01*
X79330000Y-99900000D02*
X77834000Y-99900000D01*
X79330000Y-99940000D02*
X77842000Y-99940000D01*
X79330000Y-99980000D02*
X77851000Y-99980000D01*
X79330000Y-100020000D02*
X77860000Y-100020000D01*
X79330000Y-100060000D02*
X77869000Y-100060000D01*
X79330000Y-100100000D02*
X77880000Y-100100000D01*
X79330000Y-100140000D02*
X77891000Y-100140000D01*
X79330000Y-100180000D02*
X77903000Y-100180000D01*
X79330000Y-100220000D02*
X77915000Y-100220000D01*
X79330000Y-100260000D02*
X77928000Y-100260000D01*
X79330000Y-100300000D02*
X77942000Y-100300000D01*
X79330000Y-100340000D02*
X77957000Y-100340000D01*
X79330000Y-100380000D02*
X77972000Y-100380000D01*
X79330000Y-100420000D02*
X77988000Y-100420000D01*
X79330000Y-100460000D02*
X78005000Y-100460000D01*
X79330000Y-100500000D02*
X78023000Y-100500000D01*
X79330000Y-100540000D02*
X78041000Y-100540000D01*
X79330000Y-100580000D02*
X78061000Y-100580000D01*
X79330000Y-100620000D02*
X78081000Y-100620000D01*
X79330000Y-100660000D02*
X78102000Y-100660000D01*
X79330000Y-100700000D02*
X78124000Y-100700000D01*
X79330000Y-100740000D02*
X78147000Y-100740000D01*
X79330000Y-100780000D02*
X78171000Y-100780000D01*
X79330000Y-100820000D02*
X78195000Y-100820000D01*
X79330000Y-100860000D02*
X78221000Y-100860000D01*
X79330000Y-100900000D02*
X78248000Y-100900000D01*
X79330000Y-100940000D02*
X78276000Y-100940000D01*
X79330000Y-100980000D02*
X78305000Y-100980000D01*
X79330000Y-101020000D02*
X78335000Y-101020000D01*
X79330000Y-101060000D02*
X78367000Y-101060000D01*
X79330000Y-101100000D02*
X78400000Y-101100000D01*
X79330000Y-101140000D02*
X78434000Y-101140000D01*
X79330000Y-101180000D02*
X78469000Y-101180000D01*
X79330000Y-101220000D02*
X78506000Y-101220000D01*
X79330000Y-101260000D02*
X78545000Y-101260000D01*
X79330000Y-101300000D02*
X78585000Y-101300000D01*
X79330000Y-101340000D02*
X78627000Y-101340000D01*
X79330000Y-101380000D02*
X78671000Y-101380000D01*
X79330000Y-101420000D02*
X78718000Y-101420000D01*
X79330000Y-101460000D02*
X78766000Y-101460000D01*
X79330000Y-101500000D02*
X78817000Y-101500000D01*
X79330000Y-101540000D02*
X78871000Y-101540000D01*
X79330000Y-101580000D02*
X78927000Y-101580000D01*
X79330000Y-101620000D02*
X78987000Y-101620000D01*
X79330000Y-101660000D02*
X79051000Y-101660000D01*
X79330000Y-101700000D02*
X79119000Y-101700000D01*
X80653000Y-102020000D02*
X80087000Y-102020000D01*
X80887000Y-101980000D02*
X79853000Y-101980000D01*
X81047000Y-101940000D02*
X79693000Y-101940000D01*
X81175000Y-101900000D02*
X79565000Y-101900000D01*
X81284000Y-101860000D02*
X79456000Y-101860000D01*
X81381000Y-101820000D02*
X79359000Y-101820000D01*
X81468000Y-101780000D02*
X79272000Y-101780000D01*
X81547000Y-101740000D02*
X79193000Y-101740000D01*
X81621000Y-101700000D02*
X81410000Y-101700000D01*
X81689000Y-101660000D02*
X81410000Y-101660000D01*
X81753000Y-101620000D02*
X81410000Y-101620000D01*
X81813000Y-101580000D02*
X81410000Y-101580000D01*
X81845000Y-96615225D02*
X81845000Y-97115225D01*
X81869000Y-101540000D02*
X81410000Y-101540000D01*
X81923000Y-101500000D02*
X81410000Y-101500000D01*
X81974000Y-101460000D02*
X81410000Y-101460000D01*
X82022000Y-101420000D02*
X81410000Y-101420000D01*
X82069000Y-101380000D02*
X81410000Y-101380000D01*
X82095000Y-96865225D02*
X81595000Y-96865225D01*
X82113000Y-101340000D02*
X81410000Y-101340000D01*
X82155000Y-101300000D02*
X81410000Y-101300000D01*
X82195000Y-101260000D02*
X81410000Y-101260000D01*
X82234000Y-101220000D02*
X81410000Y-101220000D01*
X82271000Y-101180000D02*
X81410000Y-101180000D01*
X82306000Y-101140000D02*
X81410000Y-101140000D01*
X82340000Y-101100000D02*
X81410000Y-101100000D01*
X82373000Y-101060000D02*
X81410000Y-101060000D01*
X82405000Y-101020000D02*
X81410000Y-101020000D01*
X82435000Y-100980000D02*
X81410000Y-100980000D01*
X82464000Y-100940000D02*
X81410000Y-100940000D01*
X82492000Y-100900000D02*
X81410000Y-100900000D01*
X82519000Y-100860000D02*
X81410000Y-100860000D01*
X82545000Y-100820000D02*
X81410000Y-100820000D01*
X82569000Y-100780000D02*
X81410000Y-100780000D01*
X82593000Y-100740000D02*
X81410000Y-100740000D01*
X82616000Y-100700000D02*
X81410000Y-100700000D01*
X82638000Y-100660000D02*
X81410000Y-100660000D01*
X82659000Y-100620000D02*
X81410000Y-100620000D01*
X82679000Y-100580000D02*
X81410000Y-100580000D01*
X82699000Y-100540000D02*
X81410000Y-100540000D01*
X82717000Y-100500000D02*
X81410000Y-100500000D01*
X82735000Y-100460000D02*
X81410000Y-100460000D01*
X82752000Y-100420000D02*
X81410000Y-100420000D01*
X82768000Y-100380000D02*
X81410000Y-100380000D01*
X82783000Y-100340000D02*
X81410000Y-100340000D01*
X82798000Y-100300000D02*
X81410000Y-100300000D01*
X82812000Y-100260000D02*
X81410000Y-100260000D01*
X82825000Y-100220000D02*
X81410000Y-100220000D01*
X82837000Y-100180000D02*
X81410000Y-100180000D01*
X82849000Y-100140000D02*
X81410000Y-100140000D01*
X82860000Y-100100000D02*
X81410000Y-100100000D01*
X82871000Y-100060000D02*
X81410000Y-100060000D01*
X82880000Y-100020000D02*
X81410000Y-100020000D01*
X82889000Y-99980000D02*
X81410000Y-99980000D01*
X82898000Y-99940000D02*
X81410000Y-99940000D01*
X82906000Y-99900000D02*
X81410000Y-99900000D01*
X82913000Y-99860000D02*
X81410000Y-99860000D01*
X82919000Y-99820000D02*
X81410000Y-99820000D01*
X82925000Y-99780000D02*
X81410000Y-99780000D01*
X82930000Y-99740000D02*
X81410000Y-99740000D01*
X82935000Y-99700000D02*
X81410000Y-99700000D01*
X82939000Y-99660000D02*
X81410000Y-99660000D01*
X82942000Y-99620000D02*
X77798000Y-99620000D01*
X82945000Y-99580000D02*
X77795000Y-99580000D01*
X82947000Y-99540000D02*
X77793000Y-99540000D01*
X82949000Y-99500000D02*
X77791000Y-99500000D01*
X82950000Y-99420000D02*
X77790000Y-99420000D01*
X82950000Y-99460000D02*
X77790000Y-99460000D01*
X82990000Y-99420000D02*
G75*
G02*
X77750000Y-99420000I-2620000J0D01*
G01*
X77750000Y-99420000D02*
G75*
G02*
X82990000Y-99420000I2620000J0D01*
G01*
%TO.C,Volume*%
X109265000Y-83050000D02*
X110535000Y-83050000D01*
X109265000Y-84320000D02*
X109265000Y-83050000D01*
X111612358Y-86430000D02*
X111925000Y-86430000D01*
X111612358Y-87290000D02*
X111925000Y-87290000D01*
X111612358Y-88970000D02*
X111925000Y-88970000D01*
X111612358Y-89830000D02*
X111925000Y-89830000D01*
X111695000Y-83890000D02*
X111925000Y-83890000D01*
X111695000Y-84750000D02*
X111925000Y-84750000D01*
X111925000Y-82940000D02*
X111925000Y-90780000D01*
X111925000Y-85590000D02*
X114685000Y-85590000D01*
X111925000Y-88130000D02*
X114685000Y-88130000D01*
X111925000Y-90780000D02*
X114685000Y-90780000D01*
X114685000Y-82940000D02*
X111925000Y-82940000D01*
X114685000Y-86430000D02*
X120685000Y-86430000D01*
X114685000Y-88970000D02*
X120685000Y-88970000D01*
X114685000Y-90780000D02*
X114685000Y-82940000D01*
X120685000Y-86430000D02*
X120685000Y-87290000D01*
X120685000Y-87290000D02*
X114685000Y-87290000D01*
X120685000Y-88970000D02*
X120685000Y-89830000D01*
X120685000Y-89830000D02*
X114685000Y-89830000D01*
X114685000Y-83890000D02*
X120685000Y-83890000D01*
X120685000Y-84750000D01*
X114685000Y-84750000D01*
X114685000Y-83890000D01*
G36*
X114685000Y-83890000D02*
G01*
X120685000Y-83890000D01*
X120685000Y-84750000D01*
X114685000Y-84750000D01*
X114685000Y-83890000D01*
G37*
%TO.C,74LS00*%
X50170000Y-80160000D02*
X50170000Y-81810000D01*
X50170000Y-83810000D02*
X50170000Y-85460000D01*
X50170000Y-85460000D02*
X68070000Y-85460000D01*
X68070000Y-80160000D02*
X50170000Y-80160000D01*
X68070000Y-85460000D02*
X68070000Y-80160000D01*
X50170000Y-81810000D02*
G75*
G02*
X50170000Y-83810000I0J-1000000D01*
G01*
%TO.C,R3*%
X58070000Y-70140000D02*
X58840000Y-70140000D01*
X66150000Y-70140000D02*
X65380000Y-70140000D01*
X58840000Y-68770000D02*
X65380000Y-68770000D01*
X65380000Y-71510000D01*
X58840000Y-71510000D01*
X58840000Y-68770000D01*
%TO.C,R6*%
X96790000Y-63640000D02*
X97560000Y-63640000D01*
X104870000Y-63640000D02*
X104100000Y-63640000D01*
X104100000Y-65010000D02*
X97560000Y-65010000D01*
X97560000Y-62270000D01*
X104100000Y-62270000D01*
X104100000Y-65010000D01*
%TO.C,C2*%
X51510000Y-74820000D02*
X51510000Y-70280000D01*
X51566000Y-74820000D02*
X51510000Y-74820000D01*
X53594000Y-70280000D02*
X53650000Y-70280000D01*
X53650000Y-70280000D02*
X53650000Y-74820000D01*
%TO.C,74LS32*%
X49950000Y-96520000D02*
X49950000Y-98170000D01*
X49950000Y-100170000D02*
X49950000Y-101820000D01*
X49950000Y-101820000D02*
X67850000Y-101820000D01*
X67850000Y-96520000D02*
X49950000Y-96520000D01*
X67850000Y-101820000D02*
X67850000Y-96520000D01*
X49950000Y-98170000D02*
G75*
G02*
X49950000Y-100170000I0J-1000000D01*
G01*
%TO.C,R5*%
X82730000Y-63540000D02*
X83500000Y-63540000D01*
X90810000Y-63540000D02*
X90040000Y-63540000D01*
X83500000Y-62170000D02*
X90040000Y-62170000D01*
X90040000Y-64910000D01*
X83500000Y-64910000D01*
X83500000Y-62170000D01*
%TO.C,C10*%
X100070000Y-92200000D02*
X107310000Y-92200000D01*
X100070000Y-94940000D02*
X100070000Y-92200000D01*
X107310000Y-92200000D02*
X107310000Y-94940000D01*
X107310000Y-94940000D02*
X100070000Y-94940000D01*
%TO.C,C9*%
X100110000Y-96460000D02*
X107350000Y-96460000D01*
X100110000Y-99200000D02*
X100110000Y-96460000D01*
X107350000Y-96460000D02*
X107350000Y-99200000D01*
X107350000Y-99200000D02*
X100110000Y-99200000D01*
%TO.C,C13*%
X46120000Y-83805000D02*
X46120000Y-82275000D01*
X47960000Y-82275000D02*
X47960000Y-83805000D01*
%TO.C,C15*%
X112700000Y-56060000D02*
X119940000Y-56060000D01*
X112700000Y-58800000D02*
X112700000Y-56060000D01*
X119940000Y-56060000D02*
X119940000Y-58800000D01*
X119940000Y-58800000D02*
X112700000Y-58800000D01*
%TO.C,C4*%
X82840000Y-55810000D02*
X90080000Y-55810000D01*
X82840000Y-58550000D02*
X82840000Y-55810000D01*
X90080000Y-55810000D02*
X90080000Y-58550000D01*
X90080000Y-58550000D02*
X82840000Y-58550000D01*
%TO.C,C1*%
X66010000Y-63220000D02*
X66010000Y-58680000D01*
X66066000Y-63220000D02*
X66010000Y-63220000D01*
X68094000Y-58680000D02*
X68150000Y-58680000D01*
X68150000Y-58680000D02*
X68150000Y-63220000D01*
%TO.C,U3*%
X86900000Y-96710000D02*
X86900000Y-98360000D01*
X86900000Y-100360000D02*
X86900000Y-102010000D01*
X86900000Y-102010000D02*
X97180000Y-102010000D01*
X97180000Y-96710000D02*
X86900000Y-96710000D01*
X97180000Y-102010000D02*
X97180000Y-96710000D01*
X86900000Y-98360000D02*
G75*
G02*
X86900000Y-100360000I0J-1000000D01*
G01*
%TO.C,C7*%
X112222712Y-72005000D02*
X112672712Y-72005000D01*
X112447712Y-71780000D02*
X112447712Y-72230000D01*
X112640259Y-72280000D02*
G75*
G02*
X116879741Y-72280000I2119741J-1060001D01*
G01*
X116879741Y-74400000D02*
G75*
G02*
X112640259Y-74400000I-2119741J1060001D01*
G01*
%TO.C,C3*%
X63130000Y-89340000D02*
X70370000Y-89340000D01*
X63130000Y-92080000D02*
X63130000Y-89340000D01*
X70370000Y-89340000D02*
X70370000Y-92080000D01*
X70370000Y-92080000D02*
X63130000Y-92080000D01*
%TO.C,Pitch*%
X55350000Y-65867000D02*
G75*
G02*
X53376999Y-56933999I1550805J5026906D01*
G01*
X55646000Y-55732000D02*
G75*
G02*
X57861000Y-55668000I1255960J-5106140D01*
G01*
X60269000Y-56800000D02*
G75*
G02*
X58146000Y-65950000I-3368761J-4039665D01*
G01*
%TO.C,C14*%
X46120000Y-99885000D02*
X46120000Y-98355000D01*
X47960000Y-98355000D02*
X47960000Y-99885000D01*
%TO.C,C11*%
X92620125Y-89115000D02*
X93120125Y-89115000D01*
X92870125Y-88865000D02*
X92870125Y-89365000D01*
X95424900Y-88010000D02*
X95424900Y-93170000D01*
X95464900Y-88010000D02*
X95464900Y-93170000D01*
X95504900Y-88011000D02*
X95504900Y-93169000D01*
X95544900Y-88013000D02*
X95544900Y-93167000D01*
X95584900Y-88015000D02*
X95584900Y-93165000D01*
X95624900Y-88018000D02*
X95624900Y-93162000D01*
X95664900Y-88021000D02*
X95664900Y-89550000D01*
X95664900Y-91630000D02*
X95664900Y-93159000D01*
X95704900Y-88025000D02*
X95704900Y-89550000D01*
X95704900Y-91630000D02*
X95704900Y-93155000D01*
X95744900Y-88030000D02*
X95744900Y-89550000D01*
X95744900Y-91630000D02*
X95744900Y-93150000D01*
X95784900Y-88035000D02*
X95784900Y-89550000D01*
X95784900Y-91630000D02*
X95784900Y-93145000D01*
X95824900Y-88041000D02*
X95824900Y-89550000D01*
X95824900Y-91630000D02*
X95824900Y-93139000D01*
X95864900Y-88047000D02*
X95864900Y-89550000D01*
X95864900Y-91630000D02*
X95864900Y-93133000D01*
X95904900Y-88054000D02*
X95904900Y-89550000D01*
X95904900Y-91630000D02*
X95904900Y-93126000D01*
X95944900Y-88062000D02*
X95944900Y-89550000D01*
X95944900Y-91630000D02*
X95944900Y-93118000D01*
X95984900Y-88071000D02*
X95984900Y-89550000D01*
X95984900Y-91630000D02*
X95984900Y-93109000D01*
X96024900Y-88080000D02*
X96024900Y-89550000D01*
X96024900Y-91630000D02*
X96024900Y-93100000D01*
X96064900Y-88089000D02*
X96064900Y-89550000D01*
X96064900Y-91630000D02*
X96064900Y-93091000D01*
X96104900Y-88100000D02*
X96104900Y-89550000D01*
X96104900Y-91630000D02*
X96104900Y-93080000D01*
X96144900Y-88111000D02*
X96144900Y-89550000D01*
X96144900Y-91630000D02*
X96144900Y-93069000D01*
X96184900Y-88123000D02*
X96184900Y-89550000D01*
X96184900Y-91630000D02*
X96184900Y-93057000D01*
X96224900Y-88135000D02*
X96224900Y-89550000D01*
X96224900Y-91630000D02*
X96224900Y-93045000D01*
X96264900Y-88148000D02*
X96264900Y-89550000D01*
X96264900Y-91630000D02*
X96264900Y-93032000D01*
X96304900Y-88162000D02*
X96304900Y-89550000D01*
X96304900Y-91630000D02*
X96304900Y-93018000D01*
X96344900Y-88177000D02*
X96344900Y-89550000D01*
X96344900Y-91630000D02*
X96344900Y-93003000D01*
X96384900Y-88192000D02*
X96384900Y-89550000D01*
X96384900Y-91630000D02*
X96384900Y-92988000D01*
X96424900Y-88208000D02*
X96424900Y-89550000D01*
X96424900Y-91630000D02*
X96424900Y-92972000D01*
X96464900Y-88225000D02*
X96464900Y-89550000D01*
X96464900Y-91630000D02*
X96464900Y-92955000D01*
X96504900Y-88243000D02*
X96504900Y-89550000D01*
X96504900Y-91630000D02*
X96504900Y-92937000D01*
X96544900Y-88261000D02*
X96544900Y-89550000D01*
X96544900Y-91630000D02*
X96544900Y-92919000D01*
X96584900Y-88281000D02*
X96584900Y-89550000D01*
X96584900Y-91630000D02*
X96584900Y-92899000D01*
X96624900Y-88301000D02*
X96624900Y-89550000D01*
X96624900Y-91630000D02*
X96624900Y-92879000D01*
X96664900Y-88322000D02*
X96664900Y-89550000D01*
X96664900Y-91630000D02*
X96664900Y-92858000D01*
X96704900Y-88344000D02*
X96704900Y-89550000D01*
X96704900Y-91630000D02*
X96704900Y-92836000D01*
X96744900Y-88367000D02*
X96744900Y-89550000D01*
X96744900Y-91630000D02*
X96744900Y-92813000D01*
X96784900Y-88391000D02*
X96784900Y-89550000D01*
X96784900Y-91630000D02*
X96784900Y-92789000D01*
X96824900Y-88415000D02*
X96824900Y-89550000D01*
X96824900Y-91630000D02*
X96824900Y-92765000D01*
X96864900Y-88441000D02*
X96864900Y-89550000D01*
X96864900Y-91630000D02*
X96864900Y-92739000D01*
X96904900Y-88468000D02*
X96904900Y-89550000D01*
X96904900Y-91630000D02*
X96904900Y-92712000D01*
X96944900Y-88496000D02*
X96944900Y-89550000D01*
X96944900Y-91630000D02*
X96944900Y-92684000D01*
X96984900Y-88525000D02*
X96984900Y-89550000D01*
X96984900Y-91630000D02*
X96984900Y-92655000D01*
X97024900Y-88555000D02*
X97024900Y-89550000D01*
X97024900Y-91630000D02*
X97024900Y-92625000D01*
X97064900Y-88587000D02*
X97064900Y-89550000D01*
X97064900Y-91630000D02*
X97064900Y-92593000D01*
X97104900Y-88620000D02*
X97104900Y-89550000D01*
X97104900Y-91630000D02*
X97104900Y-92560000D01*
X97144900Y-88654000D02*
X97144900Y-89550000D01*
X97144900Y-91630000D02*
X97144900Y-92526000D01*
X97184900Y-88689000D02*
X97184900Y-89550000D01*
X97184900Y-91630000D02*
X97184900Y-92491000D01*
X97224900Y-88726000D02*
X97224900Y-89550000D01*
X97224900Y-91630000D02*
X97224900Y-92454000D01*
X97264900Y-88765000D02*
X97264900Y-89550000D01*
X97264900Y-91630000D02*
X97264900Y-92415000D01*
X97304900Y-88805000D02*
X97304900Y-89550000D01*
X97304900Y-91630000D02*
X97304900Y-92375000D01*
X97344900Y-88847000D02*
X97344900Y-89550000D01*
X97344900Y-91630000D02*
X97344900Y-92333000D01*
X97384900Y-88891000D02*
X97384900Y-89550000D01*
X97384900Y-91630000D02*
X97384900Y-92289000D01*
X97424900Y-88938000D02*
X97424900Y-89550000D01*
X97424900Y-91630000D02*
X97424900Y-92242000D01*
X97464900Y-88986000D02*
X97464900Y-89550000D01*
X97464900Y-91630000D02*
X97464900Y-92194000D01*
X97504900Y-89037000D02*
X97504900Y-89550000D01*
X97504900Y-91630000D02*
X97504900Y-92143000D01*
X97544900Y-89091000D02*
X97544900Y-89550000D01*
X97544900Y-91630000D02*
X97544900Y-92089000D01*
X97584900Y-89147000D02*
X97584900Y-89550000D01*
X97584900Y-91630000D02*
X97584900Y-92033000D01*
X97624900Y-89207000D02*
X97624900Y-89550000D01*
X97624900Y-91630000D02*
X97624900Y-91973000D01*
X97664900Y-89271000D02*
X97664900Y-89550000D01*
X97664900Y-91630000D02*
X97664900Y-91909000D01*
X97704900Y-89339000D02*
X97704900Y-89550000D01*
X97704900Y-91630000D02*
X97704900Y-91841000D01*
X97744900Y-89413000D02*
X97744900Y-91767000D01*
X97784900Y-89492000D02*
X97784900Y-91688000D01*
X97824900Y-89579000D02*
X97824900Y-91601000D01*
X97864900Y-89676000D02*
X97864900Y-91504000D01*
X97904900Y-89785000D02*
X97904900Y-91395000D01*
X97944900Y-89913000D02*
X97944900Y-91267000D01*
X97984900Y-90073000D02*
X97984900Y-91107000D01*
X98024900Y-90307000D02*
X98024900Y-90873000D01*
X98044900Y-90590000D02*
G75*
G02*
X92804900Y-90590000I-2620000J0D01*
G01*
X92804900Y-90590000D02*
G75*
G02*
X98044900Y-90590000I2620000J0D01*
G01*
%TO.C,R10*%
X73880000Y-90710000D02*
X74650000Y-90710000D01*
X81960000Y-90710000D02*
X81190000Y-90710000D01*
X81190000Y-92080000D02*
X74650000Y-92080000D01*
X74650000Y-89340000D01*
X81190000Y-89340000D01*
X81190000Y-92080000D01*
%TO.C,SP0256-AL2*%
X70910000Y-70460000D02*
X70910000Y-75920000D01*
X70910000Y-77920000D02*
X70910000Y-83380000D01*
X70910000Y-83380000D02*
X106590000Y-83380000D01*
X106590000Y-70460000D02*
X70910000Y-70460000D01*
X106590000Y-83380000D02*
X106590000Y-70460000D01*
X70850000Y-85870000D02*
X106650000Y-85870000D01*
X106650000Y-67970000D01*
X70850000Y-67970000D01*
X70850000Y-85870000D01*
X70910000Y-75920000D02*
G75*
G02*
X70910000Y-77920000I0J-1000000D01*
G01*
%TO.C,Speaker*%
X109305000Y-97385000D02*
X110575000Y-97385000D01*
X109305000Y-98655000D02*
X109305000Y-97385000D01*
X111652358Y-100765000D02*
X111965000Y-100765000D01*
X111652358Y-101625000D02*
X111965000Y-101625000D01*
X111735000Y-98225000D02*
X111965000Y-98225000D01*
X111735000Y-99085000D02*
X111965000Y-99085000D01*
X111965000Y-97275000D02*
X111965000Y-102575000D01*
X111965000Y-99925000D02*
X114725000Y-99925000D01*
X111965000Y-102575000D02*
X114725000Y-102575000D01*
X114725000Y-97275000D02*
X111965000Y-97275000D01*
X114725000Y-100765000D02*
X120725000Y-100765000D01*
X114725000Y-102575000D02*
X114725000Y-97275000D01*
X120725000Y-100765000D02*
X120725000Y-101625000D01*
X120725000Y-101625000D02*
X114725000Y-101625000D01*
X114725000Y-98225000D02*
X120725000Y-98225000D01*
X120725000Y-99085000D01*
X114725000Y-99085000D01*
X114725000Y-98225000D01*
G36*
X114725000Y-98225000D02*
G01*
X120725000Y-98225000D01*
X120725000Y-99085000D01*
X114725000Y-99085000D01*
X114725000Y-98225000D01*
G37*
%TD*%
M02*
