%TF.GenerationSoftware,KiCad,Pcbnew,9.0.6*%
%TF.CreationDate,2026-03-08T19:41:31+01:00*%
%TF.ProjectId,zx-talker,7a782d74-616c-46b6-9572-2e6b69636164,rev?*%
%TF.SameCoordinates,Original*%
%TF.FileFunction,Soldermask,Bot*%
%TF.FilePolarity,Negative*%
%FSLAX46Y46*%
G04 Gerber Fmt 4.6, Leading zero omitted, Abs format (unit mm)*
G04 Created by KiCad (PCBNEW 9.0.6) date 2026-03-08 19:41:31*
%MOMM*%
%LPD*%
G01*
G04 APERTURE LIST*
G04 Aperture macros list*
%AMRoundRect*
0 Rectangle with rounded corners*
0 $1 Rounding radius*
0 $2 $3 $4 $5 $6 $7 $8 $9 X,Y pos of 4 corners*
0 Add a 4 corners polygon primitive as box body*
4,1,4,$2,$3,$4,$5,$6,$7,$8,$9,$2,$3,0*
0 Add four circle primitives for the rounded corners*
1,1,$1+$1,$2,$3*
1,1,$1+$1,$4,$5*
1,1,$1+$1,$6,$7*
1,1,$1+$1,$8,$9*
0 Add four rect primitives between the rounded corners*
20,1,$1+$1,$2,$3,$4,$5,0*
20,1,$1+$1,$4,$5,$6,$7,0*
20,1,$1+$1,$6,$7,$8,$9,0*
20,1,$1+$1,$8,$9,$2,$3,0*%
G04 Aperture macros list end*
%ADD10C,1.600000*%
%ADD11RoundRect,0.250000X0.550000X-0.550000X0.550000X0.550000X-0.550000X0.550000X-0.550000X-0.550000X0*%
%ADD12R,1.500000X1.050000*%
%ADD13O,1.500000X1.050000*%
%ADD14RoundRect,0.250000X-0.550000X-0.550000X0.550000X-0.550000X0.550000X0.550000X-0.550000X0.550000X0*%
%ADD15RoundRect,0.250000X-0.550000X0.550000X-0.550000X-0.550000X0.550000X-0.550000X0.550000X0.550000X0*%
%ADD16R,1.700000X1.700000*%
%ADD17C,1.700000*%
%ADD18R,1.778000X7.620000*%
%ADD19C,2.340000*%
G04 APERTURE END LIST*
D10*
%TO.C,R2*%
X56920000Y-75320000D03*
X67080000Y-75320000D03*
%TD*%
D11*
%TO.C,C5*%
X74710000Y-63200000D03*
D10*
X74710000Y-58200000D03*
%TD*%
D12*
%TO.C,Q1*%
X97380000Y-58610000D03*
D13*
X97380000Y-57340000D03*
X97380000Y-56070000D03*
%TD*%
D10*
%TO.C,C6*%
X109510000Y-57430000D03*
X104510000Y-57430000D03*
%TD*%
D14*
%TO.C,C12*%
X86394900Y-90630000D03*
D10*
X88894900Y-90630000D03*
%TD*%
%TO.C,R7*%
X119500000Y-63540000D03*
X109340000Y-63540000D03*
%TD*%
%TO.C,R9*%
X72500000Y-104730000D03*
X72500000Y-94570000D03*
%TD*%
%TO.C,R4*%
X61100000Y-91040000D03*
X50940000Y-91040000D03*
%TD*%
D15*
%TO.C,C8*%
X80370000Y-98170000D03*
D10*
X80370000Y-100670000D03*
%TD*%
D16*
%TO.C,Volume*%
X110535000Y-84320000D03*
D17*
X110535000Y-86860000D03*
X110535000Y-89400000D03*
%TD*%
D11*
%TO.C,74LS00*%
X51500000Y-86620000D03*
D10*
X54040000Y-86620000D03*
X56580000Y-86620000D03*
X59120000Y-86620000D03*
X61660000Y-86620000D03*
X64200000Y-86620000D03*
X66740000Y-86620000D03*
X66740000Y-79000000D03*
X64200000Y-79000000D03*
X61660000Y-79000000D03*
X59120000Y-79000000D03*
X56580000Y-79000000D03*
X54040000Y-79000000D03*
X51500000Y-79000000D03*
%TD*%
%TO.C,R3*%
X57030000Y-70140000D03*
X67190000Y-70140000D03*
%TD*%
%TO.C,R6*%
X105910000Y-63640000D03*
X95750000Y-63640000D03*
%TD*%
%TO.C,C2*%
X52580000Y-75050000D03*
X52580000Y-70050000D03*
%TD*%
D11*
%TO.C,74LS32*%
X51280000Y-102980000D03*
D10*
X53820000Y-102980000D03*
X56360000Y-102980000D03*
X58900000Y-102980000D03*
X61440000Y-102980000D03*
X63980000Y-102980000D03*
X66520000Y-102980000D03*
X66520000Y-95360000D03*
X63980000Y-95360000D03*
X61440000Y-95360000D03*
X58900000Y-95360000D03*
X56360000Y-95360000D03*
X53820000Y-95360000D03*
X51280000Y-95360000D03*
%TD*%
%TO.C,R5*%
X81690000Y-63540000D03*
X91850000Y-63540000D03*
%TD*%
%TO.C,C10*%
X101190000Y-93570000D03*
X106190000Y-93570000D03*
%TD*%
%TO.C,C9*%
X101230000Y-97830000D03*
X106230000Y-97830000D03*
%TD*%
D18*
%TO.C,J1*%
X50040000Y-115050000D03*
X52580000Y-115050000D03*
X55120000Y-115050000D03*
X57660000Y-115050000D03*
X62740000Y-115050000D03*
X65280000Y-115050000D03*
X67820000Y-115050000D03*
X70360000Y-115050000D03*
X72900000Y-115050000D03*
X75440000Y-115050000D03*
X77980000Y-115050000D03*
X80520000Y-115050000D03*
X83060000Y-115050000D03*
X85600000Y-115050000D03*
X88140000Y-115050000D03*
X90680000Y-115050000D03*
X93220000Y-115050000D03*
X95760000Y-115050000D03*
X98300000Y-115050000D03*
X100840000Y-115050000D03*
X103380000Y-115050000D03*
X105920000Y-115050000D03*
X108460000Y-115050000D03*
X111000000Y-115050000D03*
X113540000Y-115050000D03*
X116080000Y-115050000D03*
X118620000Y-115050000D03*
%TD*%
D10*
%TO.C,C13*%
X47040000Y-81790000D03*
X47040000Y-84290000D03*
%TD*%
%TO.C,C15*%
X113820000Y-57430000D03*
X118820000Y-57430000D03*
%TD*%
%TO.C,C4*%
X83960000Y-57180000D03*
X88960000Y-57180000D03*
%TD*%
%TO.C,C1*%
X67080000Y-63450000D03*
X67080000Y-58450000D03*
%TD*%
D11*
%TO.C,U3*%
X88230000Y-103170000D03*
D10*
X90770000Y-103170000D03*
X93310000Y-103170000D03*
X95850000Y-103170000D03*
X95850000Y-95550000D03*
X93310000Y-95550000D03*
X90770000Y-95550000D03*
X88230000Y-95550000D03*
%TD*%
D14*
%TO.C,C7*%
X112260000Y-73340000D03*
D10*
X117260000Y-73340000D03*
%TD*%
%TO.C,C3*%
X69250000Y-90710000D03*
X64250000Y-90710000D03*
%TD*%
D19*
%TO.C,Pitch*%
X54250000Y-55840000D03*
X56750000Y-65840000D03*
X59250000Y-55840000D03*
%TD*%
D10*
%TO.C,C14*%
X47040000Y-97870000D03*
X47040000Y-100370000D03*
%TD*%
D14*
%TO.C,C11*%
X94174900Y-90590000D03*
D10*
X96674900Y-90590000D03*
%TD*%
%TO.C,R10*%
X83000000Y-90710000D03*
X72840000Y-90710000D03*
%TD*%
D11*
%TO.C,SP0256-AL2*%
X72240000Y-84540000D03*
D10*
X74780000Y-84540000D03*
X77320000Y-84540000D03*
X79860000Y-84540000D03*
X82400000Y-84540000D03*
X84940000Y-84540000D03*
X87480000Y-84540000D03*
X90020000Y-84540000D03*
X92560000Y-84540000D03*
X95100000Y-84540000D03*
X97640000Y-84540000D03*
X100180000Y-84540000D03*
X102720000Y-84540000D03*
X105260000Y-84540000D03*
X105260000Y-69300000D03*
X102720000Y-69300000D03*
X100180000Y-69300000D03*
X97640000Y-69300000D03*
X95100000Y-69300000D03*
X92560000Y-69300000D03*
X90020000Y-69300000D03*
X87480000Y-69300000D03*
X84940000Y-69300000D03*
X82400000Y-69300000D03*
X79860000Y-69300000D03*
X77320000Y-69300000D03*
X74780000Y-69300000D03*
X72240000Y-69300000D03*
%TD*%
D16*
%TO.C,Speaker*%
X110575000Y-98655000D03*
D17*
X110575000Y-101195000D03*
%TD*%
M02*
