%TF.GenerationSoftware,KiCad,Pcbnew,9.0.6*%
%TF.CreationDate,2026-03-08T19:41:31+01:00*%
%TF.ProjectId,zx-talker,7a782d74-616c-46b6-9572-2e6b69636164,rev?*%
%TF.SameCoordinates,Original*%
%TF.FileFunction,Legend,Bot*%
%TF.FilePolarity,Positive*%
%FSLAX46Y46*%
G04 Gerber Fmt 4.6, Leading zero omitted, Abs format (unit mm)*
G04 Created by KiCad (PCBNEW 9.0.6) date 2026-03-08 19:41:31*
%MOMM*%
%LPD*%
G01*
G04 APERTURE LIST*
%ADD10C,0.100000*%
G04 APERTURE END LIST*
D10*
X95743922Y-109952782D02*
X95696303Y-109809925D01*
X95696303Y-109809925D02*
X95648684Y-109762306D01*
X95648684Y-109762306D02*
X95553446Y-109714687D01*
X95553446Y-109714687D02*
X95410589Y-109714687D01*
X95410589Y-109714687D02*
X95315351Y-109762306D01*
X95315351Y-109762306D02*
X95267732Y-109809925D01*
X95267732Y-109809925D02*
X95220112Y-109905163D01*
X95220112Y-109905163D02*
X95220112Y-110286115D01*
X95220112Y-110286115D02*
X96220112Y-110286115D01*
X96220112Y-110286115D02*
X96220112Y-109952782D01*
X96220112Y-109952782D02*
X96172493Y-109857544D01*
X96172493Y-109857544D02*
X96124874Y-109809925D01*
X96124874Y-109809925D02*
X96029636Y-109762306D01*
X96029636Y-109762306D02*
X95934398Y-109762306D01*
X95934398Y-109762306D02*
X95839160Y-109809925D01*
X95839160Y-109809925D02*
X95791541Y-109857544D01*
X95791541Y-109857544D02*
X95743922Y-109952782D01*
X95743922Y-109952782D02*
X95743922Y-110286115D01*
X96220112Y-109286115D02*
X95410589Y-109286115D01*
X95410589Y-109286115D02*
X95315351Y-109238496D01*
X95315351Y-109238496D02*
X95267732Y-109190877D01*
X95267732Y-109190877D02*
X95220112Y-109095639D01*
X95220112Y-109095639D02*
X95220112Y-108905163D01*
X95220112Y-108905163D02*
X95267732Y-108809925D01*
X95267732Y-108809925D02*
X95315351Y-108762306D01*
X95315351Y-108762306D02*
X95410589Y-108714687D01*
X95410589Y-108714687D02*
X96220112Y-108714687D01*
X95267732Y-108286115D02*
X95220112Y-108143258D01*
X95220112Y-108143258D02*
X95220112Y-107905163D01*
X95220112Y-107905163D02*
X95267732Y-107809925D01*
X95267732Y-107809925D02*
X95315351Y-107762306D01*
X95315351Y-107762306D02*
X95410589Y-107714687D01*
X95410589Y-107714687D02*
X95505827Y-107714687D01*
X95505827Y-107714687D02*
X95601065Y-107762306D01*
X95601065Y-107762306D02*
X95648684Y-107809925D01*
X95648684Y-107809925D02*
X95696303Y-107905163D01*
X95696303Y-107905163D02*
X95743922Y-108095639D01*
X95743922Y-108095639D02*
X95791541Y-108190877D01*
X95791541Y-108190877D02*
X95839160Y-108238496D01*
X95839160Y-108238496D02*
X95934398Y-108286115D01*
X95934398Y-108286115D02*
X96029636Y-108286115D01*
X96029636Y-108286115D02*
X96124874Y-108238496D01*
X96124874Y-108238496D02*
X96172493Y-108190877D01*
X96172493Y-108190877D02*
X96220112Y-108095639D01*
X96220112Y-108095639D02*
X96220112Y-107857544D01*
X96220112Y-107857544D02*
X96172493Y-107714687D01*
X95220112Y-106714687D02*
X95696303Y-107048020D01*
X95220112Y-107286115D02*
X96220112Y-107286115D01*
X96220112Y-107286115D02*
X96220112Y-106905163D01*
X96220112Y-106905163D02*
X96172493Y-106809925D01*
X96172493Y-106809925D02*
X96124874Y-106762306D01*
X96124874Y-106762306D02*
X96029636Y-106714687D01*
X96029636Y-106714687D02*
X95886779Y-106714687D01*
X95886779Y-106714687D02*
X95791541Y-106762306D01*
X95791541Y-106762306D02*
X95743922Y-106809925D01*
X95743922Y-106809925D02*
X95696303Y-106905163D01*
X95696303Y-106905163D02*
X95696303Y-107286115D01*
X95124874Y-105619449D02*
X95172493Y-105714687D01*
X95172493Y-105714687D02*
X95267732Y-105809925D01*
X95267732Y-105809925D02*
X95410589Y-105952782D01*
X95410589Y-105952782D02*
X95458208Y-106048020D01*
X95458208Y-106048020D02*
X95458208Y-106143258D01*
X95220112Y-106095639D02*
X95267732Y-106190877D01*
X95267732Y-106190877D02*
X95362970Y-106286115D01*
X95362970Y-106286115D02*
X95553446Y-106333734D01*
X95553446Y-106333734D02*
X95886779Y-106333734D01*
X95886779Y-106333734D02*
X96077255Y-106286115D01*
X96077255Y-106286115D02*
X96172493Y-106190877D01*
X96172493Y-106190877D02*
X96220112Y-106095639D01*
X96220112Y-106095639D02*
X96220112Y-105905163D01*
X96220112Y-105905163D02*
X96172493Y-105809925D01*
X96172493Y-105809925D02*
X96077255Y-105714687D01*
X96077255Y-105714687D02*
X95886779Y-105667068D01*
X95886779Y-105667068D02*
X95553446Y-105667068D01*
X95553446Y-105667068D02*
X95362970Y-105714687D01*
X95362970Y-105714687D02*
X95267732Y-105809925D01*
X95267732Y-105809925D02*
X95220112Y-105905163D01*
X95220112Y-105905163D02*
X95220112Y-106095639D01*
X96497732Y-110424211D02*
X96497732Y-105576592D01*
X91125359Y-110428972D02*
X90125359Y-110095639D01*
X90125359Y-110095639D02*
X91125359Y-109762306D01*
X52538295Y-110343734D02*
X52538295Y-109867544D01*
X52252580Y-110438972D02*
X53252580Y-110105639D01*
X53252580Y-110105639D02*
X52252580Y-109772306D01*
X52252580Y-108915163D02*
X52252580Y-109486591D01*
X52252580Y-109200877D02*
X53252580Y-109200877D01*
X53252580Y-109200877D02*
X53109723Y-109296115D01*
X53109723Y-109296115D02*
X53014485Y-109391353D01*
X53014485Y-109391353D02*
X52966866Y-109486591D01*
X53157342Y-108534210D02*
X53204961Y-108486591D01*
X53204961Y-108486591D02*
X53252580Y-108391353D01*
X53252580Y-108391353D02*
X53252580Y-108153258D01*
X53252580Y-108153258D02*
X53204961Y-108058020D01*
X53204961Y-108058020D02*
X53157342Y-108010401D01*
X53157342Y-108010401D02*
X53062104Y-107962782D01*
X53062104Y-107962782D02*
X52966866Y-107962782D01*
X52966866Y-107962782D02*
X52824009Y-108010401D01*
X52824009Y-108010401D02*
X52252580Y-108581829D01*
X52252580Y-108581829D02*
X52252580Y-107962782D01*
X63244961Y-109782306D02*
X63292580Y-109877544D01*
X63292580Y-109877544D02*
X63292580Y-110020401D01*
X63292580Y-110020401D02*
X63244961Y-110163258D01*
X63244961Y-110163258D02*
X63149723Y-110258496D01*
X63149723Y-110258496D02*
X63054485Y-110306115D01*
X63054485Y-110306115D02*
X62864009Y-110353734D01*
X62864009Y-110353734D02*
X62721152Y-110353734D01*
X62721152Y-110353734D02*
X62530676Y-110306115D01*
X62530676Y-110306115D02*
X62435438Y-110258496D01*
X62435438Y-110258496D02*
X62340200Y-110163258D01*
X62340200Y-110163258D02*
X62292580Y-110020401D01*
X62292580Y-110020401D02*
X62292580Y-109925163D01*
X62292580Y-109925163D02*
X62340200Y-109782306D01*
X62340200Y-109782306D02*
X62387819Y-109734687D01*
X62387819Y-109734687D02*
X62721152Y-109734687D01*
X62721152Y-109734687D02*
X62721152Y-109925163D01*
X62292580Y-109306115D02*
X63292580Y-109306115D01*
X63292580Y-109306115D02*
X62292580Y-108734687D01*
X62292580Y-108734687D02*
X63292580Y-108734687D01*
X62292580Y-108258496D02*
X63292580Y-108258496D01*
X63292580Y-108258496D02*
X63292580Y-108020401D01*
X63292580Y-108020401D02*
X63244961Y-107877544D01*
X63244961Y-107877544D02*
X63149723Y-107782306D01*
X63149723Y-107782306D02*
X63054485Y-107734687D01*
X63054485Y-107734687D02*
X62864009Y-107687068D01*
X62864009Y-107687068D02*
X62721152Y-107687068D01*
X62721152Y-107687068D02*
X62530676Y-107734687D01*
X62530676Y-107734687D02*
X62435438Y-107782306D01*
X62435438Y-107782306D02*
X62340200Y-107877544D01*
X62340200Y-107877544D02*
X62292580Y-108020401D01*
X62292580Y-108020401D02*
X62292580Y-108258496D01*
X50138295Y-110333734D02*
X50138295Y-109857544D01*
X49852580Y-110428972D02*
X50852580Y-110095639D01*
X50852580Y-110095639D02*
X49852580Y-109762306D01*
X49852580Y-108905163D02*
X49852580Y-109476591D01*
X49852580Y-109190877D02*
X50852580Y-109190877D01*
X50852580Y-109190877D02*
X50709723Y-109286115D01*
X50709723Y-109286115D02*
X50614485Y-109381353D01*
X50614485Y-109381353D02*
X50566866Y-109476591D01*
X50519247Y-108048020D02*
X49852580Y-108048020D01*
X50900200Y-108286115D02*
X50185914Y-108524210D01*
X50185914Y-108524210D02*
X50185914Y-107905163D01*
X83598110Y-109762306D02*
X83645729Y-109857544D01*
X83645729Y-109857544D02*
X83645729Y-110000401D01*
X83645729Y-110000401D02*
X83598110Y-110143258D01*
X83598110Y-110143258D02*
X83502872Y-110238496D01*
X83502872Y-110238496D02*
X83407634Y-110286115D01*
X83407634Y-110286115D02*
X83217158Y-110333734D01*
X83217158Y-110333734D02*
X83074301Y-110333734D01*
X83074301Y-110333734D02*
X82883825Y-110286115D01*
X82883825Y-110286115D02*
X82788587Y-110238496D01*
X82788587Y-110238496D02*
X82693349Y-110143258D01*
X82693349Y-110143258D02*
X82645729Y-110000401D01*
X82645729Y-110000401D02*
X82645729Y-109905163D01*
X82645729Y-109905163D02*
X82693349Y-109762306D01*
X82693349Y-109762306D02*
X82740968Y-109714687D01*
X82740968Y-109714687D02*
X83074301Y-109714687D01*
X83074301Y-109714687D02*
X83074301Y-109905163D01*
X82645729Y-109286115D02*
X83645729Y-109286115D01*
X83645729Y-109286115D02*
X82645729Y-108714687D01*
X82645729Y-108714687D02*
X83645729Y-108714687D01*
X82645729Y-108238496D02*
X83645729Y-108238496D01*
X83645729Y-108238496D02*
X83645729Y-108000401D01*
X83645729Y-108000401D02*
X83598110Y-107857544D01*
X83598110Y-107857544D02*
X83502872Y-107762306D01*
X83502872Y-107762306D02*
X83407634Y-107714687D01*
X83407634Y-107714687D02*
X83217158Y-107667068D01*
X83217158Y-107667068D02*
X83074301Y-107667068D01*
X83074301Y-107667068D02*
X82883825Y-107714687D01*
X82883825Y-107714687D02*
X82788587Y-107762306D01*
X82788587Y-107762306D02*
X82693349Y-107857544D01*
X82693349Y-107857544D02*
X82645729Y-108000401D01*
X82645729Y-108000401D02*
X82645729Y-108238496D01*
X75235148Y-110333734D02*
X75235148Y-109857544D01*
X74949433Y-110428972D02*
X75949433Y-110095639D01*
X75949433Y-110095639D02*
X74949433Y-109762306D01*
X75854195Y-109476591D02*
X75901814Y-109428972D01*
X75901814Y-109428972D02*
X75949433Y-109333734D01*
X75949433Y-109333734D02*
X75949433Y-109095639D01*
X75949433Y-109095639D02*
X75901814Y-109000401D01*
X75901814Y-109000401D02*
X75854195Y-108952782D01*
X75854195Y-108952782D02*
X75758957Y-108905163D01*
X75758957Y-108905163D02*
X75663719Y-108905163D01*
X75663719Y-108905163D02*
X75520862Y-108952782D01*
X75520862Y-108952782D02*
X74949433Y-109524210D01*
X74949433Y-109524210D02*
X74949433Y-108905163D01*
X100817246Y-110333734D02*
X100817246Y-109857544D01*
X100531531Y-110428972D02*
X101531531Y-110095639D01*
X101531531Y-110095639D02*
X100531531Y-109762306D01*
X101531531Y-109524210D02*
X101531531Y-108857544D01*
X101531531Y-108857544D02*
X100531531Y-109286115D01*
X103310456Y-110333734D02*
X103310456Y-109857544D01*
X103024741Y-110428972D02*
X104024741Y-110095639D01*
X104024741Y-110095639D02*
X103024741Y-109762306D01*
X104024741Y-109000401D02*
X104024741Y-109190877D01*
X104024741Y-109190877D02*
X103977122Y-109286115D01*
X103977122Y-109286115D02*
X103929503Y-109333734D01*
X103929503Y-109333734D02*
X103786646Y-109428972D01*
X103786646Y-109428972D02*
X103596170Y-109476591D01*
X103596170Y-109476591D02*
X103215218Y-109476591D01*
X103215218Y-109476591D02*
X103119980Y-109428972D01*
X103119980Y-109428972D02*
X103072361Y-109381353D01*
X103072361Y-109381353D02*
X103024741Y-109286115D01*
X103024741Y-109286115D02*
X103024741Y-109095639D01*
X103024741Y-109095639D02*
X103072361Y-109000401D01*
X103072361Y-109000401D02*
X103119980Y-108952782D01*
X103119980Y-108952782D02*
X103215218Y-108905163D01*
X103215218Y-108905163D02*
X103453313Y-108905163D01*
X103453313Y-108905163D02*
X103548551Y-108952782D01*
X103548551Y-108952782D02*
X103596170Y-109000401D01*
X103596170Y-109000401D02*
X103643789Y-109095639D01*
X103643789Y-109095639D02*
X103643789Y-109286115D01*
X103643789Y-109286115D02*
X103596170Y-109381353D01*
X103596170Y-109381353D02*
X103548551Y-109428972D01*
X103548551Y-109428972D02*
X103453313Y-109476591D01*
X57523533Y-110286115D02*
X57523533Y-109524211D01*
X57142580Y-109905163D02*
X57904485Y-109905163D01*
X57142580Y-109000401D02*
X57142580Y-108809925D01*
X57142580Y-108809925D02*
X57190200Y-108714687D01*
X57190200Y-108714687D02*
X57237819Y-108667068D01*
X57237819Y-108667068D02*
X57380676Y-108571830D01*
X57380676Y-108571830D02*
X57571152Y-108524211D01*
X57571152Y-108524211D02*
X57952104Y-108524211D01*
X57952104Y-108524211D02*
X58047342Y-108571830D01*
X58047342Y-108571830D02*
X58094961Y-108619449D01*
X58094961Y-108619449D02*
X58142580Y-108714687D01*
X58142580Y-108714687D02*
X58142580Y-108905163D01*
X58142580Y-108905163D02*
X58094961Y-109000401D01*
X58094961Y-109000401D02*
X58047342Y-109048020D01*
X58047342Y-109048020D02*
X57952104Y-109095639D01*
X57952104Y-109095639D02*
X57714009Y-109095639D01*
X57714009Y-109095639D02*
X57618771Y-109048020D01*
X57618771Y-109048020D02*
X57571152Y-109000401D01*
X57571152Y-109000401D02*
X57523533Y-108905163D01*
X57523533Y-108905163D02*
X57523533Y-108714687D01*
X57523533Y-108714687D02*
X57571152Y-108619449D01*
X57571152Y-108619449D02*
X57618771Y-108571830D01*
X57618771Y-108571830D02*
X57714009Y-108524211D01*
X58142580Y-108238496D02*
X57142580Y-107905163D01*
X57142580Y-107905163D02*
X58142580Y-107571830D01*
X55333533Y-110296115D02*
X55333533Y-109534211D01*
X54952580Y-109915163D02*
X55714485Y-109915163D01*
X55952580Y-108581830D02*
X55952580Y-109058020D01*
X55952580Y-109058020D02*
X55476390Y-109105639D01*
X55476390Y-109105639D02*
X55524009Y-109058020D01*
X55524009Y-109058020D02*
X55571628Y-108962782D01*
X55571628Y-108962782D02*
X55571628Y-108724687D01*
X55571628Y-108724687D02*
X55524009Y-108629449D01*
X55524009Y-108629449D02*
X55476390Y-108581830D01*
X55476390Y-108581830D02*
X55381152Y-108534211D01*
X55381152Y-108534211D02*
X55143057Y-108534211D01*
X55143057Y-108534211D02*
X55047819Y-108581830D01*
X55047819Y-108581830D02*
X55000200Y-108629449D01*
X55000200Y-108629449D02*
X54952580Y-108724687D01*
X54952580Y-108724687D02*
X54952580Y-108962782D01*
X54952580Y-108962782D02*
X55000200Y-109058020D01*
X55000200Y-109058020D02*
X55047819Y-109105639D01*
X55952580Y-108248496D02*
X54952580Y-107915163D01*
X54952580Y-107915163D02*
X55952580Y-107581830D01*
X88108340Y-110095639D02*
X87632149Y-110095639D01*
X88632149Y-110428972D02*
X88108340Y-110095639D01*
X88108340Y-110095639D02*
X88632149Y-109762306D01*
X86138939Y-110428972D02*
X85138939Y-110095639D01*
X85138939Y-110095639D02*
X86138939Y-109762306D01*
X85138939Y-109428972D02*
X86138939Y-109428972D01*
X85138939Y-108952782D02*
X86138939Y-108952782D01*
X86138939Y-108952782D02*
X86138939Y-108714687D01*
X86138939Y-108714687D02*
X86091320Y-108571830D01*
X86091320Y-108571830D02*
X85996082Y-108476592D01*
X85996082Y-108476592D02*
X85900844Y-108428973D01*
X85900844Y-108428973D02*
X85710368Y-108381354D01*
X85710368Y-108381354D02*
X85567511Y-108381354D01*
X85567511Y-108381354D02*
X85377035Y-108428973D01*
X85377035Y-108428973D02*
X85281797Y-108476592D01*
X85281797Y-108476592D02*
X85186559Y-108571830D01*
X85186559Y-108571830D02*
X85138939Y-108714687D01*
X85138939Y-108714687D02*
X85138939Y-108952782D01*
X85662749Y-107952782D02*
X85662749Y-107619449D01*
X85138939Y-107476592D02*
X85138939Y-107952782D01*
X85138939Y-107952782D02*
X86138939Y-107952782D01*
X86138939Y-107952782D02*
X86138939Y-107476592D01*
X86138939Y-106857544D02*
X86138939Y-106667068D01*
X86138939Y-106667068D02*
X86091320Y-106571830D01*
X86091320Y-106571830D02*
X85996082Y-106476592D01*
X85996082Y-106476592D02*
X85805606Y-106428973D01*
X85805606Y-106428973D02*
X85472273Y-106428973D01*
X85472273Y-106428973D02*
X85281797Y-106476592D01*
X85281797Y-106476592D02*
X85186559Y-106571830D01*
X85186559Y-106571830D02*
X85138939Y-106667068D01*
X85138939Y-106667068D02*
X85138939Y-106857544D01*
X85138939Y-106857544D02*
X85186559Y-106952782D01*
X85186559Y-106952782D02*
X85281797Y-107048020D01*
X85281797Y-107048020D02*
X85472273Y-107095639D01*
X85472273Y-107095639D02*
X85805606Y-107095639D01*
X85805606Y-107095639D02*
X85996082Y-107048020D01*
X85996082Y-107048020D02*
X86091320Y-106952782D01*
X86091320Y-106952782D02*
X86138939Y-106857544D01*
X67565042Y-109714687D02*
X67517423Y-109762306D01*
X67517423Y-109762306D02*
X67469803Y-109905163D01*
X67469803Y-109905163D02*
X67469803Y-110000401D01*
X67469803Y-110000401D02*
X67517423Y-110143258D01*
X67517423Y-110143258D02*
X67612661Y-110238496D01*
X67612661Y-110238496D02*
X67707899Y-110286115D01*
X67707899Y-110286115D02*
X67898375Y-110333734D01*
X67898375Y-110333734D02*
X68041232Y-110333734D01*
X68041232Y-110333734D02*
X68231708Y-110286115D01*
X68231708Y-110286115D02*
X68326946Y-110238496D01*
X68326946Y-110238496D02*
X68422184Y-110143258D01*
X68422184Y-110143258D02*
X68469803Y-110000401D01*
X68469803Y-110000401D02*
X68469803Y-109905163D01*
X68469803Y-109905163D02*
X68422184Y-109762306D01*
X68422184Y-109762306D02*
X68374565Y-109714687D01*
X67469803Y-108809925D02*
X67469803Y-109286115D01*
X67469803Y-109286115D02*
X68469803Y-109286115D01*
X67469803Y-108476591D02*
X68469803Y-108476591D01*
X67469803Y-107905163D02*
X68041232Y-108333734D01*
X68469803Y-107905163D02*
X67898375Y-108476591D01*
X110612704Y-109714687D02*
X111088895Y-110048020D01*
X110612704Y-110286115D02*
X111612704Y-110286115D01*
X111612704Y-110286115D02*
X111612704Y-109905163D01*
X111612704Y-109905163D02*
X111565085Y-109809925D01*
X111565085Y-109809925D02*
X111517466Y-109762306D01*
X111517466Y-109762306D02*
X111422228Y-109714687D01*
X111422228Y-109714687D02*
X111279371Y-109714687D01*
X111279371Y-109714687D02*
X111184133Y-109762306D01*
X111184133Y-109762306D02*
X111136514Y-109809925D01*
X111136514Y-109809925D02*
X111088895Y-109905163D01*
X111088895Y-109905163D02*
X111088895Y-110286115D01*
X111612704Y-109095639D02*
X111612704Y-108905163D01*
X111612704Y-108905163D02*
X111565085Y-108809925D01*
X111565085Y-108809925D02*
X111469847Y-108714687D01*
X111469847Y-108714687D02*
X111279371Y-108667068D01*
X111279371Y-108667068D02*
X110946038Y-108667068D01*
X110946038Y-108667068D02*
X110755562Y-108714687D01*
X110755562Y-108714687D02*
X110660324Y-108809925D01*
X110660324Y-108809925D02*
X110612704Y-108905163D01*
X110612704Y-108905163D02*
X110612704Y-109095639D01*
X110612704Y-109095639D02*
X110660324Y-109190877D01*
X110660324Y-109190877D02*
X110755562Y-109286115D01*
X110755562Y-109286115D02*
X110946038Y-109333734D01*
X110946038Y-109333734D02*
X111279371Y-109333734D01*
X111279371Y-109333734D02*
X111469847Y-109286115D01*
X111469847Y-109286115D02*
X111565085Y-109190877D01*
X111565085Y-109190877D02*
X111612704Y-109095639D01*
X110612704Y-108238496D02*
X111612704Y-108238496D01*
X111612704Y-108238496D02*
X110898419Y-107905163D01*
X110898419Y-107905163D02*
X111612704Y-107571830D01*
X111612704Y-107571830D02*
X110612704Y-107571830D01*
X110707943Y-106524211D02*
X110660324Y-106571830D01*
X110660324Y-106571830D02*
X110612704Y-106714687D01*
X110612704Y-106714687D02*
X110612704Y-106809925D01*
X110612704Y-106809925D02*
X110660324Y-106952782D01*
X110660324Y-106952782D02*
X110755562Y-107048020D01*
X110755562Y-107048020D02*
X110850800Y-107095639D01*
X110850800Y-107095639D02*
X111041276Y-107143258D01*
X111041276Y-107143258D02*
X111184133Y-107143258D01*
X111184133Y-107143258D02*
X111374609Y-107095639D01*
X111374609Y-107095639D02*
X111469847Y-107048020D01*
X111469847Y-107048020D02*
X111565085Y-106952782D01*
X111565085Y-106952782D02*
X111612704Y-106809925D01*
X111612704Y-106809925D02*
X111612704Y-106714687D01*
X111612704Y-106714687D02*
X111565085Y-106571830D01*
X111565085Y-106571830D02*
X111517466Y-106524211D01*
X110660324Y-106143258D02*
X110612704Y-106000401D01*
X110612704Y-106000401D02*
X110612704Y-105762306D01*
X110612704Y-105762306D02*
X110660324Y-105667068D01*
X110660324Y-105667068D02*
X110707943Y-105619449D01*
X110707943Y-105619449D02*
X110803181Y-105571830D01*
X110803181Y-105571830D02*
X110898419Y-105571830D01*
X110898419Y-105571830D02*
X110993657Y-105619449D01*
X110993657Y-105619449D02*
X111041276Y-105667068D01*
X111041276Y-105667068D02*
X111088895Y-105762306D01*
X111088895Y-105762306D02*
X111136514Y-105952782D01*
X111136514Y-105952782D02*
X111184133Y-106048020D01*
X111184133Y-106048020D02*
X111231752Y-106095639D01*
X111231752Y-106095639D02*
X111326990Y-106143258D01*
X111326990Y-106143258D02*
X111422228Y-106143258D01*
X111422228Y-106143258D02*
X111517466Y-106095639D01*
X111517466Y-106095639D02*
X111565085Y-106048020D01*
X111565085Y-106048020D02*
X111612704Y-105952782D01*
X111612704Y-105952782D02*
X111612704Y-105714687D01*
X111612704Y-105714687D02*
X111565085Y-105571830D01*
X111890324Y-110424211D02*
X111890324Y-105481354D01*
X113846390Y-109952782D02*
X113798771Y-109809925D01*
X113798771Y-109809925D02*
X113751152Y-109762306D01*
X113751152Y-109762306D02*
X113655914Y-109714687D01*
X113655914Y-109714687D02*
X113513057Y-109714687D01*
X113513057Y-109714687D02*
X113417819Y-109762306D01*
X113417819Y-109762306D02*
X113370200Y-109809925D01*
X113370200Y-109809925D02*
X113322580Y-109905163D01*
X113322580Y-109905163D02*
X113322580Y-110286115D01*
X113322580Y-110286115D02*
X114322580Y-110286115D01*
X114322580Y-110286115D02*
X114322580Y-109952782D01*
X114322580Y-109952782D02*
X114274961Y-109857544D01*
X114274961Y-109857544D02*
X114227342Y-109809925D01*
X114227342Y-109809925D02*
X114132104Y-109762306D01*
X114132104Y-109762306D02*
X114036866Y-109762306D01*
X114036866Y-109762306D02*
X113941628Y-109809925D01*
X113941628Y-109809925D02*
X113894009Y-109857544D01*
X113894009Y-109857544D02*
X113846390Y-109952782D01*
X113846390Y-109952782D02*
X113846390Y-110286115D01*
X114322580Y-109286115D02*
X113513057Y-109286115D01*
X113513057Y-109286115D02*
X113417819Y-109238496D01*
X113417819Y-109238496D02*
X113370200Y-109190877D01*
X113370200Y-109190877D02*
X113322580Y-109095639D01*
X113322580Y-109095639D02*
X113322580Y-108905163D01*
X113322580Y-108905163D02*
X113370200Y-108809925D01*
X113370200Y-108809925D02*
X113417819Y-108762306D01*
X113417819Y-108762306D02*
X113513057Y-108714687D01*
X113513057Y-108714687D02*
X114322580Y-108714687D01*
X113370200Y-108286115D02*
X113322580Y-108143258D01*
X113322580Y-108143258D02*
X113322580Y-107905163D01*
X113322580Y-107905163D02*
X113370200Y-107809925D01*
X113370200Y-107809925D02*
X113417819Y-107762306D01*
X113417819Y-107762306D02*
X113513057Y-107714687D01*
X113513057Y-107714687D02*
X113608295Y-107714687D01*
X113608295Y-107714687D02*
X113703533Y-107762306D01*
X113703533Y-107762306D02*
X113751152Y-107809925D01*
X113751152Y-107809925D02*
X113798771Y-107905163D01*
X113798771Y-107905163D02*
X113846390Y-108095639D01*
X113846390Y-108095639D02*
X113894009Y-108190877D01*
X113894009Y-108190877D02*
X113941628Y-108238496D01*
X113941628Y-108238496D02*
X114036866Y-108286115D01*
X114036866Y-108286115D02*
X114132104Y-108286115D01*
X114132104Y-108286115D02*
X114227342Y-108238496D01*
X114227342Y-108238496D02*
X114274961Y-108190877D01*
X114274961Y-108190877D02*
X114322580Y-108095639D01*
X114322580Y-108095639D02*
X114322580Y-107857544D01*
X114322580Y-107857544D02*
X114274961Y-107714687D01*
X113608295Y-107333734D02*
X113608295Y-106857544D01*
X113322580Y-107428972D02*
X114322580Y-107095639D01*
X114322580Y-107095639D02*
X113322580Y-106762306D01*
X113417819Y-105857544D02*
X113370200Y-105905163D01*
X113370200Y-105905163D02*
X113322580Y-106048020D01*
X113322580Y-106048020D02*
X113322580Y-106143258D01*
X113322580Y-106143258D02*
X113370200Y-106286115D01*
X113370200Y-106286115D02*
X113465438Y-106381353D01*
X113465438Y-106381353D02*
X113560676Y-106428972D01*
X113560676Y-106428972D02*
X113751152Y-106476591D01*
X113751152Y-106476591D02*
X113894009Y-106476591D01*
X113894009Y-106476591D02*
X114084485Y-106428972D01*
X114084485Y-106428972D02*
X114179723Y-106381353D01*
X114179723Y-106381353D02*
X114274961Y-106286115D01*
X114274961Y-106286115D02*
X114322580Y-106143258D01*
X114322580Y-106143258D02*
X114322580Y-106048020D01*
X114322580Y-106048020D02*
X114274961Y-105905163D01*
X114274961Y-105905163D02*
X114227342Y-105857544D01*
X113322580Y-105428972D02*
X114322580Y-105428972D01*
X113322580Y-104857544D02*
X113894009Y-105286115D01*
X114322580Y-104857544D02*
X113751152Y-105428972D01*
X114600200Y-110424211D02*
X114600200Y-104767068D01*
X97929988Y-109714687D02*
X98406179Y-110048020D01*
X97929988Y-110286115D02*
X98929988Y-110286115D01*
X98929988Y-110286115D02*
X98929988Y-109905163D01*
X98929988Y-109905163D02*
X98882369Y-109809925D01*
X98882369Y-109809925D02*
X98834750Y-109762306D01*
X98834750Y-109762306D02*
X98739512Y-109714687D01*
X98739512Y-109714687D02*
X98596655Y-109714687D01*
X98596655Y-109714687D02*
X98501417Y-109762306D01*
X98501417Y-109762306D02*
X98453798Y-109809925D01*
X98453798Y-109809925D02*
X98406179Y-109905163D01*
X98406179Y-109905163D02*
X98406179Y-110286115D01*
X98453798Y-109286115D02*
X98453798Y-108952782D01*
X97929988Y-108809925D02*
X97929988Y-109286115D01*
X97929988Y-109286115D02*
X98929988Y-109286115D01*
X98929988Y-109286115D02*
X98929988Y-108809925D01*
X97977608Y-108428972D02*
X97929988Y-108286115D01*
X97929988Y-108286115D02*
X97929988Y-108048020D01*
X97929988Y-108048020D02*
X97977608Y-107952782D01*
X97977608Y-107952782D02*
X98025227Y-107905163D01*
X98025227Y-107905163D02*
X98120465Y-107857544D01*
X98120465Y-107857544D02*
X98215703Y-107857544D01*
X98215703Y-107857544D02*
X98310941Y-107905163D01*
X98310941Y-107905163D02*
X98358560Y-107952782D01*
X98358560Y-107952782D02*
X98406179Y-108048020D01*
X98406179Y-108048020D02*
X98453798Y-108238496D01*
X98453798Y-108238496D02*
X98501417Y-108333734D01*
X98501417Y-108333734D02*
X98549036Y-108381353D01*
X98549036Y-108381353D02*
X98644274Y-108428972D01*
X98644274Y-108428972D02*
X98739512Y-108428972D01*
X98739512Y-108428972D02*
X98834750Y-108381353D01*
X98834750Y-108381353D02*
X98882369Y-108333734D01*
X98882369Y-108333734D02*
X98929988Y-108238496D01*
X98929988Y-108238496D02*
X98929988Y-108000401D01*
X98929988Y-108000401D02*
X98882369Y-107857544D01*
X98453798Y-107428972D02*
X98453798Y-107095639D01*
X97929988Y-106952782D02*
X97929988Y-107428972D01*
X97929988Y-107428972D02*
X98929988Y-107428972D01*
X98929988Y-107428972D02*
X98929988Y-106952782D01*
X98929988Y-106667067D02*
X98929988Y-106095639D01*
X97929988Y-106381353D02*
X98929988Y-106381353D01*
X99207608Y-110424211D02*
X99207608Y-106100401D01*
X116209838Y-110333734D02*
X116209838Y-109857544D01*
X115924123Y-110428972D02*
X116924123Y-110095639D01*
X116924123Y-110095639D02*
X115924123Y-109762306D01*
X115924123Y-109381353D02*
X115924123Y-109190877D01*
X115924123Y-109190877D02*
X115971743Y-109095639D01*
X115971743Y-109095639D02*
X116019362Y-109048020D01*
X116019362Y-109048020D02*
X116162219Y-108952782D01*
X116162219Y-108952782D02*
X116352695Y-108905163D01*
X116352695Y-108905163D02*
X116733647Y-108905163D01*
X116733647Y-108905163D02*
X116828885Y-108952782D01*
X116828885Y-108952782D02*
X116876504Y-109000401D01*
X116876504Y-109000401D02*
X116924123Y-109095639D01*
X116924123Y-109095639D02*
X116924123Y-109286115D01*
X116924123Y-109286115D02*
X116876504Y-109381353D01*
X116876504Y-109381353D02*
X116828885Y-109428972D01*
X116828885Y-109428972D02*
X116733647Y-109476591D01*
X116733647Y-109476591D02*
X116495552Y-109476591D01*
X116495552Y-109476591D02*
X116400314Y-109428972D01*
X116400314Y-109428972D02*
X116352695Y-109381353D01*
X116352695Y-109381353D02*
X116305076Y-109286115D01*
X116305076Y-109286115D02*
X116305076Y-109095639D01*
X116305076Y-109095639D02*
X116352695Y-109000401D01*
X116352695Y-109000401D02*
X116400314Y-108952782D01*
X116400314Y-108952782D02*
X116495552Y-108905163D01*
X65928974Y-109762306D02*
X65976593Y-109857544D01*
X65976593Y-109857544D02*
X65976593Y-110000401D01*
X65976593Y-110000401D02*
X65928974Y-110143258D01*
X65928974Y-110143258D02*
X65833736Y-110238496D01*
X65833736Y-110238496D02*
X65738498Y-110286115D01*
X65738498Y-110286115D02*
X65548022Y-110333734D01*
X65548022Y-110333734D02*
X65405165Y-110333734D01*
X65405165Y-110333734D02*
X65214689Y-110286115D01*
X65214689Y-110286115D02*
X65119451Y-110238496D01*
X65119451Y-110238496D02*
X65024213Y-110143258D01*
X65024213Y-110143258D02*
X64976593Y-110000401D01*
X64976593Y-110000401D02*
X64976593Y-109905163D01*
X64976593Y-109905163D02*
X65024213Y-109762306D01*
X65024213Y-109762306D02*
X65071832Y-109714687D01*
X65071832Y-109714687D02*
X65405165Y-109714687D01*
X65405165Y-109714687D02*
X65405165Y-109905163D01*
X64976593Y-109286115D02*
X65976593Y-109286115D01*
X65976593Y-109286115D02*
X64976593Y-108714687D01*
X64976593Y-108714687D02*
X65976593Y-108714687D01*
X64976593Y-108238496D02*
X65976593Y-108238496D01*
X65976593Y-108238496D02*
X65976593Y-108000401D01*
X65976593Y-108000401D02*
X65928974Y-107857544D01*
X65928974Y-107857544D02*
X65833736Y-107762306D01*
X65833736Y-107762306D02*
X65738498Y-107714687D01*
X65738498Y-107714687D02*
X65548022Y-107667068D01*
X65548022Y-107667068D02*
X65405165Y-107667068D01*
X65405165Y-107667068D02*
X65214689Y-107714687D01*
X65214689Y-107714687D02*
X65119451Y-107762306D01*
X65119451Y-107762306D02*
X65024213Y-107857544D01*
X65024213Y-107857544D02*
X64976593Y-108000401D01*
X64976593Y-108000401D02*
X64976593Y-108238496D01*
X77728358Y-110333734D02*
X77728358Y-109857544D01*
X77442643Y-110428972D02*
X78442643Y-110095639D01*
X78442643Y-110095639D02*
X77442643Y-109762306D01*
X78442643Y-109524210D02*
X78442643Y-108905163D01*
X78442643Y-108905163D02*
X78061691Y-109238496D01*
X78061691Y-109238496D02*
X78061691Y-109095639D01*
X78061691Y-109095639D02*
X78014072Y-109000401D01*
X78014072Y-109000401D02*
X77966453Y-108952782D01*
X77966453Y-108952782D02*
X77871215Y-108905163D01*
X77871215Y-108905163D02*
X77633120Y-108905163D01*
X77633120Y-108905163D02*
X77537882Y-108952782D01*
X77537882Y-108952782D02*
X77490263Y-109000401D01*
X77490263Y-109000401D02*
X77442643Y-109095639D01*
X77442643Y-109095639D02*
X77442643Y-109381353D01*
X77442643Y-109381353D02*
X77490263Y-109476591D01*
X77490263Y-109476591D02*
X77537882Y-109524210D01*
X93618569Y-110286115D02*
X92809046Y-110286115D01*
X92809046Y-110286115D02*
X92713808Y-110238496D01*
X92713808Y-110238496D02*
X92666189Y-110190877D01*
X92666189Y-110190877D02*
X92618569Y-110095639D01*
X92618569Y-110095639D02*
X92618569Y-109905163D01*
X92618569Y-109905163D02*
X92666189Y-109809925D01*
X92666189Y-109809925D02*
X92713808Y-109762306D01*
X92713808Y-109762306D02*
X92809046Y-109714687D01*
X92809046Y-109714687D02*
X93618569Y-109714687D01*
X108296876Y-110333734D02*
X108296876Y-109857544D01*
X108011161Y-110428972D02*
X109011161Y-110095639D01*
X109011161Y-110095639D02*
X108011161Y-109762306D01*
X108677828Y-109000401D02*
X108011161Y-109000401D01*
X109058781Y-109238496D02*
X108344495Y-109476591D01*
X108344495Y-109476591D02*
X108344495Y-108857544D01*
X70248728Y-110333734D02*
X70248728Y-109857544D01*
X69963013Y-110428972D02*
X70963013Y-110095639D01*
X70963013Y-110095639D02*
X69963013Y-109762306D01*
X70963013Y-109238496D02*
X70963013Y-109143258D01*
X70963013Y-109143258D02*
X70915394Y-109048020D01*
X70915394Y-109048020D02*
X70867775Y-109000401D01*
X70867775Y-109000401D02*
X70772537Y-108952782D01*
X70772537Y-108952782D02*
X70582061Y-108905163D01*
X70582061Y-108905163D02*
X70343966Y-108905163D01*
X70343966Y-108905163D02*
X70153490Y-108952782D01*
X70153490Y-108952782D02*
X70058252Y-109000401D01*
X70058252Y-109000401D02*
X70010633Y-109048020D01*
X70010633Y-109048020D02*
X69963013Y-109143258D01*
X69963013Y-109143258D02*
X69963013Y-109238496D01*
X69963013Y-109238496D02*
X70010633Y-109333734D01*
X70010633Y-109333734D02*
X70058252Y-109381353D01*
X70058252Y-109381353D02*
X70153490Y-109428972D01*
X70153490Y-109428972D02*
X70343966Y-109476591D01*
X70343966Y-109476591D02*
X70582061Y-109476591D01*
X70582061Y-109476591D02*
X70772537Y-109428972D01*
X70772537Y-109428972D02*
X70867775Y-109381353D01*
X70867775Y-109381353D02*
X70915394Y-109333734D01*
X70915394Y-109333734D02*
X70963013Y-109238496D01*
X105803666Y-110333734D02*
X105803666Y-109857544D01*
X105517951Y-110428972D02*
X106517951Y-110095639D01*
X106517951Y-110095639D02*
X105517951Y-109762306D01*
X106517951Y-108952782D02*
X106517951Y-109428972D01*
X106517951Y-109428972D02*
X106041761Y-109476591D01*
X106041761Y-109476591D02*
X106089380Y-109428972D01*
X106089380Y-109428972D02*
X106136999Y-109333734D01*
X106136999Y-109333734D02*
X106136999Y-109095639D01*
X106136999Y-109095639D02*
X106089380Y-109000401D01*
X106089380Y-109000401D02*
X106041761Y-108952782D01*
X106041761Y-108952782D02*
X105946523Y-108905163D01*
X105946523Y-108905163D02*
X105708428Y-108905163D01*
X105708428Y-108905163D02*
X105613190Y-108952782D01*
X105613190Y-108952782D02*
X105565571Y-109000401D01*
X105565571Y-109000401D02*
X105517951Y-109095639D01*
X105517951Y-109095639D02*
X105517951Y-109333734D01*
X105517951Y-109333734D02*
X105565571Y-109428972D01*
X105565571Y-109428972D02*
X105613190Y-109476591D01*
X80044186Y-110286115D02*
X81044186Y-110286115D01*
X81044186Y-109619449D02*
X81044186Y-109428973D01*
X81044186Y-109428973D02*
X80996567Y-109333735D01*
X80996567Y-109333735D02*
X80901329Y-109238497D01*
X80901329Y-109238497D02*
X80710853Y-109190878D01*
X80710853Y-109190878D02*
X80377520Y-109190878D01*
X80377520Y-109190878D02*
X80187044Y-109238497D01*
X80187044Y-109238497D02*
X80091806Y-109333735D01*
X80091806Y-109333735D02*
X80044186Y-109428973D01*
X80044186Y-109428973D02*
X80044186Y-109619449D01*
X80044186Y-109619449D02*
X80091806Y-109714687D01*
X80091806Y-109714687D02*
X80187044Y-109809925D01*
X80187044Y-109809925D02*
X80377520Y-109857544D01*
X80377520Y-109857544D02*
X80710853Y-109857544D01*
X80710853Y-109857544D02*
X80901329Y-109809925D01*
X80901329Y-109809925D02*
X80996567Y-109714687D01*
X80996567Y-109714687D02*
X81044186Y-109619449D01*
X80044186Y-108190878D02*
X80520377Y-108524211D01*
X80044186Y-108762306D02*
X81044186Y-108762306D01*
X81044186Y-108762306D02*
X81044186Y-108381354D01*
X81044186Y-108381354D02*
X80996567Y-108286116D01*
X80996567Y-108286116D02*
X80948948Y-108238497D01*
X80948948Y-108238497D02*
X80853710Y-108190878D01*
X80853710Y-108190878D02*
X80710853Y-108190878D01*
X80710853Y-108190878D02*
X80615615Y-108238497D01*
X80615615Y-108238497D02*
X80567996Y-108286116D01*
X80567996Y-108286116D02*
X80520377Y-108381354D01*
X80520377Y-108381354D02*
X80520377Y-108762306D01*
X81044186Y-107571830D02*
X81044186Y-107381354D01*
X81044186Y-107381354D02*
X80996567Y-107286116D01*
X80996567Y-107286116D02*
X80901329Y-107190878D01*
X80901329Y-107190878D02*
X80710853Y-107143259D01*
X80710853Y-107143259D02*
X80377520Y-107143259D01*
X80377520Y-107143259D02*
X80187044Y-107190878D01*
X80187044Y-107190878D02*
X80091806Y-107286116D01*
X80091806Y-107286116D02*
X80044186Y-107381354D01*
X80044186Y-107381354D02*
X80044186Y-107571830D01*
X80044186Y-107571830D02*
X80091806Y-107667068D01*
X80091806Y-107667068D02*
X80187044Y-107762306D01*
X80187044Y-107762306D02*
X80377520Y-107809925D01*
X80377520Y-107809925D02*
X80710853Y-107809925D01*
X80710853Y-107809925D02*
X80901329Y-107762306D01*
X80901329Y-107762306D02*
X80996567Y-107667068D01*
X80996567Y-107667068D02*
X81044186Y-107571830D01*
X80996567Y-106190878D02*
X81044186Y-106286116D01*
X81044186Y-106286116D02*
X81044186Y-106428973D01*
X81044186Y-106428973D02*
X80996567Y-106571830D01*
X80996567Y-106571830D02*
X80901329Y-106667068D01*
X80901329Y-106667068D02*
X80806091Y-106714687D01*
X80806091Y-106714687D02*
X80615615Y-106762306D01*
X80615615Y-106762306D02*
X80472758Y-106762306D01*
X80472758Y-106762306D02*
X80282282Y-106714687D01*
X80282282Y-106714687D02*
X80187044Y-106667068D01*
X80187044Y-106667068D02*
X80091806Y-106571830D01*
X80091806Y-106571830D02*
X80044186Y-106428973D01*
X80044186Y-106428973D02*
X80044186Y-106333735D01*
X80044186Y-106333735D02*
X80091806Y-106190878D01*
X80091806Y-106190878D02*
X80139425Y-106143259D01*
X80139425Y-106143259D02*
X80472758Y-106143259D01*
X80472758Y-106143259D02*
X80472758Y-106333735D01*
X80567996Y-105714687D02*
X80567996Y-105381354D01*
X80044186Y-105238497D02*
X80044186Y-105714687D01*
X80044186Y-105714687D02*
X81044186Y-105714687D01*
X81044186Y-105714687D02*
X81044186Y-105238497D01*
X81321806Y-110424211D02*
X81321806Y-105148021D01*
X72741938Y-110333734D02*
X72741938Y-109857544D01*
X72456223Y-110428972D02*
X73456223Y-110095639D01*
X73456223Y-110095639D02*
X72456223Y-109762306D01*
X72456223Y-108905163D02*
X72456223Y-109476591D01*
X72456223Y-109190877D02*
X73456223Y-109190877D01*
X73456223Y-109190877D02*
X73313366Y-109286115D01*
X73313366Y-109286115D02*
X73218128Y-109381353D01*
X73218128Y-109381353D02*
X73170509Y-109476591D01*
X118703048Y-110333734D02*
X118703048Y-109857544D01*
X118417333Y-110428972D02*
X119417333Y-110095639D01*
X119417333Y-110095639D02*
X118417333Y-109762306D01*
X118417333Y-108905163D02*
X118417333Y-109476591D01*
X118417333Y-109190877D02*
X119417333Y-109190877D01*
X119417333Y-109190877D02*
X119274476Y-109286115D01*
X119274476Y-109286115D02*
X119179238Y-109381353D01*
X119179238Y-109381353D02*
X119131619Y-109476591D01*
X118417333Y-107952782D02*
X118417333Y-108524210D01*
X118417333Y-108238496D02*
X119417333Y-108238496D01*
X119417333Y-108238496D02*
X119274476Y-108333734D01*
X119274476Y-108333734D02*
X119179238Y-108428972D01*
X119179238Y-108428972D02*
X119131619Y-108524210D01*
M02*
