%TF.GenerationSoftware,KiCad,Pcbnew,9.0.6*%
%TF.CreationDate,2026-03-08T19:41:31+01:00*%
%TF.ProjectId,zx-talker,7a782d74-616c-46b6-9572-2e6b69636164,rev?*%
%TF.SameCoordinates,Original*%
%TF.FileFunction,Copper,L1,Top*%
%TF.FilePolarity,Positive*%
%FSLAX46Y46*%
G04 Gerber Fmt 4.6, Leading zero omitted, Abs format (unit mm)*
G04 Created by KiCad (PCBNEW 9.0.6) date 2026-03-08 19:41:31*
%MOMM*%
%LPD*%
G01*
G04 APERTURE LIST*
G04 Aperture macros list*
%AMRoundRect*
0 Rectangle with rounded corners*
0 $1 Rounding radius*
0 $2 $3 $4 $5 $6 $7 $8 $9 X,Y pos of 4 corners*
0 Add a 4 corners polygon primitive as box body*
4,1,4,$2,$3,$4,$5,$6,$7,$8,$9,$2,$3,0*
0 Add four circle primitives for the rounded corners*
1,1,$1+$1,$2,$3*
1,1,$1+$1,$4,$5*
1,1,$1+$1,$6,$7*
1,1,$1+$1,$8,$9*
0 Add four rect primitives between the rounded corners*
20,1,$1+$1,$2,$3,$4,$5,0*
20,1,$1+$1,$4,$5,$6,$7,0*
20,1,$1+$1,$6,$7,$8,$9,0*
20,1,$1+$1,$8,$9,$2,$3,0*%
G04 Aperture macros list end*
%TA.AperFunction,ComponentPad*%
%ADD10C,1.600000*%
%TD*%
%TA.AperFunction,ComponentPad*%
%ADD11RoundRect,0.250000X0.550000X-0.550000X0.550000X0.550000X-0.550000X0.550000X-0.550000X-0.550000X0*%
%TD*%
%TA.AperFunction,ComponentPad*%
%ADD12R,1.500000X1.050000*%
%TD*%
%TA.AperFunction,ComponentPad*%
%ADD13O,1.500000X1.050000*%
%TD*%
%TA.AperFunction,ComponentPad*%
%ADD14RoundRect,0.250000X-0.550000X-0.550000X0.550000X-0.550000X0.550000X0.550000X-0.550000X0.550000X0*%
%TD*%
%TA.AperFunction,ComponentPad*%
%ADD15RoundRect,0.250000X-0.550000X0.550000X-0.550000X-0.550000X0.550000X-0.550000X0.550000X0.550000X0*%
%TD*%
%TA.AperFunction,ComponentPad*%
%ADD16R,1.700000X1.700000*%
%TD*%
%TA.AperFunction,ComponentPad*%
%ADD17C,1.700000*%
%TD*%
%TA.AperFunction,ConnectorPad*%
%ADD18R,1.778000X7.620000*%
%TD*%
%TA.AperFunction,ComponentPad*%
%ADD19C,2.340000*%
%TD*%
%TA.AperFunction,ViaPad*%
%ADD20C,0.600000*%
%TD*%
%TA.AperFunction,Conductor*%
%ADD21C,0.200000*%
%TD*%
%TA.AperFunction,Conductor*%
%ADD22C,0.500000*%
%TD*%
G04 APERTURE END LIST*
D10*
%TO.P,R2,1*%
%TO.N,Net-(R1-Pad2)*%
X56920000Y-75320000D03*
%TO.P,R2,2*%
%TO.N,Net-(C2-Pad2)*%
X67080000Y-75320000D03*
%TD*%
D11*
%TO.P,C5,1*%
%TO.N,Net-(Q1-B)*%
X74710000Y-63200000D03*
D10*
%TO.P,C5,2*%
%TO.N,Net-(C4-Pad1)*%
X74710000Y-58200000D03*
%TD*%
D12*
%TO.P,Q1,1,C*%
%TO.N,Net-(Q1-C)*%
X97380000Y-58610000D03*
D13*
%TO.P,Q1,2,B*%
%TO.N,Net-(Q1-B)*%
X97380000Y-57340000D03*
%TO.P,Q1,3,E*%
%TO.N,GND*%
X97380000Y-56070000D03*
%TD*%
D10*
%TO.P,C6,1*%
%TO.N,+5V*%
X109510000Y-57430000D03*
%TO.P,C6,2*%
%TO.N,Net-(Q1-C)*%
X104510000Y-57430000D03*
%TD*%
D14*
%TO.P,C12,1*%
%TO.N,Net-(U3-V+)*%
X86394900Y-90630000D03*
D10*
%TO.P,C12,2*%
%TO.N,GND*%
X88894900Y-90630000D03*
%TD*%
%TO.P,R7,1*%
%TO.N,+5V*%
X119500000Y-63540000D03*
%TO.P,R7,2*%
%TO.N,Net-(Q1-C)*%
X109340000Y-63540000D03*
%TD*%
%TO.P,R9,1*%
%TO.N,Net-(C11-Pad1)*%
X72500000Y-104730000D03*
%TO.P,R9,2*%
%TO.N,Net-(C10-Pad1)*%
X72500000Y-94570000D03*
%TD*%
%TO.P,R4,1*%
%TO.N,Net-(IC3-~{RESET})*%
X61100000Y-91040000D03*
%TO.P,R4,2*%
%TO.N,+5V*%
X50940000Y-91040000D03*
%TD*%
D15*
%TO.P,C8,1*%
%TO.N,Net-(C8-Pad1)*%
X80370000Y-98170000D03*
D10*
%TO.P,C8,2*%
%TO.N,Net-(C8-Pad2)*%
X80370000Y-100670000D03*
%TD*%
D16*
%TO.P,Volume,1,1*%
%TO.N,Net-(C7-Pad2)*%
X110535000Y-84320000D03*
D17*
%TO.P,Volume,2,2*%
%TO.N,Net-(U3-+)*%
X110535000Y-86860000D03*
%TO.P,Volume,3,3*%
%TO.N,GND*%
X110535000Y-89400000D03*
%TD*%
D11*
%TO.P,74LS00,1*%
%TO.N,GND*%
X51500000Y-86620000D03*
D10*
%TO.P,74LS00,2*%
X54040000Y-86620000D03*
%TO.P,74LS00,3*%
%TO.N,unconnected-(U1-Pad3)*%
X56580000Y-86620000D03*
%TO.P,74LS00,4*%
%TO.N,GND*%
X59120000Y-86620000D03*
%TO.P,74LS00,5*%
X61660000Y-86620000D03*
%TO.P,74LS00,6*%
%TO.N,unconnected-(U1-Pad6)*%
X64200000Y-86620000D03*
%TO.P,74LS00,7,GND*%
%TO.N,GND*%
X66740000Y-86620000D03*
%TO.P,74LS00,8*%
%TO.N,Net-(IC3-OSC_1)*%
X66740000Y-79000000D03*
%TO.P,74LS00,9*%
%TO.N,Net-(C2-Pad2)*%
X64200000Y-79000000D03*
%TO.P,74LS00,10*%
X61660000Y-79000000D03*
%TO.P,74LS00,11*%
%TO.N,Net-(C2-Pad1)*%
X59120000Y-79000000D03*
%TO.P,74LS00,12*%
%TO.N,Net-(C1-Pad1)*%
X56580000Y-79000000D03*
%TO.P,74LS00,13*%
X54040000Y-79000000D03*
%TO.P,74LS00,14,VCC*%
%TO.N,+5V*%
X51500000Y-79000000D03*
%TD*%
%TO.P,R3,1*%
%TO.N,Net-(C1-Pad1)*%
X57030000Y-70140000D03*
%TO.P,R3,2*%
%TO.N,Net-(C2-Pad1)*%
X67190000Y-70140000D03*
%TD*%
%TO.P,R6,1*%
%TO.N,Net-(Q1-B)*%
X105910000Y-63640000D03*
%TO.P,R6,2*%
%TO.N,GND*%
X95750000Y-63640000D03*
%TD*%
%TO.P,C2,1*%
%TO.N,Net-(C2-Pad1)*%
X52580000Y-75050000D03*
%TO.P,C2,2*%
%TO.N,Net-(C2-Pad2)*%
X52580000Y-70050000D03*
%TD*%
D11*
%TO.P,74LS32,1*%
%TO.N,A5*%
X51280000Y-102980000D03*
D10*
%TO.P,74LS32,2*%
%TO.N,IORQ*%
X53820000Y-102980000D03*
%TO.P,74LS32,3*%
%TO.N,Net-(U2-Pad3)*%
X56360000Y-102980000D03*
%TO.P,74LS32,4*%
X58900000Y-102980000D03*
%TO.P,74LS32,5*%
%TO.N,WR*%
X61440000Y-102980000D03*
%TO.P,74LS32,6*%
%TO.N,Net-(IC3-~{ALD})*%
X63980000Y-102980000D03*
%TO.P,74LS32,7,GND*%
%TO.N,GND*%
X66520000Y-102980000D03*
%TO.P,74LS32,8*%
%TO.N,unconnected-(U2-Pad8)*%
X66520000Y-95360000D03*
%TO.P,74LS32,9*%
%TO.N,GND*%
X63980000Y-95360000D03*
%TO.P,74LS32,10*%
X61440000Y-95360000D03*
%TO.P,74LS32,11*%
%TO.N,unconnected-(U2-Pad11)*%
X58900000Y-95360000D03*
%TO.P,74LS32,12*%
%TO.N,GND*%
X56360000Y-95360000D03*
%TO.P,74LS32,13*%
X53820000Y-95360000D03*
%TO.P,74LS32,14,VCC*%
%TO.N,+5V*%
X51280000Y-95360000D03*
%TD*%
%TO.P,R5,1*%
%TO.N,Net-(IC3-DIGITAL_OUT)*%
X81690000Y-63540000D03*
%TO.P,R5,2*%
%TO.N,Net-(C4-Pad1)*%
X91850000Y-63540000D03*
%TD*%
%TO.P,C10,1*%
%TO.N,Net-(C10-Pad1)*%
X101190000Y-93570000D03*
%TO.P,C10,2*%
%TO.N,GND*%
X106190000Y-93570000D03*
%TD*%
%TO.P,C9,1*%
%TO.N,Net-(U3-BYPASS)*%
X101230000Y-97830000D03*
%TO.P,C9,2*%
%TO.N,GND*%
X106230000Y-97830000D03*
%TD*%
D18*
%TO.P,J1,B1,A15*%
%TO.N,unconnected-(J1-A15-PadB1)*%
X50040000Y-115050000D03*
%TO.P,J1,B2,A13*%
%TO.N,unconnected-(J1-A13-PadB2)*%
X52580000Y-115050000D03*
%TO.P,J1,B3,D7*%
%TO.N,unconnected-(J1-D7-PadB3)*%
X55120000Y-115050000D03*
%TO.P,J1,B4,N/C*%
%TO.N,unconnected-(J1-N{slash}C-PadB4)*%
X57660000Y-115050000D03*
%TO.P,J1,B6,D0*%
%TO.N,D0*%
X62740000Y-115050000D03*
%TO.P,J1,B7,D1*%
%TO.N,D1*%
X65280000Y-115050000D03*
%TO.P,J1,B8,D2*%
%TO.N,D2*%
X67820000Y-115050000D03*
%TO.P,J1,B9,D6*%
%TO.N,unconnected-(J1-D6-PadB9)*%
X70360000Y-115050000D03*
%TO.P,J1,B10,D5*%
%TO.N,D5*%
X72900000Y-115050000D03*
%TO.P,J1,B11,D3*%
%TO.N,D3*%
X75440000Y-115050000D03*
%TO.P,J1,B12,D4*%
%TO.N,D4*%
X77980000Y-115050000D03*
%TO.P,J1,B13,~{INT}*%
%TO.N,unconnected-(J1-~{INT}-PadB13)*%
X80520000Y-115050000D03*
%TO.P,J1,B14,~{NMI}*%
%TO.N,unconnected-(J1-~{NMI}-PadB14)*%
X83060000Y-115050000D03*
%TO.P,J1,B15,HALT*%
%TO.N,unconnected-(J1-HALT-PadB15)*%
X85600000Y-115050000D03*
%TO.P,J1,B16,MREQ*%
%TO.N,unconnected-(J1-MREQ-PadB16)*%
X88140000Y-115050000D03*
%TO.P,J1,B17,IOREQ*%
%TO.N,IORQ*%
X90680000Y-115050000D03*
%TO.P,J1,B18,RD*%
%TO.N,unconnected-(J1-RD-PadB18)*%
X93220000Y-115050000D03*
%TO.P,J1,B19,WR*%
%TO.N,WR*%
X95760000Y-115050000D03*
%TO.P,J1,B20,-5Vcc*%
%TO.N,unconnected-(J1--5Vcc-PadB20)*%
X98300000Y-115050000D03*
%TO.P,J1,B21,WAIT*%
%TO.N,WAIT*%
X100840000Y-115050000D03*
%TO.P,J1,B22,+12Vcc*%
%TO.N,unconnected-(J1-+12Vcc-PadB22)*%
X103380000Y-115050000D03*
%TO.P,J1,B23,12Vac*%
%TO.N,unconnected-(J1-12Vac-PadB23)*%
X105920000Y-115050000D03*
%TO.P,J1,B24,M1*%
%TO.N,unconnected-(J1-M1-PadB24)*%
X108460000Y-115050000D03*
%TO.P,J1,B25,RFSH*%
%TO.N,unconnected-(J1-RFSH-PadB25)*%
X111000000Y-115050000D03*
%TO.P,J1,B26,A8*%
%TO.N,unconnected-(J1-A8-PadB26)*%
X113540000Y-115050000D03*
%TO.P,J1,B27,A10*%
%TO.N,unconnected-(J1-A10-PadB27)*%
X116080000Y-115050000D03*
%TO.P,J1,B28,N/C*%
%TO.N,unconnected-(J1-N{slash}C-PadB28)*%
X118620000Y-115050000D03*
%TD*%
D10*
%TO.P,C13,1*%
%TO.N,+5V*%
X47040000Y-81790000D03*
%TO.P,C13,2*%
%TO.N,GND*%
X47040000Y-84290000D03*
%TD*%
%TO.P,C15,1*%
%TO.N,GND*%
X113820000Y-57430000D03*
%TO.P,C15,2*%
%TO.N,+5V*%
X118820000Y-57430000D03*
%TD*%
%TO.P,C4,1*%
%TO.N,Net-(C4-Pad1)*%
X83960000Y-57180000D03*
%TO.P,C4,2*%
%TO.N,GND*%
X88960000Y-57180000D03*
%TD*%
%TO.P,C1,1*%
%TO.N,Net-(C1-Pad1)*%
X67080000Y-63450000D03*
%TO.P,C1,2*%
%TO.N,Net-(IC3-OSC_1)*%
X67080000Y-58450000D03*
%TD*%
D11*
%TO.P,U3,1,GAIN*%
%TO.N,Net-(C8-Pad1)*%
X88230000Y-103170000D03*
D10*
%TO.P,U3,2,-*%
%TO.N,GND*%
X90770000Y-103170000D03*
%TO.P,U3,3,+*%
%TO.N,Net-(U3-+)*%
X93310000Y-103170000D03*
%TO.P,U3,4,GND*%
%TO.N,GND*%
X95850000Y-103170000D03*
%TO.P,U3,5*%
%TO.N,Net-(C11-Pad1)*%
X95850000Y-95550000D03*
%TO.P,U3,6,V+*%
%TO.N,Net-(U3-V+)*%
X93310000Y-95550000D03*
%TO.P,U3,7,BYPASS*%
%TO.N,Net-(U3-BYPASS)*%
X90770000Y-95550000D03*
%TO.P,U3,8,GAIN*%
%TO.N,Net-(C8-Pad2)*%
X88230000Y-95550000D03*
%TD*%
D14*
%TO.P,C7,1*%
%TO.N,Net-(Q1-C)*%
X112260000Y-73340000D03*
D10*
%TO.P,C7,2*%
%TO.N,Net-(C7-Pad2)*%
X117260000Y-73340000D03*
%TD*%
%TO.P,C3,1*%
%TO.N,Net-(IC3-~{RESET})*%
X69250000Y-90710000D03*
%TO.P,C3,2*%
%TO.N,GND*%
X64250000Y-90710000D03*
%TD*%
D19*
%TO.P,Pitch,1*%
%TO.N,Net-(IC3-OSC_1)*%
X54250000Y-55840000D03*
%TO.P,Pitch,2*%
%TO.N,Net-(R1-Pad2)*%
X56750000Y-65840000D03*
%TO.P,Pitch,3*%
%TO.N,N/C*%
X59250000Y-55840000D03*
%TD*%
D10*
%TO.P,C14,1*%
%TO.N,+5V*%
X47040000Y-97870000D03*
%TO.P,C14,2*%
%TO.N,GND*%
X47040000Y-100370000D03*
%TD*%
D14*
%TO.P,C11,1*%
%TO.N,Net-(C11-Pad1)*%
X94174900Y-90590000D03*
D10*
%TO.P,C11,2*%
%TO.N,Net-(C11-Pad2)*%
X96674900Y-90590000D03*
%TD*%
%TO.P,R10,1*%
%TO.N,Net-(U3-V+)*%
X83000000Y-90710000D03*
%TO.P,R10,2*%
%TO.N,+9V*%
X72840000Y-90710000D03*
%TD*%
D11*
%TO.P,SP0256-AL2,1,GND*%
%TO.N,GND*%
X72240000Y-84540000D03*
D10*
%TO.P,SP0256-AL2,2,~{RESET}*%
%TO.N,Net-(IC3-~{RESET})*%
X74780000Y-84540000D03*
%TO.P,SP0256-AL2,3,ROM_DISABLE*%
%TO.N,unconnected-(IC3-ROM_DISABLE-Pad3)*%
X77320000Y-84540000D03*
%TO.P,SP0256-AL2,4,C1*%
%TO.N,unconnected-(IC3-C1-Pad4)*%
X79860000Y-84540000D03*
%TO.P,SP0256-AL2,5,C2*%
%TO.N,unconnected-(IC3-C2-Pad5)*%
X82400000Y-84540000D03*
%TO.P,SP0256-AL2,6,C3*%
%TO.N,unconnected-(IC3-C3-Pad6)*%
X84940000Y-84540000D03*
%TO.P,SP0256-AL2,7,Vdd*%
%TO.N,+5V*%
X87480000Y-84540000D03*
%TO.P,SP0256-AL2,8,SBY*%
%TO.N,WAIT*%
X90020000Y-84540000D03*
%TO.P,SP0256-AL2,9,~{LRQ}*%
%TO.N,unconnected-(IC3-~{LRQ}-Pad9)*%
X92560000Y-84540000D03*
%TO.P,SP0256-AL2,10,A8*%
%TO.N,unconnected-(IC3-A8-Pad10)*%
X95100000Y-84540000D03*
%TO.P,SP0256-AL2,11,A7*%
%TO.N,unconnected-(IC3-A7-Pad11)*%
X97640000Y-84540000D03*
%TO.P,SP0256-AL2,12,SER_OUT*%
%TO.N,unconnected-(IC3-SER_OUT-Pad12)*%
X100180000Y-84540000D03*
%TO.P,SP0256-AL2,13,A6*%
%TO.N,D5*%
X102720000Y-84540000D03*
%TO.P,SP0256-AL2,14,A5*%
%TO.N,D4*%
X105260000Y-84540000D03*
%TO.P,SP0256-AL2,15,A4*%
%TO.N,D3*%
X105260000Y-69300000D03*
%TO.P,SP0256-AL2,16,A3*%
%TO.N,D2*%
X102720000Y-69300000D03*
%TO.P,SP0256-AL2,17,A2*%
%TO.N,D1*%
X100180000Y-69300000D03*
%TO.P,SP0256-AL2,18,A1*%
%TO.N,D0*%
X97640000Y-69300000D03*
%TO.P,SP0256-AL2,19,SE*%
%TO.N,+5V*%
X95100000Y-69300000D03*
%TO.P,SP0256-AL2,20,~{ALD}*%
%TO.N,Net-(IC3-~{ALD})*%
X92560000Y-69300000D03*
%TO.P,SP0256-AL2,21,SER_IN*%
%TO.N,unconnected-(IC3-SER_IN-Pad21)*%
X90020000Y-69300000D03*
%TO.P,SP0256-AL2,22,TEST*%
%TO.N,unconnected-(IC3-TEST-Pad22)*%
X87480000Y-69300000D03*
%TO.P,SP0256-AL2,23,Vdi*%
%TO.N,+5V*%
X84940000Y-69300000D03*
%TO.P,SP0256-AL2,24,DIGITAL_OUT*%
%TO.N,Net-(IC3-DIGITAL_OUT)*%
X82400000Y-69300000D03*
%TO.P,SP0256-AL2,25,~{SBY_RESET}*%
%TO.N,Net-(IC3-~{RESET})*%
X79860000Y-69300000D03*
%TO.P,SP0256-AL2,26,ROM_CLK*%
%TO.N,unconnected-(IC3-ROM_CLK-Pad26)*%
X77320000Y-69300000D03*
%TO.P,SP0256-AL2,27,OSC_1*%
%TO.N,Net-(IC3-OSC_1)*%
X74780000Y-69300000D03*
%TO.P,SP0256-AL2,28,OSC_2*%
%TO.N,unconnected-(IC3-OSC_2-Pad28)*%
X72240000Y-69300000D03*
%TD*%
D16*
%TO.P,Speaker,1,1*%
%TO.N,Net-(C11-Pad2)*%
X110575000Y-98655000D03*
D17*
%TO.P,Speaker,2,2*%
%TO.N,GND*%
X110575000Y-101195000D03*
%TD*%
D20*
%TO.N,A5*%
X98218500Y-106978800D03*
%TO.N,+9V*%
X58432400Y-91844700D03*
%TO.N,Net-(U3-+)*%
X112005300Y-101503500D03*
%TO.N,Net-(U3-BYPASS)*%
X90980600Y-101083400D03*
%TO.N,D4*%
X94667700Y-108477300D03*
%TO.N,D2*%
X93942900Y-107279600D03*
%TO.N,D5*%
X95727500Y-108021000D03*
%TO.N,D3*%
X77478900Y-72491900D03*
X76161200Y-109500800D03*
%TO.N,D1*%
X93060900Y-107028200D03*
%TO.N,D0*%
X67232800Y-109031400D03*
X70243900Y-71702900D03*
%TO.N,Net-(IC3-~{ALD})*%
X78514600Y-100476900D03*
%TO.N,WAIT*%
X97654900Y-110254200D03*
%TD*%
D21*
%TO.N,WR*%
X64303400Y-105843400D02*
X61440000Y-102980000D01*
X92258900Y-105843400D02*
X64303400Y-105843400D01*
X92479200Y-105623100D02*
X92258900Y-105843400D01*
X98281700Y-105623100D02*
X92479200Y-105623100D01*
X99221900Y-106563300D02*
X98281700Y-105623100D01*
X99221900Y-107394300D02*
X99221900Y-106563300D01*
X95760000Y-110856200D02*
X99221900Y-107394300D01*
X95760000Y-115050000D02*
X95760000Y-110856200D01*
%TO.N,IORQ*%
X90680000Y-115050000D02*
X90680000Y-110938300D01*
X57116100Y-106276100D02*
X53820000Y-102980000D01*
X92394200Y-106276100D02*
X57116100Y-106276100D01*
X92645500Y-106024800D02*
X92394200Y-106276100D01*
X95601900Y-106024800D02*
X92645500Y-106024800D01*
X95954200Y-106377100D02*
X95601900Y-106024800D01*
X98467700Y-106377100D02*
X95954200Y-106377100D01*
X98820200Y-106729600D02*
X98467700Y-106377100D01*
X98820200Y-107228000D02*
X98820200Y-106729600D01*
X98467700Y-107580500D02*
X98820200Y-107228000D01*
X97020500Y-107580500D02*
X98467700Y-107580500D01*
X93662700Y-110938300D02*
X97020500Y-107580500D01*
X90680000Y-110938300D02*
X93662700Y-110938300D01*
%TO.N,Net-(U2-Pad3)*%
X56360000Y-102980000D02*
X58900000Y-102980000D01*
%TO.N,A5*%
X54977800Y-106677800D02*
X51280000Y-102980000D01*
X92560500Y-106677800D02*
X54977800Y-106677800D01*
X92811800Y-106426500D02*
X92560500Y-106677800D01*
X93940700Y-106426500D02*
X92811800Y-106426500D01*
X94493000Y-106978800D02*
X93940700Y-106426500D01*
X98218500Y-106978800D02*
X94493000Y-106978800D01*
%TO.N,+9V*%
X58849500Y-92261800D02*
X58432400Y-91844700D01*
X71288200Y-92261800D02*
X58849500Y-92261800D01*
X72840000Y-90710000D02*
X71288200Y-92261800D01*
%TO.N,Net-(U3-+)*%
X109191600Y-104317200D02*
X112005300Y-101503500D01*
X94457200Y-104317200D02*
X109191600Y-104317200D01*
X93310000Y-103170000D02*
X94457200Y-104317200D01*
%TO.N,Net-(U3-V+)*%
X86314900Y-90710000D02*
X86394900Y-90630000D01*
X83000000Y-90710000D02*
X86314900Y-90710000D01*
X87951200Y-92186300D02*
X86394900Y-90630000D01*
X89946300Y-92186300D02*
X87951200Y-92186300D01*
X93310000Y-95550000D02*
X89946300Y-92186300D01*
%TO.N,Net-(C11-Pad2)*%
X101358300Y-90590000D02*
X109423300Y-98655000D01*
X96674900Y-90590000D02*
X101358300Y-90590000D01*
X110575000Y-98655000D02*
X109423300Y-98655000D01*
%TO.N,Net-(C11-Pad1)*%
X78570300Y-104730000D02*
X72500000Y-104730000D01*
X81530100Y-101770200D02*
X78570300Y-104730000D01*
X89443000Y-101770200D02*
X81530100Y-101770200D01*
X95663200Y-95550000D02*
X89443000Y-101770200D01*
X95850000Y-95550000D02*
X95663200Y-95550000D01*
%TO.N,Net-(C8-Pad2)*%
X85490000Y-95550000D02*
X88230000Y-95550000D01*
X80370000Y-100670000D02*
X85490000Y-95550000D01*
%TO.N,Net-(C10-Pad1)*%
X96211400Y-93570000D02*
X101190000Y-93570000D01*
X94580000Y-95201400D02*
X96211400Y-93570000D01*
X94580000Y-95879400D02*
X94580000Y-95201400D01*
X93758000Y-96701400D02*
X94580000Y-95879400D01*
X90354200Y-96701400D02*
X93758000Y-96701400D01*
X89500000Y-95847200D02*
X90354200Y-96701400D01*
X89500000Y-95222600D02*
X89500000Y-95847200D01*
X88725700Y-94448300D02*
X89500000Y-95222600D01*
X72621700Y-94448300D02*
X88725700Y-94448300D01*
X72500000Y-94570000D02*
X72621700Y-94448300D01*
%TO.N,Net-(U3-BYPASS)*%
X94234000Y-97830000D02*
X101230000Y-97830000D01*
X90980600Y-101083400D02*
X94234000Y-97830000D01*
%TO.N,D4*%
X77980000Y-115050000D02*
X77980000Y-110938300D01*
X94660300Y-108484700D02*
X94667700Y-108477300D01*
X80433600Y-108484700D02*
X94660300Y-108484700D01*
X77980000Y-110938300D02*
X80433600Y-108484700D01*
%TO.N,D2*%
X67820000Y-115050000D02*
X67820000Y-110938300D01*
X93660400Y-107279600D02*
X93942900Y-107279600D01*
X93310100Y-107629900D02*
X93660400Y-107279600D01*
X71128400Y-107629900D02*
X93310100Y-107629900D01*
X67820000Y-110938300D02*
X71128400Y-107629900D01*
%TO.N,D5*%
X72900000Y-115050000D02*
X72900000Y-110938300D01*
X95727500Y-108021000D02*
X95582100Y-107875600D01*
X95582100Y-107875600D02*
X95727500Y-108021000D01*
X95582100Y-107875600D02*
X95727500Y-108021000D01*
X94418600Y-107875600D02*
X95582100Y-107875600D01*
X94271600Y-108022600D02*
X94418600Y-107875600D01*
X93485400Y-108022600D02*
X94271600Y-108022600D01*
X93425000Y-108083000D02*
X93485400Y-108022600D01*
X75755300Y-108083000D02*
X93425000Y-108083000D01*
X72900000Y-110938300D02*
X75755300Y-108083000D01*
%TO.N,D3*%
X102068100Y-72491900D02*
X77478900Y-72491900D01*
X105260000Y-69300000D02*
X102068100Y-72491900D01*
X75440000Y-110222000D02*
X75440000Y-115050000D01*
X76161200Y-109500800D02*
X75440000Y-110222000D01*
X76161200Y-109500800D02*
X75440000Y-110222000D01*
X75440000Y-110222000D02*
X76161200Y-109500800D01*
%TO.N,D1*%
X65280000Y-111773700D02*
X65280000Y-115050000D01*
X67420500Y-109633200D02*
X65280000Y-111773700D01*
X67616200Y-109633200D02*
X67420500Y-109633200D01*
X70169800Y-107079600D02*
X67616200Y-109633200D01*
X93009500Y-107079600D02*
X70169800Y-107079600D01*
X93060900Y-107028200D02*
X93009500Y-107079600D01*
%TO.N,D0*%
X65325900Y-110938300D02*
X67232800Y-109031400D01*
X62740000Y-110938300D02*
X65325900Y-110938300D01*
X95237100Y-71702900D02*
X97640000Y-69300000D01*
X70243900Y-71702900D02*
X95237100Y-71702900D01*
X62740000Y-115050000D02*
X62740000Y-110938300D01*
%TO.N,Net-(IC3-~{ALD})*%
X66483100Y-100476900D02*
X63980000Y-102980000D01*
X78514600Y-100476900D02*
X66483100Y-100476900D01*
%TO.N,WAIT*%
X100840000Y-115050000D02*
X100840000Y-110938300D01*
X100155900Y-110254200D02*
X97654900Y-110254200D01*
X100840000Y-110938300D02*
X100155900Y-110254200D01*
%TO.N,Net-(C4-Pad1)*%
X75730000Y-57180000D02*
X74710000Y-58200000D01*
X83960000Y-57180000D02*
X75730000Y-57180000D01*
%TO.N,+5V*%
X48770000Y-97870000D02*
X51280000Y-95360000D01*
X47040000Y-97870000D02*
X48770000Y-97870000D01*
X49830000Y-79000000D02*
X47040000Y-81790000D01*
X51500000Y-79000000D02*
X49830000Y-79000000D01*
X117695400Y-56305400D02*
X118820000Y-57430000D01*
X110634600Y-56305400D02*
X117695400Y-56305400D01*
X109510000Y-57430000D02*
X110634600Y-56305400D01*
X93981800Y-68181800D02*
X95100000Y-69300000D01*
X86058200Y-68181800D02*
X93981800Y-68181800D01*
X84940000Y-69300000D02*
X86058200Y-68181800D01*
X84730000Y-81790000D02*
X47040000Y-81790000D01*
X87480000Y-84540000D02*
X84730000Y-81790000D01*
X118298300Y-64741700D02*
X119500000Y-63540000D01*
X99658300Y-64741700D02*
X118298300Y-64741700D01*
X95100000Y-69300000D02*
X99658300Y-64741700D01*
%TO.N,Net-(IC3-~{RESET})*%
X61913700Y-91853700D02*
X61100000Y-91040000D01*
X68106300Y-91853700D02*
X61913700Y-91853700D01*
X69250000Y-90710000D02*
X68106300Y-91853700D01*
%TO.N,Net-(C1-Pad1)*%
X60390000Y-70140000D02*
X57030000Y-70140000D01*
X67080000Y-63450000D02*
X60390000Y-70140000D01*
X54040000Y-79000000D02*
X56580000Y-79000000D01*
%TO.N,Net-(C2-Pad1)*%
X54520000Y-76990000D02*
X52580000Y-75050000D01*
X57110000Y-76990000D02*
X54520000Y-76990000D01*
X59120000Y-79000000D02*
X57110000Y-76990000D01*
%TO.N,Net-(C2-Pad2)*%
X65845400Y-74085400D02*
X67080000Y-75320000D01*
X56615400Y-74085400D02*
X65845400Y-74085400D01*
X52580000Y-70050000D02*
X56615400Y-74085400D01*
X64200000Y-79000000D02*
X61660000Y-79000000D01*
%TO.N,Net-(IC3-OSC_1)*%
X56860000Y-58450000D02*
X67080000Y-58450000D01*
X54250000Y-55840000D02*
X56860000Y-58450000D01*
%TO.N,Net-(Q1-C)*%
X103330000Y-58610000D02*
X104510000Y-57430000D01*
X97380000Y-58610000D02*
X103330000Y-58610000D01*
%TO.N,Net-(Q1-B)*%
X89162500Y-62424700D02*
X90245500Y-63507700D01*
X75485300Y-62424700D02*
X89162500Y-62424700D01*
X74710000Y-63200000D02*
X75485300Y-62424700D01*
X96328300Y-57424900D02*
X96328300Y-57340000D01*
X90245500Y-63507700D02*
X96328300Y-57424900D01*
X97551700Y-63640000D02*
X105910000Y-63640000D01*
X96430600Y-64761100D02*
X97551700Y-63640000D01*
X91498900Y-64761100D02*
X96430600Y-64761100D01*
X90245500Y-63507700D02*
X91498900Y-64761100D01*
X97380000Y-57340000D02*
X96328300Y-57340000D01*
D22*
%TO.N,GND*%
X63980000Y-95360000D02*
X61440000Y-95360000D01*
X90070000Y-56070000D02*
X88960000Y-57180000D01*
X97380000Y-56070000D02*
X90070000Y-56070000D01*
X51500000Y-86620000D02*
X54040000Y-86620000D01*
X49170000Y-84290000D02*
X51500000Y-86620000D01*
X47040000Y-84290000D02*
X49170000Y-84290000D01*
X59120000Y-86620000D02*
X61660000Y-86620000D01*
X94582100Y-101902100D02*
X95850000Y-103170000D01*
X92037900Y-101902100D02*
X94582100Y-101902100D01*
X90770000Y-103170000D02*
X92037900Y-101902100D01*
X56360000Y-95360000D02*
X53820000Y-95360000D01*
X48810000Y-100370000D02*
X47040000Y-100370000D01*
X53820000Y-95360000D02*
X48810000Y-100370000D01*
X71956800Y-86620000D02*
X72240000Y-86336800D01*
X66740000Y-86620000D02*
X71956800Y-86620000D01*
X72240000Y-86336800D02*
X72240000Y-84540000D01*
X84601700Y-86336800D02*
X88894900Y-90630000D01*
X72240000Y-86336800D02*
X84601700Y-86336800D01*
X106230000Y-101195000D02*
X106230000Y-97830000D01*
X110575000Y-101195000D02*
X106230000Y-101195000D01*
X97825000Y-101195000D02*
X95850000Y-103170000D01*
X106230000Y-101195000D02*
X97825000Y-101195000D01*
X99187600Y-60202400D02*
X95750000Y-63640000D01*
X111047600Y-60202400D02*
X99187600Y-60202400D01*
X113820000Y-57430000D02*
X111047600Y-60202400D01*
%TD*%
M02*
