M48
; DRILL file {KiCad 9.0.6} date 2026-03-08T19:41:36+0100
; FORMAT={-:-/ absolute / metric / decimal}
; #@! TF.CreationDate,2026-03-08T19:41:36+01:00
; #@! TF.GenerationSoftware,Kicad,Pcbnew,9.0.6
; #@! TF.FileFunction,Plated,1,2,PTH
FMAT,2
METRIC
; #@! TA.AperFunction,Plated,PTH,ViaDrill
T1C0.300
; #@! TA.AperFunction,Plated,PTH,ComponentDrill
T2C0.750
; #@! TA.AperFunction,Plated,PTH,ComponentDrill
T3C0.800
; #@! TA.AperFunction,Plated,PTH,ComponentDrill
T4C1.000
; #@! TA.AperFunction,Plated,PTH,ComponentDrill
T5C1.300
%
G90
G05
T1
X58.432Y-91.845
X67.233Y-109.031
X70.244Y-71.703
X76.161Y-109.501
X77.479Y-72.492
X78.515Y-100.477
X90.981Y-101.083
X93.061Y-107.028
X93.943Y-107.28
X94.668Y-108.477
X95.727Y-108.021
X97.655Y-110.254
X98.218Y-106.979
X112.005Y-101.504
T2
X97.38Y-56.07
X97.38Y-57.34
X97.38Y-58.61
T3
X47.04Y-81.79
X47.04Y-84.29
X47.04Y-97.87
X47.04Y-100.37
X50.94Y-91.04
X51.28Y-95.36
X51.28Y-102.98
X51.5Y-79.0
X51.5Y-86.62
X52.58Y-70.05
X52.58Y-75.05
X53.82Y-95.36
X53.82Y-102.98
X54.04Y-79.0
X54.04Y-86.62
X56.36Y-95.36
X56.36Y-102.98
X56.58Y-79.0
X56.58Y-86.62
X56.92Y-75.32
X57.03Y-70.14
X58.9Y-95.36
X58.9Y-102.98
X59.12Y-79.0
X59.12Y-86.62
X61.1Y-91.04
X61.44Y-95.36
X61.44Y-102.98
X61.66Y-79.0
X61.66Y-86.62
X63.98Y-95.36
X63.98Y-102.98
X64.2Y-79.0
X64.2Y-86.62
X64.25Y-90.71
X66.52Y-95.36
X66.52Y-102.98
X66.74Y-79.0
X66.74Y-86.62
X67.08Y-58.45
X67.08Y-63.45
X67.08Y-75.32
X67.19Y-70.14
X69.25Y-90.71
X72.24Y-69.3
X72.24Y-84.54
X72.5Y-94.57
X72.5Y-104.73
X72.84Y-90.71
X74.71Y-58.2
X74.71Y-63.2
X74.78Y-69.3
X74.78Y-84.54
X77.32Y-69.3
X77.32Y-84.54
X79.86Y-69.3
X79.86Y-84.54
X80.37Y-98.17
X80.37Y-100.67
X81.69Y-63.54
X82.4Y-69.3
X82.4Y-84.54
X83.0Y-90.71
X83.96Y-57.18
X84.94Y-69.3
X84.94Y-84.54
X86.395Y-90.63
X87.48Y-69.3
X87.48Y-84.54
X88.23Y-95.55
X88.23Y-103.17
X88.895Y-90.63
X88.96Y-57.18
X90.02Y-69.3
X90.02Y-84.54
X90.77Y-95.55
X90.77Y-103.17
X91.85Y-63.54
X92.56Y-69.3
X92.56Y-84.54
X93.31Y-95.55
X93.31Y-103.17
X94.175Y-90.59
X95.1Y-69.3
X95.1Y-84.54
X95.75Y-63.64
X95.85Y-95.55
X95.85Y-103.17
X96.675Y-90.59
X97.64Y-69.3
X97.64Y-84.54
X100.18Y-69.3
X100.18Y-84.54
X101.19Y-93.57
X101.23Y-97.83
X102.72Y-69.3
X102.72Y-84.54
X104.51Y-57.43
X105.26Y-69.3
X105.26Y-84.54
X105.91Y-63.64
X106.19Y-93.57
X106.23Y-97.83
X109.34Y-63.54
X109.51Y-57.43
X112.26Y-73.34
X113.82Y-57.43
X117.26Y-73.34
X118.82Y-57.43
X119.5Y-63.54
T4
X110.535Y-84.32
X110.535Y-86.86
X110.535Y-89.4
X110.575Y-98.655
X110.575Y-101.195
T5
X54.25Y-55.84
X56.75Y-65.84
X59.25Y-55.84
M30
